<svg width="1351" height="615" viewBox="0 0 1351 615" fill="none" xmlns="http://www.w3.org/2000/svg">
<path d="M1347.45 312.516C1347.45 459.698 1411.55 614.017 952.923 614.017C494.298 614.017 0.810547 442.369 0.810547 295.187C0.810547 148.004 58.4109 46.019 517.035 46.019C975.66 46.019 1347.45 165.334 1347.45 312.516Z" fill="#EED9DD"/>
<path d="M1346.05 266.589C1346.05 282.83 1346.83 299.157 1347.6 315.316C1347.7 317.503 1347.8 319.687 1347.91 321.867C1348.76 340.173 1349.47 358.224 1348.9 375.744C1347.74 410.783 1341.45 443.545 1321.04 471.707C1300.63 499.863 1265.96 523.614 1207.67 540.326C1149.36 557.042 1067.52 566.684 952.926 566.684C723.755 566.684 501.465 528.126 336.509 471.204C254.023 442.74 185.942 409.708 138.513 374.66C91.0184 339.564 64.5485 302.688 64.5485 266.589C64.5485 265.182 64.5481 263.778 64.5477 262.377C64.5272 190.334 64.5088 126.038 119.022 79.2134C146.849 55.3111 189.001 35.8688 252.924 22.4102C316.842 8.95268 402.432 1.49773 517.038 1.49773C746.246 1.49773 953.698 31.3148 1103.8 79.4856C1178.86 103.574 1239.5 132.226 1281.34 163.976C1323.21 195.743 1346.05 230.432 1346.05 266.589Z" stroke="#A47A82" stroke-width="2.81187"/>
</svg>
