<svg width="1349" height="586" viewBox="0 0 1349 586" fill="none" xmlns="http://www.w3.org/2000/svg">
<path d="M1345.61 256.383C1345.61 397.594 1397.54 545.651 1025.98 545.651C654.429 545.651 0.09375 397.594 0.09375 256.383C0.09375 115.173 301.296 0.699707 672.85 0.699707C1044.4 0.699707 1345.61 115.173 1345.61 256.383Z" fill="#D9E5EB"/>
<path d="M1344.25 295.951C1344.25 311.527 1344.88 327.185 1345.51 342.688C1345.59 344.787 1345.68 346.884 1345.76 348.977C1346.45 366.54 1347.03 383.866 1346.56 400.685C1345.63 434.33 1340.52 465.798 1323.97 492.835C1290.92 546.832 1211.72 583.87 1025.98 583.87C840.386 583.87 607.334 536.704 420.68 471.885C327.353 439.475 245.694 402.676 187.394 365.196C158.242 346.455 134.983 327.577 119.027 309.035C103.061 290.481 94.511 272.389 94.511 255.191C94.511 185.44 145.855 132.05 244.135 96.0419C342.39 60.0435 487.124 41.6165 672.844 41.6165C858.5 41.6165 1026.52 70.2186 1148.08 116.417C1208.86 139.517 1257.95 166.992 1291.83 197.431C1325.71 227.871 1344.25 261.166 1344.25 295.951Z" stroke="#4F7A8E" stroke-width="2.69778"/>
</svg>
