<svg width="1310" height="622" viewBox="0 0 1310 622" fill="none" xmlns="http://www.w3.org/2000/svg">
<path d="M1309.07 268.062C1309.07 419.467 1153.94 586.05 693.888 586.05C233.833 586.05 152.118 589.061 152.118 437.655C152.118 286.25 -234.533 0.663086 225.522 0.663086C685.577 0.663086 1309.07 94.1322 1309.07 268.062Z" fill="#F2F1F9"/>
<path d="M1279.52 303.512C1279.52 378.691 1241.03 457.776 1145.09 518.129C1049.1 578.512 895.598 620.137 665.707 620.137C656.77 620.137 647.975 620.138 639.32 620.139C536.602 620.152 453.72 620.163 387.009 618.242C314.662 616.159 261.436 611.805 222.611 602.752C183.798 593.702 159.582 580.001 145.007 559.38C130.409 538.725 125.301 510.88 125.301 473.106C125.301 434.979 110.396 388.521 93.0402 340.488C89.7092 331.27 86.2871 321.991 82.8594 312.698C68.3888 273.463 53.8181 233.956 45.5718 197.532C35.3638 152.442 34.9665 112.541 56.0233 83.9102C77.059 55.3086 119.872 37.4773 197.341 37.4773C427.296 37.4773 698.085 60.8387 911.353 105.924C1018 128.468 1110.18 156.428 1175.66 189.571C1208.41 206.144 1234.41 223.976 1252.2 243.017C1269.99 262.046 1279.52 282.213 1279.52 303.512Z" stroke="#8292FB" stroke-width="2.72698"/>
</svg>
