<svg width="1440" height="3026" viewBox="0 0 1440 3026" fill="none" xmlns="http://www.w3.org/2000/svg">
<path d="M874.085 92.7619C978.793 106.106 1052.48 165.746 1106.07 257.926C1159.79 350.317 1193.16 475.148 1216.91 618.044C1238.66 748.982 1252.27 894.629 1266.21 1043.75C1267.48 1057.3 1268.75 1070.88 1270.03 1084.49C1285.36 1247.65 1301.99 1413.68 1330.92 1567.51C1426.47 2075.55 1414.5 2438.42 1326.03 2667.24C1281.84 2781.54 1218.66 2862.16 1140.47 2910.89C1062.3 2959.61 968.671 2976.76 863.008 2963.3C758.171 2949.94 648.65 2875.81 544.433 2760.64C440.328 2645.59 342.072 2490.19 259.686 2315.54C94.8598 1966.13 -5.95291 1540.77 36.3122 1209.12C78.6658 876.782 182.708 583.893 329.026 381.019C475.335 178.158 663.368 65.9079 874.085 92.7619Z" stroke="#D0D0DA" stroke-width="9.91268"/>
</svg>
