<svg width="338" height="296" viewBox="0 0 338 296" fill="none" xmlns="http://www.w3.org/2000/svg">
<path d="M288.333 295.256C287.565 252.337 240.753 184.67 216.755 157.814M68.0708 35.8377C85.8825 42.7218 105.048 54.6495 124.402 69.5105M124.402 69.5105C128.02 72.2883 131.644 75.1685 135.267 78.1375M124.402 69.5105C120.118 69.0611 113.989 69.1125 107.662 70.3603M82.066 89.5801C86.1507 77.7799 97.1789 72.4279 107.662 70.3603M135.267 78.1375C140.017 82.0291 144.764 86.0731 149.493 90.2385M135.267 78.1375C132.159 74.3175 127.159 65.7261 123.856 53.7516M120.526 27.9165C120.414 37.6075 121.809 46.3294 123.856 53.7516M168.777 107.962C171.821 110.871 174.847 113.815 177.85 116.783M168.777 107.962C164.816 106.625 158.29 105.351 151.155 105.669M168.777 107.962C167.16 106.415 165.537 104.879 163.91 103.353M127.439 115.066C134.237 108.422 143.086 106.027 151.155 105.669M177.85 116.783C185.373 124.22 192.751 131.814 199.909 139.428M177.85 116.783C178.321 114.566 178.405 110.788 178.61 106.47M185.142 82.3865C179.891 87.2753 179.016 97.93 178.61 106.47M216.755 157.814C209.433 154.671 190.965 150.112 175.667 157.024M216.755 157.814C214.759 155.581 212.738 153.339 210.695 151.093M210.695 151.093C212.793 144.209 218.164 130.154 222.862 129.006M210.695 151.093C209.341 149.605 207.978 148.116 206.606 146.626M199.909 139.428C196.004 139.055 190.685 138.669 185.309 138.486M199.909 139.428C202.164 141.827 204.397 144.228 206.606 146.626M163.385 141.064C164.776 138.514 175.144 138.138 185.309 138.486M185.309 138.486C169.99 140.936 139.084 147.095 138.017 152.131M206.606 146.626C204.963 141.448 202.573 129.967 206.158 125.465M178.61 106.47C186.185 97.1124 202.28 78.5984 206.057 79.399M151.155 105.669C139.377 104.343 114.984 104.084 111.641 113.651M163.91 103.353C158.617 103.11 150.444 102.444 143.869 101.251M163.91 103.353C161.874 101.444 159.831 99.5518 157.782 97.6792M133.289 96.862C133.626 98.7712 138.14 100.211 143.869 101.251M143.869 101.251C132.486 100.649 110.254 98.4726 112.395 94.5787M157.782 97.6792C158.039 84.9402 160.356 57.8712 167.57 51.5071M157.782 97.6792C155.946 96.0007 154.105 94.338 152.261 92.6929C151.339 91.8703 150.416 91.0521 149.493 90.2385M149.493 90.2385C147.858 85.0225 145.169 73.3984 147.496 68.6294M123.856 53.7516C118.08 48.142 105.832 37.1041 103.047 37.8294C100.263 38.5546 100.393 40.0074 100.806 40.6432M107.662 70.3603C102.434 71.2981 90.8705 72.3253 86.4432 68.9314" stroke="#4A4A6D" stroke-width="1.24179"/>
<path d="M124.76 47.8548C133.146 49.6326 136.93 40.3432 138.845 31.3116C140.76 22.2801 134.523 18.1897 126.136 16.4119C117.75 14.6341 110.39 15.8421 108.475 24.8736C106.56 33.9052 116.373 46.077 124.76 47.8548Z" fill="#DEE3FE"/>
<path d="M172.933 147.098C179.304 143.047 184.952 149.017 188.999 155.384C193.047 161.751 189.069 166.902 182.698 170.952C176.327 175.002 169.975 176.418 165.927 170.051C161.88 163.684 166.561 151.148 172.933 147.098Z" fill="#DEE3FE"/>
<path d="M161.349 112.62C167.72 108.57 173.368 114.539 177.415 120.906C181.463 127.273 177.485 132.424 171.114 136.474C164.743 140.525 158.391 141.941 154.343 135.574C150.296 129.207 154.977 116.67 161.349 112.62Z" fill="#DEE3FE"/>
<path d="M135.79 140.091C142.161 136.04 147.809 142.01 151.857 148.377C155.904 154.744 151.927 159.895 145.556 163.945C139.184 167.995 132.832 169.411 128.785 163.044C124.737 156.677 129.419 144.141 135.79 140.091Z" fill="#DEE3FE"/>
<path d="M158.007 128.356C164.378 124.306 170.026 130.275 174.073 136.642C178.121 143.009 174.143 148.16 167.772 152.211C161.401 156.261 155.049 157.677 151.001 151.31C146.954 144.943 151.636 132.407 158.007 128.356Z" fill="#DEE3FE"/>
<path d="M107.307 105.056C113.374 101.199 118.752 106.883 122.607 112.946C126.461 119.009 122.673 123.914 116.606 127.771C110.539 131.628 104.49 132.976 100.636 126.913C96.7816 120.85 101.24 108.913 107.307 105.056Z" fill="#DEE3FE"/>
<path d="M108.817 78.1503C114.884 74.2933 120.262 79.9778 124.116 86.0408C127.971 92.1038 124.183 97.009 118.116 100.866C112.049 104.723 106 106.071 102.146 100.008C98.2914 93.9452 102.75 82.0072 108.817 78.1503Z" fill="#DEE3FE"/>
<path d="M78.9782 52.5003C86.5991 49.4086 84.6321 40.029 81.3166 31.8563C78.0011 23.6836 68.0453 13.5456 60.4244 16.6373C52.8034 19.7289 50.4033 34.8795 53.7188 43.0522C57.0343 51.2249 71.3573 55.5919 78.9782 52.5003Z" fill="#DEE3FE"/>
<path d="M86.0167 79.5969C94.4455 79.833 95.9791 87.452 95.7808 94.5313C95.5825 101.611 89.7378 112 81.309 111.764C72.8802 111.528 65.0591 100.756 65.2574 93.6762C65.4557 86.5969 77.5879 79.3608 86.0167 79.5969Z" fill="#DEE3FE"/>
<path d="M85.8742 52.5017C94.303 52.7378 95.8365 60.3568 95.6382 67.4361C95.4399 74.5154 89.5952 84.9047 81.1664 84.6686C72.7376 84.4325 64.9165 73.6603 65.1148 66.581C65.3132 59.5017 77.4454 52.2656 85.8742 52.5017Z" fill="#DEE3FE"/>
<path d="M197.464 93.0079C203.819 88.008 198.274 78.439 194.907 70.1551C192.823 65.0268 189.257 63.0787 179.724 66.946C170.191 70.8132 173.114 83.1485 175.199 88.288C178.448 96.2968 188.581 99.9967 197.464 93.0079Z" fill="#DEE3FE"/>
<path d="M180.158 57.5997C186.512 52.5998 180.967 43.0308 177.601 34.7469C175.517 29.6186 171.95 27.6705 162.417 31.5378C152.884 35.405 155.808 47.7403 157.893 52.8798C161.142 60.8886 171.275 64.5885 180.158 57.5997Z" fill="#DEE3FE"/>
<path d="M219.544 88.9717C225.899 83.9719 220.354 74.4028 216.987 66.119C214.903 60.9907 211.337 59.0426 201.804 62.9098C192.271 66.7771 195.194 79.1123 197.279 84.2519C200.528 92.2607 210.661 95.9606 219.544 88.9717Z" fill="#DEE3FE"/>
<path d="M217.831 128.076C224.186 123.076 218.641 113.507 215.274 105.223C213.19 100.095 209.624 98.1471 200.091 102.014C190.558 105.882 193.482 118.217 195.567 123.356C198.816 131.365 208.948 135.065 217.831 128.076Z" fill="#DEE3FE"/>
<path d="M235.294 134.661C240.86 130.282 236.003 121.901 233.055 114.645C231.229 110.153 228.106 108.447 219.756 111.834C211.407 115.222 213.967 126.026 215.793 130.527C218.639 137.542 227.514 140.782 235.294 134.661Z" fill="#DEE3FE"/>
<path d="M156.597 75.628C162.952 70.6282 157.406 61.0591 154.04 52.7752C151.956 47.6469 148.389 45.6988 138.857 49.5661C129.324 53.4333 132.247 65.7686 134.332 70.9082C137.581 78.917 147.714 82.6168 156.597 75.628Z" fill="#DEE3FE"/>
<path d="M114.058 43.5899C120.413 38.5901 114.867 29.021 111.501 20.7371C109.417 15.6089 105.85 13.6607 96.3176 17.528C86.7848 21.3953 89.7081 33.7305 91.7932 38.8701C95.0422 46.8789 105.175 50.5787 114.058 43.5899Z" fill="#DEE3FE"/>
<path d="M136.395 103.009C144.097 105.47 142.25 116.375 141.994 125.313C141.835 130.846 139.176 133.919 128.892 133.631C118.609 133.343 117.033 120.764 117.188 115.22C117.43 106.581 125.628 99.5697 136.395 103.009Z" fill="#DEE3FE"/>
<path d="M138.115 86.1719C143.905 88.0217 142.517 96.2187 142.324 102.938C142.205 107.097 140.206 109.407 132.476 109.19C124.746 108.974 123.561 99.5183 123.677 95.3506C123.859 88.8563 130.022 83.5861 138.115 86.1719Z" fill="#DEE3FE"/>
</svg>
