<svg width="652" height="496" viewBox="0 0 652 496" fill="none" xmlns="http://www.w3.org/2000/svg">
<path d="M461.657 105.306L472.906 98.2352C472.156 97.6995 471.106 96.0496 472.906 93.7355C474.37 91.853 478.265 89.881 480.423 87.9687C481.073 87.3929 482.108 87.4288 482.117 88.297C482.13 89.5896 481.443 91.4668 479.013 93.7355C474.192 98.2351 491.749 87.9503 493.797 84.4148C494.567 83.0868 495.977 87.8447 491.24 92.0729C494.358 90.1524 498.22 87.9503 499.261 87.9503C501.122 87.9503 494.631 94.1033 491.602 96.2338C494.29 95.1578 499.917 93.0798 501.511 91.4858C503.761 89.236 504.404 93.0929 494.762 99.1995C497.654 98.4495 501.704 98.1067 494.762 102.735C487.819 107.363 478.156 109.377 474.192 109.806L431.124 131.661L392.877 160.588L382.27 248.331L384.52 478.456L375.199 480.706L371.664 451.779L354.951 312.611L338.238 315.183L330.846 489.383L321.846 487.776L318.954 383.32L307.383 230.654L295.17 155.124L331.167 140.018V115.591L347.88 93.7355L368.129 98.2352L357.522 122.019L358.808 134.005L422.767 120.091L461.657 105.306Z" fill="#60343D"/>
<path d="M332.776 468.813C332.262 467.528 324.419 468.278 320.562 468.813L321.848 484.562H331.169L332.776 468.813Z" fill="#FFF9F0"/>
<path d="M384.843 468.813C384.586 468.042 377.022 468.492 373.273 468.813L374.88 481.67L384.843 480.063C384.95 476.634 385.1 469.585 384.843 468.813Z" fill="#FFF9F0"/>
<path d="M317.992 485.205C316.964 486.748 317.028 495.49 320.885 494.847C323.777 496.775 334.384 494.847 335.348 492.919C336.119 491.376 333.955 481.562 332.777 476.848C329.67 476.206 322.942 475.306 320.885 476.848C318.313 478.777 319.278 483.276 317.992 485.205Z" fill="#F2C98F"/>
<path d="M405.414 494.847H373.273C372.952 490.347 372.502 480.77 373.273 478.455C374.045 476.141 382.38 476.42 386.451 476.848C390.843 479.098 400.528 484.562 404.128 488.419C407.728 492.276 406.485 494.311 405.414 494.847Z" fill="#F2C98F"/>
<path d="M389.343 452.422C394.485 429.795 395.77 313.575 389.343 262.472H309.313C307.278 315.397 311.884 424.46 313.813 445.672C315.712 466.563 337.917 456.279 338.561 448.565C338.839 445.234 344.667 369.071 346.917 331.253C351.096 360.072 358.488 421.16 358.488 435.066C358.488 459.171 386.202 466.242 389.343 452.422Z" fill="#4F7A8E"/>
<path d="M470.659 96.9498C469.117 95.9213 461.232 100.592 457.482 103.056C456.625 107.449 456.453 116.684 462.624 118.484C470.338 120.734 472.909 113.341 476.766 111.413C480.623 109.485 472.588 98.2354 470.659 96.9498Z" fill="#FFF9F0"/>
<path d="M385.487 294.613C381.63 298.213 372.31 283.043 368.132 275.007L387.094 243.831L391.273 266.651C390.951 274.472 389.344 291.013 385.487 294.613Z" fill="#FFF9F0"/>
<path d="M309.315 294.613C316.771 294.613 322.492 283.9 324.421 278.543L300.137 247.055L297.744 273.079C298.494 280.257 301.858 294.613 309.315 294.613Z" fill="#FFF9F0"/>
<path d="M326.668 135.839C315.612 135.068 292.278 141.517 281.993 144.839C276.958 158.552 274.601 200.635 305.456 259.259C336.311 317.883 370.165 287.114 383.235 264.401C394.163 257.33 386.128 211.691 393.842 185.979C401.555 160.266 415.697 154.481 421.482 153.195C427.268 151.91 436.267 141.625 442.695 137.447C449.123 133.268 451.052 133.268 464.872 126.519C478.692 119.769 464.551 99.1993 459.73 95.9853C455.873 93.4141 433.696 102.842 424.054 107.878C416.983 111.57 409.912 120.733 398.984 120.733C387.694 120.733 376.486 126.519 372.308 128.768C368.129 131.018 365.88 125.233 364.594 126.519C363.566 127.547 352.166 128.447 346.595 128.768C341.774 128.34 332.132 128.061 332.132 130.375C332.132 132.689 328.49 134.982 326.668 135.839Z" fill="#D9E5EB"/>
<circle cx="342.941" cy="233.925" r="13.1775" fill="#A9C2CF"/>
<circle cx="310.799" cy="194.715" r="13.1775" fill="#A9C2CF"/>
<path d="M332.133 130.226C332.133 132.54 328.49 134.833 326.669 135.69C322.543 135.402 314.466 136.208 310.479 137.305C311.121 153.574 326.549 151.003 326.549 151.003C326.549 151.003 342.297 146.503 334.584 130.755L333.24 129.102C332.544 129.381 332.133 129.748 332.133 130.226Z" fill="#A9C2CF"/>
<path d="M448.039 118.541C435.826 117.899 433.898 107.728 434.862 102.635C442.627 99.2706 451.446 96.0129 456.396 95.4771C468.609 110.506 452.539 118.778 448.039 118.541Z" fill="#A9C2CF"/>
<path d="M393.842 185.83C394.256 184.449 394.689 183.126 395.138 181.858C392.436 178.644 376.688 176.716 374.759 192.464C373.461 203.071 386.33 207.57 390.625 205.642C391.16 198.47 392.099 191.641 393.842 185.83Z" fill="#A9C2CF"/>
<path d="M331.691 269.601C342.892 273.749 342.94 286.314 336.512 291.572C329.832 289.415 322.91 284.478 316.003 275.708C316.585 274.101 323.013 266.387 331.691 269.601Z" fill="#A9C2CF"/>
<path d="M339.845 60.6307C337.274 61.6592 339.845 67.0588 341.452 69.63C335.024 69.63 331.06 76.0582 329.881 79.2724C314.968 83.9006 315.418 106.27 321.525 111.734C318.954 120.991 325.167 123.733 328.596 123.947C331.274 123.305 335.697 122.794 336.631 124.912C341.452 135.839 361.7 135.839 363.629 130.376C365.171 126.004 369.414 124.912 371.342 124.912C386.255 122.083 384.709 111.792 382.27 106.913C380.985 104.342 381.52 100.164 382.27 97.9138C386.641 88.6574 376.378 81.6293 370.699 79.2724C370.957 74.1299 362.236 70.7014 357.843 69.63C365.043 64.2302 361.7 58.3808 359.129 56.131C361.443 48.4173 349.808 50.1315 343.702 51.9528C338.816 53.4955 339.095 58.3809 339.845 60.6307Z" fill="#ACB7FD"/>
<path d="M347.236 327.075L333.416 311.969" stroke="#A9C2CF" stroke-width="0.642807"/>
<path d="M342.94 163.738C347.311 163.481 351.832 168.773 353.546 171.451L386.651 204.877L426.826 163.738L427.79 301.941L443.539 486.748H455.11L465.394 262.408L480.179 264.337L501.713 471.963H515.855L518.426 394.505V245.374L514.248 120.669L578.719 141.98C591.867 140.256 610.012 125.499 621.288 115.53L611.05 101.426L578.719 129.048L514.248 94.957L474.394 88.8504L478.251 51.8889L453.503 42.8896C448.896 44.1753 439.746 50.7962 440.004 66.9949C440.325 87.2433 447.074 84.9933 450.931 84.6719C454.017 84.4148 454.145 93.3498 453.824 97.8494L426.826 111.027L391.15 183.986L354.189 156.666C357.724 155.702 350.332 135.775 348.725 135.775C347.118 135.775 349.368 147.667 348.082 148.31C346.797 148.953 326.548 138.347 323.655 139.632C320.763 140.918 336.19 147.667 335.547 148.953C334.905 150.238 320.12 143.168 318.834 143.168C317.549 143.168 317.227 144.453 317.87 144.775C318.384 145.032 318.727 145.739 318.834 146.06V148.31C318.834 150.238 323.656 151.203 322.37 152.488C321.341 153.517 321.941 154.202 322.37 154.417C327.405 157.631 338.569 163.995 342.94 163.738Z" fill="#EED9DD"/>
<path d="M438.076 451.714L441.29 476.784L458.324 478.069V450.107C459.867 448.822 458.967 446.143 458.324 444.965H438.076C435.505 444.965 437.005 449.464 438.076 451.714Z" fill="#FEBCAC"/>
<path d="M497.536 451.714L501.071 478.069H516.177C516.605 468.749 517.72 450.107 518.748 450.107C519.777 450.107 518.32 446.679 517.463 444.965H497.536C494.707 444.965 496.357 449.464 497.536 451.714Z" fill="#FEBCAC"/>
<path d="M458.647 495.747H411.4C411.4 479.805 433.577 480.962 442.577 475.498C446.112 475.498 448.362 476.784 454.79 475.498C461.861 474.083 459.718 488.14 458.647 495.747Z" fill="#4A4A6D"/>
<path d="M514.571 495.747H487.573C483.202 494.461 485.752 489.211 487.573 486.747C490.466 485.462 496.38 482.248 496.894 479.676C497.408 477.105 501.393 475.82 503.322 475.498H514.571C518.171 475.498 518.642 479.141 518.428 480.962C518.749 482.998 519.199 488.097 518.428 492.211C517.656 496.325 515.535 496.282 514.571 495.747Z" fill="#4A4A6D"/>
<path d="M522.282 237.981H416.861L428.753 425.681C427.468 434.038 466.357 436.609 466.357 428.895L473.107 273.657L487.57 428.895C487.57 436.93 524.853 432.109 524.853 425.681L522.282 237.981Z" fill="#B45943"/>
<path d="M448.037 26.8196C450.865 24.2484 455.857 27.0339 458 28.748L474.392 41.604C475.892 51.0318 479.663 70.466 482.748 72.7801C486.605 75.6727 478.57 83.7078 477.284 83.3864C475.999 83.065 473.106 84.3506 470.535 86.9219C468.478 88.9788 464.535 86.0648 462.821 84.3506C460.25 86.4076 457.036 83.4936 455.75 81.7794C448.294 84.8649 440.644 71.4945 437.752 64.4236C433.638 64.6807 433.038 59.174 433.252 56.3885C429.652 57.1599 428.11 48.3534 427.788 43.8538C425.731 43.3395 426.931 39.9969 427.788 38.3899C429.845 38.3899 431.431 33.8903 431.966 31.6404C432.738 26.498 443.001 26.2839 448.037 26.8196Z" fill="#A9C2CF"/>
<path d="M489.5 29.0693C490.785 14.1561 466.68 22.8555 454.467 29.0693C429.783 30.3551 437.111 66.0305 448.681 75.3512C471.822 87.6931 482.75 75.3512 485.321 67.6375C494.642 57.9954 502.034 43.8536 496.571 40.6396C492.199 38.0683 490.035 31.8547 489.5 29.0693Z" fill="#A37434"/>
<path d="M630.249 106.727L623.821 120.868L611.22 137.67L601.644 129.868C607.537 120.226 618.792 102.276 616.429 101.263C611.929 99.3343 615.68 87.8374 615.359 80.5522C615.274 78.6238 617.588 75.8076 619.131 83.2642C620.673 90.7209 620.178 90.6565 621.25 89.6922C628.749 82.9428 636.999 69.3597 639.891 71.931C641.503 73.3634 630.249 84.5499 632.82 85.5141C635.392 86.4783 646.092 71.6755 649.306 74.086C650.591 75.0502 637.641 87.7638 639.891 88.0853C642.025 88.3903 652 78.7645 652 83.2642C652 83.9782 645.803 89.7982 641.536 93.6729C641.059 94.1057 641.4 94.7234 641.993 94.4722C645.544 92.9667 650.502 89.739 650.923 90.7901C651.565 92.3971 640.534 98.6915 639.891 98.6915C639.377 98.6915 633.249 104.048 630.249 106.727Z" fill="#EED9DD"/>
<path d="M452.86 30.0332C448.36 34.5329 435.825 74.0655 483.072 70.2086M487.25 33.89C486.286 34.7471 484.936 36.5256 487.25 36.7827" stroke="#CA9B5A" stroke-width="0.642807"/>
<path d="M356.76 153.131C342.875 167.015 340.476 181.628 341.011 187.199C404.328 230.91 396.935 214.197 416.862 187.199L412.363 327.331C489.178 356.579 524.533 330.545 532.568 327.331C538.996 324.76 533.307 207.345 526.451 144.136C575.976 196.351 594.884 177.037 635.836 117.732C637.159 115.816 610.283 107.324 608.355 96.7174C592.135 119.06 587.34 120.965 578.179 128.509C572.791 122.582 551.345 104.282 526.451 90.7782C497.886 75.2838 466.037 87.9927 454.145 90.7782C419.691 96.6921 395.864 148.952 388.257 174.343C388 171.515 367.152 159.023 356.76 153.131Z" fill="#7699AA"/>
<path d="M512.639 92.0645C517.032 103.956 525.045 128.126 521.96 129.669M417.504 183.986L431.324 144.453M389.542 174.344C388.149 182.057 386.778 197.228 392.434 196.199C398.091 195.171 392.863 181.2 389.542 174.344Z" stroke="#4F7A8E" stroke-width="0.642807"/>
<path d="M578.87 129.587C577.477 137.301 576.106 152.471 581.762 151.442C587.419 150.414 582.191 136.444 578.87 129.587Z" stroke="#4F7A8E" stroke-width="0.642807"/>
<path d="M470.173 99.7244L461.656 105.146L422.766 119.931L378.613 135.415L392.875 160.427L431.122 131.501L474.19 109.646C478.154 109.217 485.846 108.164 494.887 101.533C502.659 95.8333 498.504 96.7106 493.796 97.9162C503.438 91.8097 502.977 91.0203 499.71 91.8884C496.442 92.7564 488.045 98.6767 490.261 96.7895C492.476 94.9023 501.51 87.7902 499.26 87.7902C497.01 87.7902 487.044 95.5051 488.975 93.5753C496.696 85.8605 495.092 82.4399 493.796 84.2546C491.271 87.79 474.19 98.075 479.011 93.5753C481.442 91.3066 482.128 89.4295 482.115 88.1369C482.107 87.2686 481.072 87.2327 480.422 87.8085C478.263 89.7208 474.369 91.6928 472.905 93.5753C471.105 95.8894 470.173 98.4389 470.173 99.7244Z" fill="#60343D"/>
<path d="M399.624 120.733C388.333 120.733 377.126 126.518 372.947 128.768L389.219 173.18L422.122 153.195C427.907 151.909 436.907 141.625 443.335 137.446C449.763 133.267 451.691 133.268 465.511 126.518C479.332 119.768 465.19 99.1989 460.369 95.9848C456.512 93.4136 434.335 102.842 424.693 107.877C417.622 111.57 410.551 120.733 399.624 120.733Z" fill="#D9E5EB"/>
<circle cx="396.933" cy="138.147" r="13.1775" fill="#A9C2CF"/>
<path d="M448.037 118.541C435.823 117.899 433.895 107.728 434.859 102.635C442.625 99.2706 451.443 96.0129 456.393 95.4771C468.607 110.506 452.536 118.778 448.037 118.541Z" fill="#A9C2CF"/>
<path d="M23.4625 74.7546L29.8906 88.8964L63.638 133.893L110.563 140.321L67.8162 430.227L64.6022 463.653L75.8513 465.26L110.563 275.31L142.06 272.418L146.882 437.298L149.453 468.153L161.345 465.26L177.093 127.143L238.803 97.8957C212.876 91.8962 164.237 78.0972 177.093 70.8978C189.95 63.6984 191.021 39.6145 189.95 28.4725L161.023 17.8662L143.989 56.1133L139.489 68.9694L63.638 115.252L52.0675 97.8957C46.175 88.2536 34.9195 70.3036 37.2828 69.2908C41.7825 67.3624 41.4611 54.3991 41.7825 47.1139C41.8676 45.1855 39.147 43.8356 37.6043 51.2923C36.0615 58.7489 33.5332 58.6845 32.4618 57.7203C24.9628 50.9708 19.927 36.1862 17.0344 38.7574C15.423 40.1899 23.4625 52.5779 20.8913 53.5421C18.32 54.5063 8.03509 37.6327 4.8211 40.0432C3.53549 41.0074 16.0702 55.7918 13.8204 56.1133C11.6861 56.4183 -4.77011e-05 46.7925 0 51.2923C7.59108e-06 52.0083 7.56129 57.8611 12.1466 61.7357C12.6383 62.1512 12.2708 62.9264 11.635 62.8254C7.87385 62.2283 2.34858 61.491 1.92847 62.5413C1.28566 64.1483 13.1776 66.7195 13.8204 66.7195C14.3347 66.7195 20.4628 72.0762 23.4625 74.7546Z" fill="#686889"/>
<path d="M167.451 44.2205C167.194 50.9057 160.273 56.2196 156.845 58.0409C148.81 60.9331 140.453 56.7557 136.596 55.1487C133.511 53.8631 132.74 37.2572 132.74 29.115C129.847 16.5803 142.388 14.4827 145.917 9.18798C151.702 0.509712 155.024 -0.13297 159.738 0.509712C163.916 -1.09731 167.451 5.65254 176.772 7.58063C184.961 9.27466 188.343 11.1161 190.592 13.6873C192.392 15.7443 192.842 21.401 192.842 23.9722C194.556 25.4721 197.663 29.7575 196.378 34.8999C194.771 41.328 184.164 37.7925 182.236 40.0424C180.308 42.2923 178.379 42.935 176.772 42.935C175.486 42.935 176.236 39.5067 176.772 37.7925C173.772 37.1497 167.708 37.5354 167.451 44.2205Z" fill="#FFF0DB"/>
<path d="M80.993 493.865H26.033C25.2831 488.83 26.1616 478.309 35.6751 476.509C45.1887 474.709 53.5666 467.403 56.5664 463.975C71.9938 450.604 78.6361 460.76 80.0288 467.51L80.993 493.865Z" fill="#CA9B5A"/>
<path d="M181.271 495.794H143.988C142.703 492.258 140.71 484.287 143.024 480.687C145.338 477.088 145.702 470.403 145.595 467.51C154.08 446.426 165.201 461.725 169.7 472.01C178.443 486.666 182.878 482.295 181.271 495.794Z" fill="#CA9B5A"/>
<path d="M28.6055 491.293H78.423M43.7114 474.259L47.5683 479.401M50.7823 469.759L55.282 475.223M145.596 493.222H179.022M175.487 480.044V483.901M170.666 473.616V480.044" stroke="#FEE2BB" stroke-width="1.28561"/>
<path d="M59.4588 396.158C56.8875 408.5 58.3874 426.156 59.4588 433.441C67.2796 433.441 84.0139 434.148 88.385 436.976C92.7561 439.804 95.7773 427.87 96.7415 421.549L121.168 295.559C125.454 333.056 134.089 410.3 134.346 419.299C134.603 428.298 138.738 434.833 140.774 436.976C149.023 436.119 166.358 434.405 169.7 434.405C173.043 434.405 174.093 429.905 174.2 427.655L183.52 218.422L72.6362 210.708L59.4588 396.158Z" fill="#FEBCAC"/>
<path d="M57.2095 440.19C53.8669 434.277 57.3166 431.084 59.4593 430.227C67.6874 429.713 85.1716 433.012 92.8852 434.726C93.3137 438.369 93.3351 445.526 89.9925 445.011C85.8143 444.369 61.3877 447.583 57.2095 440.19Z" fill="#B45943"/>
<path d="M139.489 444.369C133.061 439.226 136.81 434.941 139.489 433.441C147.31 432.263 164.751 430.42 171.95 432.477C179.15 434.534 174.95 440.619 171.95 443.405C163.808 445.869 145.917 449.511 139.489 444.369Z" fill="#B45943"/>
<path d="M77.4578 264.704L78.7434 241.242L103.17 243.813C102.206 250.777 100.277 265.09 100.277 266.633C100.277 268.561 86.7785 272.739 85.4929 273.061C84.4644 273.318 79.7076 267.597 77.4578 264.704Z" fill="#B45943"/>
<path d="M145.917 269.847V247.348L170.665 248.634C170.022 255.383 168.736 269.332 168.736 271.132C168.736 273.382 159.416 277.56 157.487 278.203C155.945 278.717 149.131 272.846 145.917 269.847Z" fill="#B45943"/>
<path d="M107.994 267.597L120.207 291.702" stroke="#B45943" stroke-width="0.642807"/>
<path d="M190.272 78.6115L98.6723 85.0395C92.3513 82.8968 81.9592 90.5034 73.2814 99.8241C61.1984 112.802 49.926 89.7535 41.4624 74.1118C33.4273 74.4332 29.249 75.3974 19.9284 83.4325C13.0679 89.3468 14.2502 98.3242 16.3929 101.753C19.1784 107.966 27.642 124.508 39.2125 140.964C50.783 157.42 72.5313 151.034 81.9592 145.785C80.4594 151.57 75.7884 168.219 69.1032 188.531C62.418 208.844 66.3177 220.993 69.1032 224.529C76.4955 229.028 96.1653 238.478 115.707 240.277C140.133 242.527 135.312 231.278 166.81 240.277C192.008 247.477 198.736 232.778 198.95 224.529L201.2 123.287C219.841 124.786 261.367 125.279 278.337 115.251C299.55 102.717 278.016 85.0395 267.731 85.0395C257.446 85.0395 244.59 89.5392 238.483 85.0395C233.598 81.4398 204.307 79.2543 190.272 78.6115Z" fill="#2E5D72"/>
<path d="M20.2499 79.2537C18.4501 82.0821 20.9999 86.646 22.4997 88.5744L42.7481 77.647C42.7481 75.2899 41.6553 70.383 37.2842 69.6116C31.8203 68.6474 22.4997 75.7183 20.2499 79.2537Z" fill="#FEE2BB"/>
<path d="M108.636 52.5775C132.291 46.9208 174.631 68.4334 192.844 79.8968C175.166 79.8968 142.705 89.5387 113.457 89.5387C91.4507 89.5387 95.9939 80.7537 100.922 74.7541C93.637 69.7189 84.9805 58.2342 108.636 52.5775Z" fill="#FEE2BB"/>
<path d="M102.527 74.8301C128.025 74.5087 180.436 74.5087 186.092 77.0799" stroke="#CA9B5A" stroke-width="0.642807"/>
<path d="M97.7086 85.1155C92.8876 95.936 83.0526 122.913 82.2812 144.254M190.594 79.0088C182.666 90.1508 173.817 114.492 201.843 122.72M186.416 195.357C185.452 199.428 186.609 208.213 198.951 210.784" stroke="#30304C" stroke-width="0.642807"/>
<path d="M125.991 115.856C129.591 115.599 133.705 127.105 135.312 132.89L148.811 175.316L184.486 182.065L220.162 177.565L217.27 369.443L224.019 476.792H236.232L244.589 285.878L265.159 282.986L281.55 435.01L285.728 476.792L295.692 474.864V435.01L283.479 190.421L309.834 207.134L370.9 254.381C372.722 254.595 377.071 256.245 379.9 261.13C383.435 267.237 387.613 262.416 389.863 261.13C392.113 259.845 389.542 250.524 389.863 249.881C390.12 249.367 384.185 246.881 381.185 245.703L375.4 243.132L348.081 226.74L292.799 135.461L252.303 107.5L207.627 145.104L161.345 159.888C156.739 149.068 147.139 127.362 145.597 127.105C143.668 126.784 140.454 115.213 142.061 114.248C143.668 113.284 142.477 96.9534 140.133 96.2502C136.919 95.2863 140.894 106.519 138.204 106.856C133.062 107.5 129.107 85.0253 125.991 89.1791C125.027 90.4644 129.205 101.713 127.919 102.356C127.277 102.678 116.349 87.5717 115.385 91.4292C115.16 92.3286 116.027 94.322 116.67 95.2863C116.349 95.072 115.513 94.772 114.742 95.2863C113.778 95.9291 123.741 111.678 119.563 107.5L119.562 107.499C117.16 105.097 115.555 103.492 114.365 103.375C113.521 103.292 113.459 104.443 113.956 105.13C117.043 109.399 122.71 116.09 125.991 115.856Z" fill="#FFF0DB"/>
<path d="M195.735 494.791H233.66C237.003 494.791 237.41 493.505 237.196 492.862V471.65C237.196 467.279 229.482 468.328 225.625 469.4C217.591 476.47 213.092 478.078 194.77 486.434C190.204 488.517 194.449 494.469 195.735 494.791Z" fill="#DEE3FE"/>
<path d="M282.835 472.935V495.755H296.977C299.227 495.433 303.32 494.351 303.726 492.862C305.656 485.791 301.478 481.291 296.977 472.935C293.764 466.971 284.763 470.042 282.835 472.935Z" fill="#DEE3FE"/>
<path d="M207.628 447.865L203.771 280.414H302.442L305.335 447.865C298.136 457.122 278.766 453.865 269.981 451.079L256.16 299.377L241.697 451.079C230.127 458.536 214.164 452.044 207.628 447.865Z" fill="#865861"/>
<path d="M212.454 450.466L209.611 280.414H212.306L215 451.549C214.11 451.2 213.259 450.836 212.454 450.466Z" fill="#C6A4AA"/>
<path d="M227.228 454.421C226.38 454.365 225.536 454.276 224.699 454.158V280.414H227.228V454.421Z" fill="#C6A4AA"/>
<path d="M240.714 451.674C239.884 452.144 239.035 452.548 238.17 452.89L242.481 280.414H245.714L240.714 451.674Z" fill="#C6A4AA"/>
<path d="M276.669 452.769C275.841 452.605 275.04 452.431 274.272 452.251L265.651 280.414H268.345L276.669 452.769Z" fill="#C6A4AA"/>
<path d="M290.233 453.946C289.376 453.984 288.511 453.995 287.645 453.984L284.51 280.414H287.205L290.233 453.946Z" fill="#C6A4AA"/>
<path d="M302.432 450.563C301.671 451.079 300.852 451.528 299.984 451.914L294.21 280.414H296.904L302.432 450.563Z" fill="#C6A4AA"/>
<path d="M130.492 128.39L143.348 164.387L157.811 146.067L145.277 121.319C140.649 120.29 133.492 125.604 130.492 128.39Z" fill="#FD9589"/>
<path d="M373.152 256.63L355.153 246.345L367.045 229.311C372.188 234.346 382.215 244.352 381.187 244.095C380.158 243.838 375.402 252.345 373.152 256.63Z" fill="#FD9589"/>
<path d="M199.593 293.592C204.735 250.395 210.688 218.496 206.342 186.243C197.664 192.028 175.166 206.813 165.524 202.956C128.562 188.171 132.419 174.673 134.669 170.173C136.974 165.564 146.24 149.924 152.989 143.818C158.389 138.932 164.881 141.782 167.452 143.818C170.023 150.782 177.159 161.174 185.129 147.032C193.1 132.89 218.234 125.498 229.804 123.569H279.622C287.979 125.819 306.106 134.24 311.762 149.924C317.419 165.609 334.903 190.743 342.939 201.349C353.331 205.313 373.343 215.748 370.258 225.776C366.401 238.31 369.615 229.633 357.402 252.774C347.631 271.286 313.262 226.204 297.299 201.349C295.799 210.348 297.886 228.886 300.136 242.744C302.219 255.578 305.227 305.055 304.691 328.625C257.638 442.53 215.02 352.73 199.593 293.592Z" fill="#F2C98F"/>
<path d="M220.161 124.854L216.625 126.14C214.054 130.318 222.411 181.743 229.803 207.777C228.003 207.777 225.625 230.918 224.66 242.488L207.305 225.454V230.918L224.66 246.988C222.603 253.416 226.803 256.737 229.16 257.594C254.872 269.422 271.574 261.609 278.013 258.558C284.12 255.666 284.549 252.345 284.12 250.202L299.226 237.667V233.167L284.12 245.381C284.12 239.467 279.62 217.847 277.371 207.777C278.656 200.063 289.263 151.852 289.263 126.14H286.049C288.363 132.054 279.62 181.1 272.871 204.563C263.357 199.163 242.338 202.313 233.017 204.563C228.903 194.535 220.161 158.923 220.161 124.854Z" fill="#2E5D72"/>
<path d="M261.879 228.734C267.088 226.759 277.505 224.424 277.505 217.958M246.252 228.734C239.427 227.657 227.932 226.579 227.932 217.958" stroke="#30304C" stroke-width="0.646612"/>
<path d="M238.161 59.6092C230.962 69.1228 232.376 84.7858 233.983 91.4282C235.02 100.427 229.058 121.533 225.948 130.961C203.835 152.559 216.734 170.172 225.948 176.279C224.662 192.478 236.34 196.527 242.339 196.527C250.567 208.869 260.981 206.812 265.159 204.241C291.9 207.841 294.3 190.314 292.157 181.1C299.613 173.386 297.192 157.316 295.049 150.245C291.3 144.781 283.608 129.74 282.836 113.284C282.065 96.8281 279.729 76.8582 278.658 68.9302C278.658 57.3597 266.016 51.4671 259.695 49.9671C255.517 49.2172 245.361 50.0957 238.161 59.6092Z" fill="#30304C"/>
<path d="M255.307 235.8C254.781 236.493 253.733 236.474 253.232 235.764L248.629 229.239C248.022 228.378 248.65 227.194 249.702 227.212L259.133 227.377C260.186 227.396 260.771 228.602 260.135 229.44L255.307 235.8Z" fill="#ACB7FD"/>
<path d="M213.092 476.469C213.949 475.827 215.985 474.67 217.27 475.184C218.556 475.698 219.306 474.112 219.52 473.255M219.52 473.255C216.949 472.612 211.357 471.712 209.557 473.255M219.52 473.255C216.52 471.113 211.304 465.923 215.342 464.577C221.127 462.649 221.77 470.041 219.52 473.255Z" stroke="#8292FB" stroke-width="0.642807"/>
<path d="M173.558 153.138C170.129 164.709 165.137 187.593 172.593 186.564C180.05 185.536 180.2 163.852 179.343 153.138" stroke="#CA9B5A" stroke-width="0.642807"/>
<path d="M238.482 85.0394C233.597 81.4397 204.306 79.2541 190.271 78.6113L201.199 123.286C219.841 124.786 261.366 125.279 278.336 115.251C299.549 102.717 278.015 85.0394 267.73 85.0394C257.445 85.0394 244.589 89.5391 238.482 85.0394Z" fill="#2E5D72"/>
</svg>
