<svg width="495" height="556" viewBox="0 0 495 556" fill="none" xmlns="http://www.w3.org/2000/svg">
<path d="M324.496 89.6532C342.666 78.0902 351.063 101.354 352.99 114.431C344.731 117.459 327.057 124.755 322.431 129.71C316.65 135.905 324.496 138.382 321.192 142.512C317.889 146.642 321.605 156.14 322.431 156.553C323.257 156.966 326.974 146.642 328.213 142.512C329.204 139.208 332.849 135.59 334.501 133.8C351.846 116.456 367.444 129.297 374.464 115.669C382.53 100.012 370.748 85.7989 364.553 80.9812C360.011 75.6123 355.542 73.5722 349.274 71.4826C333.168 66.1138 326.561 74.7864 324.496 77.2641C322.844 79.2464 323.807 86.3494 324.496 89.6532Z" fill="#D9E5EB"/>
<path d="M351.233 91.2337C346.608 67.4469 323.978 80.0836 323.978 93.7114C320.674 119.316 327.97 120.141 333.476 121.794C335.458 127.741 327.694 132.806 323.565 134.596L300.852 69.3474C296.447 59.4362 287.967 39.3661 289.289 38.3751C290.941 37.1365 284.746 21.0307 283.094 24.3341C281.443 27.6376 284.333 28.8769 283.094 29.2897C279.378 30.5287 278.965 17.7267 274.009 24.3341C270.045 29.6201 276.762 36.7231 280.617 39.6138L312.828 174.653L316.957 232.055L274.009 403.022L283.507 407.565L331.824 239.488L342.561 237.011L371.056 412.933H380.141L362.796 251.464V174.653L411.939 72.2375C413.591 65.4924 418.96 52.0023 421.024 52.0023C425.154 52.0023 432.587 40.4393 430.11 37.1356C427.632 33.8319 424.741 40.0268 420.198 41.2657C415.656 42.5045 426.393 33.6343 420.611 35.8964C413.013 38.8695 412.765 46.2205 413.591 49.5242L385.509 96.6021L362.796 127.987C363.209 129.502 362.466 132.365 356.189 131.704C349.912 131.043 350.27 121.518 351.233 116.837C360.319 111.882 351.233 107.339 352.472 106.513C353.463 105.853 352.059 96.0516 351.233 91.2337Z" fill="#F2C98F"/>
<path d="M381.38 405.087C381.38 403.105 372.845 404.261 368.578 405.087C373.533 418.715 363.209 416.65 368.165 426.974C372.129 435.233 378.627 431.241 381.38 428.213L383.032 416.65C382.481 413.621 381.38 407.069 381.38 405.087Z" fill="#C6A4AA"/>
<path d="M285.985 405.087C286.646 401.122 278.552 399.03 274.422 398.479C274.422 399.801 272.22 403.435 271.118 405.087C262.859 407.152 254.6 408.804 256.252 412.52C257.904 416.237 271.531 413.759 277.726 418.715C283.92 423.67 285.159 410.042 285.985 405.087Z" fill="#C6A4AA"/>
<path d="M308.699 346.446C312.663 344.464 336.78 347.272 348.343 348.924L344.214 278.72L308.286 181.673L298.788 187.042C291.354 231.78 275.909 324.229 273.597 336.122C270.706 350.989 303.743 348.924 308.699 346.446Z" fill="#8292FB"/>
<path d="M266.576 375.767L310.764 237.011L378.903 240.727L390.879 386.917C390.879 397.654 350.408 398.067 350.408 389.807L337.193 282.024L304.982 389.807C287.803 397.736 261.621 384.026 266.576 375.767Z" fill="#111131"/>
<path d="M316 237.296L269.168 383.692C269.578 384.076 270.023 384.456 270.5 384.829L317.5 237.378L316 237.296Z" fill="#FEBCAC"/>
<path d="M325 237.787L280.925 390.156C281.443 390.325 281.968 390.486 282.5 390.637L326.5 237.869L325 237.787Z" fill="#FEBCAC"/>
<path d="M336 238.387L295.825 392.094C296.385 392.051 296.944 391.993 297.5 391.92L337.658 238.478L336 238.387Z" fill="#FEBCAC"/>
<path d="M343.093 238.774L353.605 393.299C354.12 393.532 354.688 393.747 355.302 393.944L344.748 238.864L343.093 238.774Z" fill="#FEBCAC"/>
<path d="M370.32 395.498L350.278 239.166L351.936 239.257L371.961 395.418C371.415 395.452 370.867 395.478 370.32 395.498Z" fill="#FEBCAC"/>
<path d="M382.5 393.735L359.162 239.651L360.811 239.741L384.075 393.233C383.569 393.411 383.043 393.578 382.5 393.735Z" fill="#FEBCAC"/>
<path d="M337.606 256.833C322.527 260.167 303.118 253.56 300.44 245.683C297.761 237.806 309.525 116.838 309.525 116.838L329.347 127.988C330.173 138.588 332.981 159.043 337.606 156.07C342.231 153.097 359.631 128.677 367.753 116.838C371.882 159.787 379.398 247.252 376.425 253.529C372.708 261.376 352.686 253.499 337.606 256.833Z" fill="#FFEEEA"/>
<path d="M416.481 70.5868C418.463 64.3097 406.983 59.0234 402.027 61.9145C387.574 88.3446 385.766 74.716 378.488 92.4734C368.164 117.664 359.14 115.186 355.775 131.705C351.233 154.005 364.861 202.322 364.035 215.95C363.374 226.852 371.468 305.976 380.553 346.446C387.161 362.139 409.461 349.337 409.461 336.122C409.461 327.545 395.007 213.472 380.553 160.612C386.748 154.418 387.161 131.292 399.549 117.664C411.938 104.036 407.396 90.4086 411.938 83.3883C415.572 77.7719 416.481 72.5138 416.481 70.5868Z" fill="#8292FB"/>
<path d="M294.657 141.203C296.934 151.012 300.163 174.929 298.786 187.042C296.428 201.235 293.263 220.231 289.968 239.932L300.226 245.301L308.284 181.674C310.762 152.766 319.434 133.77 329.759 130.053C331.957 129.262 309.523 90.8215 309.523 89.1696C309.523 87.8481 301.539 66.0437 297.547 55.3067C293.913 47.3778 277.312 56.5455 280.616 61.5011C279.625 64.1441 281.855 101.524 285.984 106.514C290.114 111.504 289.288 118.077 294.657 141.203Z" fill="#8292FB"/>
<path d="M324.496 89.6532C342.666 78.0902 351.063 101.354 352.99 114.431V116.869L359.279 111.5L349.274 71.4826C333.168 66.1138 326.561 74.7864 324.496 77.2641C322.844 79.2464 323.807 86.3494 324.496 89.6532Z" fill="#D9E5EB"/>
<path d="M322.431 156.553C323.257 156.966 326.974 146.642 328.213 142.512C326.486 141.222 328.382 134.24 329.546 130.91C333.51 128.597 333.95 124.427 333.675 122.631C328.72 125.075 324.397 127.604 322.431 129.71C316.65 135.905 321.286 138.382 317.983 142.512C314.679 146.642 321.605 156.14 322.431 156.553Z" fill="#D9E5EB"/>
<path d="M358.64 123.314C365.455 122.673 371.003 122.39 374.464 115.669C377.733 109.323 377.742 103.215 376.183 97.8724C374.265 101.176 370.318 108.07 369.603 109.022C368.364 110.674 361.344 118.108 358.64 123.314Z" fill="#D9E5EB"/>
<path d="M349.689 84.6967C345.422 80.7047 334.905 73.4641 326.976 76.4374M326.976 132.601C325.324 133.702 322.516 136.4 324.498 138.382C326.976 140.86 324.498 148.293 322.433 148.706M360.426 109.888C361.114 107.41 362.078 101.876 360.426 99.5637M352.992 115.669C355.057 114.43 360.261 112.118 364.555 112.779C369.924 113.604 369.924 102.867 369.924 102.042M355.47 109.888C355.333 107.685 354.644 103.033 352.992 102.042M364.555 117.734C367.584 117.046 373.641 114.761 373.641 111.127M357.948 118.973C356.847 119.937 354.314 121.864 352.992 121.864M324.498 84.6967C325.875 83.3204 329.453 80.9806 332.757 82.6322" stroke="#7699AA" stroke-width="0.825928"/>
<path d="M310.35 198.605C315.856 186.354 328.024 161.108 332.65 158.135" stroke="#DF8B77" stroke-width="0.825928"/>
<path d="M425.623 202.068L432.231 220.239H439.251C446.546 198.077 461.138 153.504 461.138 152.513C461.138 151.522 439.389 131.727 428.514 121.954C419.429 123.192 421.805 118.652 418.501 117C415.197 115.348 418.219 110.13 424.001 106C428.626 102.697 432.781 111.905 434.295 115.346C443.38 122.366 463.781 137.398 472.701 141.363C481.621 145.327 471.462 216.247 465.268 251.211L482.199 336.282L489.632 520.051H482.199L460.725 356.93H449.162L373.177 499.815L365.33 494.86L428.514 341.237L406.627 263.6L392.586 304.484C390.934 325.958 337.249 303.245 335.184 303.245C333.532 303.245 327.016 306.087 325.501 306.5C318.481 305.261 319.72 290 325.502 290C328.475 287.357 334.22 292.783 335.184 294.985L380.197 298.289L398.781 241.3L413.647 225.607L411.169 214.457C403.736 216.109 398.781 203.72 398.781 200.83C398.781 197.939 395.477 195.874 393.412 192.983C391.347 190.093 396.716 181.42 398.781 177.291C400.845 173.161 410.344 174.4 416.951 174.4C423.558 174.4 425.623 185.963 428.514 190.093C430.827 193.396 427.55 199.453 425.623 202.068Z" fill="#4A4A6D"/>
<path d="M390.522 187.613C387.873 192.909 391.645 196.16 395.658 198.318C396.445 198.742 397.709 197.489 397.48 196.625C396.13 191.516 395.345 182.475 397.129 183.07C399.607 183.896 405.388 179.766 407.453 177.702C409.518 175.637 414.061 177.702 416.125 177.702C419.694 177.702 419.429 185.548 423.559 187.613C427.689 189.677 429.34 192.981 430.579 188.441C431.818 183.9 427.276 184.311 427.689 176.052C428.102 167.792 422.126 171.608 420.255 168.616C418.19 165.315 402.956 162.424 400.433 166.553C395.89 173.987 393.652 170.268 390.522 175.224C385.566 183.07 393.826 181.005 390.522 187.613Z" fill="#8292FB"/>
<path d="M366.982 480.406L421.494 329.674C439.251 322.791 476.831 311.834 485.09 323.067C495.414 337.108 486.742 408.963 490.459 420.939C492.894 428.785 493.762 488.665 494.175 497.338C494.588 506.01 476.418 504.771 472.288 503.532C468.159 502.293 472.452 482.05 467.746 472.973C461.964 461.823 463.034 420.913 460.725 416.81C457.009 410.202 454.118 387.902 448.336 376.339C446.684 376.752 443.81 383.213 435.947 402.356C426.449 425.482 416.125 426.308 411.17 444.891C407.585 458.332 402.222 466.641 397.129 468.843C391.76 472.973 393.577 479.745 385.979 488.665C378.38 497.585 370.148 486.876 366.982 480.406Z" fill="#865861"/>
<path d="M447.511 373.861L435.535 357.343" stroke="#60343D" stroke-width="0.825928"/>
<path d="M431.817 214.457C426.531 214.127 416.125 219.275 411.582 221.89L428.101 245.842C431.542 235.518 437.103 214.787 431.817 214.457Z" fill="#FFEEEA"/>
<path d="M487.98 325.958C465.845 345.78 417.776 340.824 414.886 330.087L405.8 278.879C403.157 290.773 396.715 301.73 393.824 305.722C377.719 311.504 374.828 301.592 374.828 293.746C374.828 288.522 382.674 259.47 387.63 245.429C388.456 234.692 414.886 217.348 412.821 220.651C411.169 223.294 421.768 234.692 427.275 240.061C426.036 235.931 429.339 212.805 439.25 202.894C444.619 197.526 448.749 164.076 454.943 152.926C459.899 144.006 472.425 149.209 478.069 152.926C479.996 161.185 481.868 182.164 473.939 200.004C466.011 217.844 479.996 291.406 487.98 325.958Z" fill="#DF8B77"/>
<path d="M405.388 277.228C401.947 263.6 395.559 235.849 397.542 233.867" stroke="#FEBCAC" stroke-width="0.825928"/>
<path d="M369.459 513.44L343.443 501.051C342.121 496.426 345.921 494.859 347.985 495.272C366.156 496.511 360.787 491.969 365.33 491.969C376.898 491.969 377.03 498.298 375.241 501.051L369.459 513.44Z" fill="#FED7CE"/>
<path d="M492.11 514.682C484.842 504.44 480.271 512.066 478.895 517.16C477.904 517.16 475.454 525.969 474.352 530.374C476.665 548.214 487.154 534.504 492.11 525.419C493.762 524.758 492.798 517.985 492.11 514.682Z" fill="#FED7CE"/>
<path d="M63.8569 98.2946C50.4349 101.829 48.4396 109.72 49.4032 115.226C43.4565 111.923 32.6093 125.963 27.929 133.395C12.2364 139.59 16.3661 147.023 16.366 158.586C16.366 175.187 18.0179 180.473 34.5365 195.753C47.7513 207.977 69.2254 173.866 78.3106 155.282C99.7847 153.631 90.6995 139.59 94.4162 130.505C101.71 112.675 96.0681 104.076 90.6995 101.185C79.5495 81.363 71.7032 96.2286 63.8569 98.2946Z" fill="#686889"/>
<path d="M60.1393 146.189C61.9289 142.885 65.4253 136.03 65.0949 135.039C64.6819 133.8 64.6819 129.671 64.269 129.671C62.2042 129.671 58.0745 120.172 65.9208 120.172C71.2893 96.2224 96.8931 102.832 91.9375 123.476C92.3505 129.947 90.7812 142.559 81.2004 141.238L79.5486 152.801L111.76 185.425L105.978 142.889C103.501 140.548 98.4263 134.334 101.023 129.671C103.088 125.962 103.088 135.759 105.978 135.039C108.043 134.525 103.501 124.306 107.217 123.476C110.934 122.646 117.954 127.197 114.651 141.238C111.347 155.278 130.048 185.391 128.278 192.032C126.626 198.231 114.651 207.729 111.76 185.425L79.5486 194.923L58.9004 242.414L107.217 322.529L79.5486 400.579H71.2893L93.5894 320.051L56.8356 256.455L41.9689 259.345L79.5486 322.529L44.0337 403.883H34.9485L60.9652 326.245L11.8225 259.345L35.3615 174.275V152.801L6.04102 112.747L36.1874 73.9245C34.5355 68.2807 34.1226 56.7401 40.73 56.167C44.4467 55.8447 44.0771 75.3548 45.6856 67.3171C46.9244 61.1259 45.3907 60.0965 46.9244 60.71C51.0541 62.3619 49.4022 74.7545 45.6856 75.5805C42.7122 76.2412 30.4059 102.423 23.7985 114.812L60.1393 146.189Z" fill="#60343D"/>
<path d="M17.1915 295.277C-3.29156 281.071 2.18705 243.244 8.93213 228.377C26.8272 231.405 63.5259 238.123 67.16 240.766C71.7026 244.07 95.2416 295.277 108.869 308.905C122.497 322.533 112.586 374.979 97.7194 384.477C85.826 392.076 74.3181 385.992 70.0508 382C65.5082 399.757 42.7952 383.651 39.9044 382C37.0137 380.348 41.4981 354.802 45.6859 350.614C57.2489 339.051 42.7952 313.035 17.1915 295.277Z" fill="#FED7CE"/>
<path d="M2.73763 232.92C13.9702 244.813 52.8439 246.41 70.8767 245.721C68.2337 240.436 79.9619 218.191 86.1564 207.729C88.2212 197.405 107.218 208.522 116.303 207.729C168.336 203.186 89.4601 150.74 83.6786 151.566C79.0534 152.226 64.6822 144.132 58.0748 140.003L28.3414 112.334C26.1389 107.103 18.6781 99.2019 6.45433 109.443C-8.82534 122.245 14.7136 129.266 24.2118 155.282C33.7099 181.299 -11.3031 218.053 2.73763 232.92Z" fill="#A47A82"/>
<path d="M72.9409 380.348C110.108 298.168 66.3335 302.298 58.0742 265.131" stroke="black" stroke-width="0.825928"/>
<path d="M59.7272 412.56H34.1234C33.7105 408.705 33.1323 400.667 34.1234 399.345C49.4031 398.519 53.5327 404.3 57.2494 406.365C60.2227 408.017 60.1401 411.183 59.7272 412.56Z" fill="#8292FB"/>
<path d="M95.2421 409.256H69.2254C68.5371 405.221 67.5735 397.011 69.2254 396.454C78.7235 392.324 86.9828 401.822 91.1124 403.061C94.4162 404.052 95.2421 407.604 95.2421 409.256Z" fill="#8292FB"/>
<path d="M171.251 25.3806C169.945 25.3806 163.167 27.2727 159.382 27.4447L155.254 30.6555L135.129 43.4427L128.421 60.9874L157.318 84.7243C162.995 84.5523 174.657 83.7955 175.895 82.1442C177.133 80.493 176.755 74.2319 176.411 71.3078C165.184 64.4224 168.385 52.5458 168.901 41.7094C169.446 30.2648 198.154 20.5823 199.46 42.5353C201.005 68.5047 193.467 70.204 190.874 70.7886L190.86 70.7918C189.315 87.7813 198.729 88.5052 203.213 88.8501L203.244 88.8525L234.205 80.5962L237.817 50.667L222.337 38.2826L214.597 30.5423C211.5 30.1982 204.586 28.891 201.696 26.4141C198.084 23.318 186.215 27.4461 185.699 24.866C185.183 22.2859 198.084 21.2539 198.084 15.5777C197.568 5.25568 195.504 2.67851 188.28 8.35313C186.215 9.38649 184.255 7.52649 190.86 2.16117C197.465 -3.20416 208.06 10.246 212.532 17.6418L251.75 52.2151L244.526 80.5962L217.177 136.842L198.6 384.056H190.86L191.892 205.473C187.764 204.613 179.198 202.893 177.959 202.893C176.721 202.893 157.318 371.5 154.222 384.056H144.123L154.222 189.992L138.742 99.6889L111.393 56.8593L124.293 38.2826C133.925 31.9183 154.016 18.8802 157.318 17.6418C161.446 16.0937 159.627 7.89293 170.735 1.64476C178.991 -2.99933 183.119 3.19293 184.667 7.83707C183.119 10.4184 176.574 2.16117 173.831 6.80374C167.123 18.1563 182.087 21.7699 183.635 24.866C185.183 27.9622 173.315 25.3806 171.251 25.3806Z" fill="#EED9DD"/>
<path d="M215.565 178.813H151.556C148.252 178.813 137.928 363.408 139.167 367.951C140.406 372.494 158.576 367.951 161.467 367.951C163.78 367.951 175.37 278.475 180.876 233.738C182.253 277.374 184.923 365.308 184.593 367.951C184.18 371.255 197.808 372.081 204.828 367.951C210.445 364.647 214.326 240.483 215.565 178.813Z" fill="#CA9B5A"/>
<path d="M156.301 379.043C155.43 374.898 147.592 375.589 143.782 376.453C143.782 377.748 133.986 386.816 130.72 388.544C127.455 390.271 125.278 392.43 129.632 398.044C133.986 403.657 149.769 393.726 153.579 392.43C157.389 391.135 157.389 384.225 156.301 379.043Z" fill="#4F7A8E"/>
<path d="M187.285 379.043C188.156 374.898 195.994 375.589 199.803 376.453C199.803 377.748 209.6 386.816 212.866 388.544C216.131 390.271 218.308 392.43 213.954 398.044C209.6 403.657 193.817 393.726 190.007 392.43C186.197 391.135 186.197 384.225 187.285 379.043Z" fill="#4F7A8E"/>
<path d="M199.117 92.981C194.576 96.2835 174.864 94.357 165.575 92.981C156.287 121.19 140.187 180.188 150.095 190.508C160.002 200.829 194.816 194.808 210.985 190.508V134.779C208.921 119.47 203.658 89.6784 199.117 92.981Z" fill="#FFF0DB"/>
<path d="M158.352 118.266C167.124 120.674 189.313 124.045 207.89 118.266M148.031 160.579C168.672 166.771 200.665 167.288 215.63 160.579" stroke="#DEE3FE" stroke-width="21.6728"/>
<path d="M129.97 187.93C132.447 201.14 159.9 208.571 159.9 202.378C164.028 196.187 164.544 135.811 165.576 133.747C166.608 131.682 175.896 81.6284 175.38 80.0804C174.864 78.5323 160.932 80.5964 159.9 81.6284C158.868 82.6605 139.775 64.0838 137.711 63.0517C135.647 62.0197 134.099 53.7634 136.163 53.7634C137.814 53.7634 153.363 39.6595 160.932 32.6075C161.964 29.5114 164.028 22.8022 155.255 16.0952C145.721 8.80527 119.65 39.3161 107.266 51.7006C94.8811 64.085 135.131 106.915 132.551 112.075C130.486 116.203 129.97 164.365 129.97 187.93Z" fill="#4A4A6D"/>
<path d="M205.825 208.569C203.761 207.744 195.677 123.598 191.893 81.6284C193.441 78.0162 203.85 83.6041 205.309 82.1445C206.857 80.5965 223.198 67.696 232.142 60.9877C232.658 58.5796 233.381 53.7634 232.142 53.7634C230.594 53.7634 209.437 35.7028 206.857 34.1547C204.277 32.6067 201.181 24.3503 210.986 18.1581C220.789 11.9667 241.425 32.6021 256.905 48.0811L256.911 48.0872C272.392 63.5669 227.498 115.686 230.078 117.75C232.658 119.814 234.722 175.028 234.722 183.8C234.722 192.573 208.405 209.601 205.825 208.569Z" fill="#4A4A6D"/>
<path d="M132.035 44.4738V50.6661M147.516 21.2529C149.752 24.177 153.914 30.7477 152.676 33.6374M213.05 33.6374C213.738 29.5092 215.63 21.2529 217.694 21.2529M195.506 97.6239L202.214 86.2714M167.641 99.6879C167.125 95.2158 165.473 86.2714 162.996 86.2714M226.983 112.588C227.327 108.976 228.428 101.855 230.079 102.268" stroke="black" stroke-width="1.03204"/>
<path d="M182.943 231.673L197.81 214.741" stroke="black" stroke-width="0.825928"/>
<path d="M165.192 54.9449C165.868 60.2192 169.981 63.4607 171.953 64.4222C168.995 62.3617 166.038 54.121 169.418 53.2969C172.798 52.4728 173.22 57.4174 171.108 47.5281C168.995 37.6387 177.023 38.8747 179.98 39.699C182.938 40.5233 187.585 36.4026 190.965 35.5785C194.345 34.7544 195.613 40.1111 195.19 41.7593C194.852 43.0779 197.303 46.9787 198.571 48.7643C206.598 38.8747 197.758 38.3962 198.571 34.2758C200.683 23.5624 188.887 28.0799 181.705 27.2558C175.959 26.5965 172.938 29.2601 172.375 31.0457C165.615 33.1059 168.15 35.9903 165.192 38.8747C156.325 47.5228 164.347 48.352 165.192 54.9449Z" fill="#DF8B77"/>
<path d="M52.7795 275.45L56.4573 285.958L59.6096 308.549L72.7446 323.786L87.4557 293.838L84.8287 547.59L92.9169 543.873L108.472 356.886H123.183L139.996 534.375H148.254L139.996 322.21L158.91 288.059L188.332 308.549C188.157 301.894 188.437 287.849 190.959 284.907C194.111 281.229 184.654 260.213 186.231 258.111C190.04 253.032 186.5 242.678 186.5 239C186.5 235.322 184.551 238.102 183.5 236C182.449 233.898 180 236.5 179.5 235.5C178.795 234.09 177.824 236 175.723 236C173.621 236 173.5 219 171.5 220C169.15 221.175 173.076 236.5 171.5 236.5C170.449 236.5 167.616 221.768 167 222.384C165.5 223.884 167.196 235.243 168.5 241.5C171 253.5 168.5 251 175.197 257.06C175.894 257.691 176.248 259.337 176.248 260.213L175.723 293.838L169.943 270.721C163.814 262.665 150.714 246.552 147.351 246.552C143.148 246.552 119.505 226.587 125.284 222.384C127.249 220.955 128.242 216.734 128.491 211.68C132.738 207.32 132.115 199.792 128.356 203.995C127.747 196.118 125.788 188.485 123.183 187.183C117.929 184.556 117.929 170.895 101.116 196.114C100.917 198.419 100.791 200.514 100.727 202.419C97.4383 198.216 94.8113 207.673 100.832 209.775C101.94 224.656 108.67 221.473 109.522 226.587C110.363 231.631 107.771 238.146 106.37 240.773L84.8287 256.01L70.643 300.668C68.016 296.64 64.8339 285.155 65.389 270.721C65.9144 257.06 56.9827 247.603 55.9319 245.502C55.4064 244.451 50.1314 229.512 48.0509 229.214C44.3731 228.689 52.8315 247.078 50.1525 247.078C49.6271 247.078 43.8477 228.464 41.2207 229.214C37.543 230.265 48.5763 250.231 45.4239 249.18C42.902 248.339 42.4466 250.931 42.2715 252.332C39.3293 254.013 39.9948 255.834 41.7461 257.06C39.6445 257.586 39.6445 258.111 39.6445 259.687C39.6445 264.284 45.9493 265.992 48.5763 268.094C50.2172 269.407 50.8531 273.699 52.7795 275.45Z" fill="#DEE3FE"/>
<path d="M82.1798 327.48H153.623C159.817 387.222 171.297 507.532 167.663 510.836C163.121 514.966 137.104 524.464 134.626 523.638C132.424 522.904 118.481 420.41 116.853 394.995C115.151 420.642 103.678 524.988 101.176 525.703C98.2854 526.529 71.4427 533.962 65.6612 525.703C59.8797 517.443 79.702 327.48 82.1798 327.48Z" fill="#DF8B77"/>
<path d="M94.0528 536.144C94.0528 531.519 87.996 532.565 84.9676 533.667C84.9676 535.318 80.425 539.861 76.2953 543.991C72.1657 548.121 73.4046 549.772 75.0564 553.902C76.7083 558.032 87.4453 550.598 91.575 548.946C95.7046 547.295 94.0528 541.926 94.0528 536.144Z" fill="#686889"/>
<path d="M149.08 532.31C147.098 531.225 141.647 531.858 139.169 532.31C138.178 532.31 137.517 542.772 137.93 548.003C144.538 547.865 158.496 547.672 161.469 548.003C165.186 548.416 164.36 540.982 161.469 540.569C158.578 540.157 151.558 533.667 149.08 532.31Z" fill="#686889"/>
<path d="M118.107 389.425L128.432 373.319" stroke="#B45943" stroke-width="0.825928"/>
<path d="M92.5724 212.872C90.006 219.993 100.771 224.566 106.474 225.962C109.682 226.929 108.262 221.336 105.319 217.656C103.435 215.301 102.228 212.148 101.115 210.3C94.8106 204.521 98.0028 199.738 100.59 201.894C100.828 202.092 100.719 199.747 101.115 199.531C103.509 198.221 107.312 192.455 109.147 189.311C110.217 197.104 125.472 204.108 128.961 202.945C130.538 202.419 134.741 203.47 127.867 211.876C124.315 218.654 118.271 226.668 123.584 224.391C132.139 220.726 135.881 228.057 141.228 227.009C164.219 218.108 134.812 194.023 133.208 187.74C131.604 181.457 118.772 179.362 105.405 181.98C92.0378 184.598 95.7805 203.971 92.5724 212.872Z" fill="#2E5D72"/>
<path d="M46.9994 281.229C41.7455 274.399 68.0153 270.721 68.0153 274.399C69.0661 275.625 70.7497 280.978 70.6423 279.653C69.0661 260.213 81.6757 244.977 105.319 238.147L113.725 244.451L126.334 240.774L133.165 236.045C146.65 237.621 173.515 243.085 173.095 252.332C172.964 255.216 173 258.072 173.132 260.739C179.074 260.914 191.169 260.634 192.009 258.112C193.06 254.959 195.162 269.67 193.06 271.247C190.958 272.823 208.297 321.685 180.976 315.38C166.265 311.985 163.112 300.143 157.858 302.245C157.858 320.109 157.333 356.046 155.231 356.886C153.13 357.727 150.503 341.825 149.452 333.769C149.452 344.627 147.253 364.692 139.995 366.869C129.487 370.021 84.828 374.75 75.3709 370.021C75.546 357.587 76.2115 332.193 77.4725 330.091C79.0487 327.464 49.6264 345.328 49.6264 314.329C50.0467 300.038 48.0502 286.308 46.9994 281.229Z" fill="#D9E5EB"/>
<path d="M68.0153 274.399C69.0661 275.625 70.7497 280.977 70.6423 279.653L71.137 269.665C72.5111 262.447 76.1241 256.043 81.7662 250.733V307.658L74.3328 316.743L61.118 273.037C59.5415 273.158 57.836 273.396 56.1624 273.74C57.4013 292.378 56.5754 332.022 73.5069 330.969C68.1528 332.681 58.7547 335.058 53.4862 328.719C51.6198 325.002 50.3809 319.633 49.6533 315.917C49.6355 315.402 49.6264 314.873 49.6264 314.329C50.0467 300.038 48.0502 286.308 46.9994 281.229C45.8446 279.728 46.2128 278.379 47.4901 277.227C49.2207 275.666 52.6201 274.467 56.1624 273.74C57.836 273.396 59.5415 273.158 61.118 273.037C64.9473 272.744 68.0153 273.142 68.0153 274.399Z" fill="#A9C2CF"/>
<path d="M173.095 252.332C172.964 255.215 173 258.072 173.132 260.738C175.008 260.794 177.497 260.803 180.052 260.712L177.987 295.682L168.902 299.398L157.752 241.121C155.625 240.447 153.395 239.833 151.144 239.281C148.831 239.453 141.371 324.771 137.929 367.409C135.271 368.03 131.537 368.685 127.192 369.3C124.989 369.612 122.629 369.914 120.172 370.196C116.727 370.591 113.093 370.947 109.435 371.238C104.817 371.604 100.163 371.867 95.8069 371.971C91.7386 372.069 87.9308 372.029 84.6569 371.808C83.3354 371.732 91.5709 284.96 95.8539 241.583C98.7766 240.274 101.935 239.124 105.319 238.146L106.544 239.065C105.553 239.801 98.973 327.976 95.8069 371.971C100.163 371.867 104.817 371.604 109.435 371.238L112.104 243.235L113.725 244.451L122.65 241.848L120.172 370.196C122.629 369.914 124.989 369.612 127.192 369.3C130.634 325.621 138.177 238.041 140.82 237.154C144.11 237.715 147.653 238.424 151.144 239.281C153.395 239.833 155.625 240.447 157.752 241.121C166.379 243.858 173.31 247.6 173.095 252.332Z" fill="#A9C2CF"/>
<path d="M193.06 271.246C195.162 269.67 193.06 254.959 192.009 258.111C191.563 259.449 187.95 260.156 183.768 260.499C184.759 260.427 185.007 297.426 185.007 315.934C191.292 316.119 194.418 312.498 195.746 307.245L195.558 287.835C194.259 279.232 192.264 271.844 193.06 271.246Z" fill="#A9C2CF"/>
<path d="M155.231 356.886C157.333 356.045 157.858 320.108 157.858 302.245L151.144 344.605C152.362 351.249 153.902 357.418 155.231 356.886Z" fill="#A9C2CF"/>
<path d="M176.5 258C171.301 254.44 169.5 250.5 168.5 240.5L176.5 258Z" fill="#DEE3FE"/>
<path d="M144.198 283.856H126.335V294.889C126.335 295.94 132.639 301.194 134.741 301.194C136.422 301.194 141.046 296.991 143.147 294.889L144.198 283.856Z" fill="#4F7A8E"/>
<path d="M104.793 245.502C101.851 239.197 106.019 234.118 108.471 232.367C108.996 231.316 116.352 243.926 116.877 242.35C117.403 240.774 125.284 232.367 127.911 230.791C130.538 229.215 131.063 232.367 132.639 237.621C134.216 242.875 123.182 254.434 120.555 254.434C118.352 254.434 116.519 248.154 116.294 246.126C115.711 248.082 112.937 253.996 111.623 254.434C110.047 254.959 108.471 253.383 104.793 245.502Z" fill="#4F7A8E"/>
<path d="M116.352 247.079V367.92M153.13 291.737L157.333 298.568M69.5921 286.483C72.219 292.263 77.0527 304.662 75.3714 308.025M77.9984 325.888C78.8741 313.104 80.1 286.799 77.9984 283.856M50.6777 286.483C55.4063 287.009 65.0736 287.219 65.9143 283.856M175.722 272.823C180.101 274.224 189.173 276.186 190.434 272.823M170.994 295.941C171.169 286.834 171.94 268.41 173.621 267.569" stroke="#4F7A8E" stroke-width="1.0508"/>
<ellipse cx="112.326" cy="277.099" rx="1.65186" ry="2.06482" fill="#7699AA"/>
<ellipse cx="112.326" cy="300.224" rx="1.65186" ry="2.06482" fill="#7699AA"/>
<ellipse cx="113.152" cy="323.35" rx="1.65186" ry="2.06482" fill="#7699AA"/>
<path d="M277.03 147.408C273.727 141.461 266.018 144.93 262.577 147.408C256.06 146.477 252.597 156.513 254.431 169.728C249.433 161.469 247.368 169.728 252.597 176.749C253.264 178.753 254.005 180.78 254.685 182.53C254.89 188.058 255.143 193.287 255.143 197.377L235.43 199.462L211.478 222.588L208.587 218.045C208.587 215.292 210.157 209.786 216.434 209.786C224.28 209.786 224.693 207.308 224.693 198.223C224.693 191.202 214.782 196.158 214.782 193.68C214.782 190.789 216.021 183.769 212.717 183.769C211.478 183.769 212.717 191.099 209.826 193.267C206.523 195.745 203.769 203.867 201.98 208.134L200.328 233.325L210.652 237.867L236.256 215.567V282.467L203.012 497.209H211.271L251.536 291.966L262.577 282.467L272.488 316.33L285.192 497.209H294.277L287.464 324.59L296.549 233.325L314.306 244.888L327.108 237.867C326.007 228.231 323.309 208.795 321.327 208.134C318.849 207.308 311.415 175.097 307.699 182.53C306.047 185.834 310.345 190.865 309.351 192.854C307.699 196.158 301.45 187.466 298.614 197.377C294.707 211.025 306.047 209.084 311.415 209.786L316.371 237.867L303.569 223.827L294.071 201.526L272.488 197.377V187.466C284.573 187.466 281.16 154.842 277.03 147.408Z" fill="#A37434"/>
<path d="M300.469 300.638L231.917 302.29C232.909 303.611 211.957 417.919 201.358 474.908C198.715 484.82 218.637 488.123 221.18 481.516C261.238 377.449 259.173 343.173 263.303 350.193C267.81 357.855 276.242 438.568 278.582 479.038C276.93 490.271 300.469 485.233 297.992 479.038C304.929 463.18 304.186 353.497 300.469 300.638Z" fill="#F2C98F"/>
<path d="M212.922 494.731C212.212 487.87 204.387 489.776 201.359 491.428C201.359 493.493 198.055 496.383 191.861 504.229C186.905 510.506 192.824 512.076 196.403 512.076C203.424 510.424 214.161 506.707 212.922 494.731Z" fill="#111131"/>
<path d="M311.62 507.533H284.365C281.887 507.533 283.126 491.84 284.365 491.014C285.604 490.188 295.102 490.188 295.102 491.84C295.102 493.492 303.774 499.686 309.143 502.164C313.437 504.146 312.584 506.569 311.62 507.533Z" fill="#111131"/>
<path d="M243.895 174.7C243.895 176.352 246.372 173.445 248.024 173.445C249.263 174.763 250.089 175.463 251.328 174.7C249.845 172.206 249.346 166.507 251.328 166.837C253.806 167.25 254.219 171.793 255.045 169.315C255.87 166.837 252.567 158.578 255.045 156.926C257.522 155.274 255.458 153.226 260.826 153.226C266.195 153.226 267.021 154.068 268.259 152.4C269.498 150.732 276.519 150.352 277.345 153.226C278.171 156.1 278.171 158.198 279.409 160.247C280.648 162.295 278.996 174.308 280.235 174.7C281.887 175.939 287.256 174.287 290.146 170.157C292.459 166.854 289.734 162.174 288.082 160.247C288.495 154.053 282.713 155.291 283.126 152.4C283.727 148.191 280.648 148.667 279.409 145.363C278.171 142.06 269.498 142.06 264.543 142.06C259.587 142.06 259.174 145.776 255.045 146.602C250.915 147.428 251.741 151.574 251.328 153.226C250.915 154.878 249.676 159.834 248.024 160.247C246.372 160.66 243.895 173.048 243.895 174.7Z" fill="#60343D"/>
<path d="M202.325 209.247C200.342 208.256 200.398 211.863 200.673 213.79C202.187 217.231 206.62 223.371 212.236 220.398C219.256 216.681 204.803 210.486 202.325 209.247Z" fill="#FED7CE"/>
<path d="M311.76 214.203C309.117 214.534 309.833 217.094 310.521 218.333C315.064 219.434 324.232 220.067 324.562 213.79C324.975 205.944 315.064 213.79 311.76 214.203Z" fill="#FED7CE"/>
<path d="M243.827 318.27C252.747 323.556 276.451 320.197 283.885 315.792L276.658 210.9C282.935 203.301 284.917 194.794 282.027 191.49C278.723 186.122 268.482 177.367 253.945 185.296C239.409 193.225 250.091 207.871 257.249 214.203C250.366 237.88 234.907 312.984 243.827 318.27Z" fill="#FED7CE"/>
<path d="M211.025 263.884C183.274 275.777 192.618 227.268 199.913 208.96C211.889 213.089 211.025 226.717 219.736 208.96C228.109 191.889 242.036 193.267 245.339 193.68C247.982 194.01 253.048 191.34 255.251 189.963L256.902 212.676C255.113 247.778 251.823 349.78 250.501 353.084C248.849 357.214 223.658 337.391 221.594 335.74C219.529 334.088 225.517 236.215 225.104 237.867C224.774 239.189 215.017 260.718 211.025 263.884Z" fill="#A47A82"/>
<path d="M325.454 211.025C323.803 209.703 313.479 213.778 308.523 215.98L306.833 211.025C305.594 202.765 300.511 198.553 298.199 196.571C295.886 194.589 282.093 191.34 275.486 189.963C276.725 234.013 277.674 355.149 280.647 355.149C283.621 355.149 301.846 342.072 306.664 337.391C312.859 335.74 300.264 239.519 301.09 241.997C301.75 243.979 309.999 263.333 313.44 265.536C346.478 274.621 327.519 212.676 325.454 211.025Z" fill="#A47A82"/>
<path d="M298.611 197.377C294.705 211.025 306.044 209.084 311.413 209.786L312.178 214.12C314.939 212.794 320.873 210.189 322.525 210.377C322.109 209.075 321.704 208.26 321.324 208.134C318.846 207.308 311.413 175.097 307.696 182.53C306.044 185.834 310.343 190.865 309.348 192.854C307.696 196.158 301.448 187.466 298.611 197.377Z" fill="#A37434"/>
<path d="M209.824 193.267C206.52 195.745 203.767 203.867 201.978 208.134L201.914 209.102C202.885 208.885 207.649 211.786 209.91 213.263C211.052 211.37 213.065 209.786 216.431 209.786C224.278 209.786 224.691 207.308 224.691 198.223C224.691 191.202 214.779 196.158 214.779 193.68C214.779 190.79 216.018 183.769 212.715 183.769C211.476 183.769 212.715 191.099 209.824 193.267Z" fill="#A37434"/>
<path d="M253.945 185.296C239.409 193.225 250.091 207.871 257.249 214.203L264.298 215.98L254.387 320.862C261.163 321.301 269.169 320.391 275.448 318.854L269.667 214.203L276.658 210.9C282.935 203.301 284.917 194.794 282.026 191.49C278.723 186.122 268.481 177.367 253.945 185.296Z" fill="#FED7CE"/>
<path d="M272.487 197.377V187.465C274.176 187.465 275.563 186.828 276.687 185.71C276.412 184.926 275.186 182.943 272.487 181.291C269.787 179.639 259.493 181.429 254.684 182.53C254.889 188.058 255.142 193.287 255.142 197.377C258.607 199.999 265.537 205.573 265.537 206.895C265.537 208.547 270.764 197.377 272.487 197.377Z" fill="#A37434"/>
<path d="M228.409 295.682L237.907 284.945M211.891 240.758C212.717 235.664 214.286 224.652 213.955 221.348M225.518 235.389C226.895 234.012 229.648 230.846 229.648 229.195M244.515 193.68C241.624 196.983 252.774 233.737 254.839 244.474M282.92 193.68C286.499 192.991 292.584 193.762 288.289 202.352L277.965 243.236M299.852 237.867C299.714 233.049 299.191 223.413 298.2 223.413M311.415 240.758C310.314 233.875 308.194 219.862 308.524 218.871M296.135 284.945L301.917 296.921" stroke="#865861" stroke-width="0.825928"/>
<path d="M259.381 204.83C259.931 211.3 260.702 224.9 259.381 227.543M273.422 204.83C272.596 210.887 271.192 223.826 272.183 227.13" stroke="#B45943" stroke-width="0.825928"/>
<path d="M256.695 306.832C262.064 307.383 273.627 307.658 276.931 304.354" stroke="#FEBCAC" stroke-width="0.825928"/>
<path d="M265.125 346.064L272.558 331.61" stroke="#FEE2BB" stroke-width="0.825928"/>
<ellipse cx="285.36" cy="254.386" rx="2.06482" ry="2.47778" fill="#865861"/>
<ellipse cx="285.36" cy="277.512" rx="2.06482" ry="2.47778" fill="#865861"/>
</svg>
