<svg width="856" height="719" viewBox="0 0 856 719" fill="none" xmlns="http://www.w3.org/2000/svg">
<path d="M484.842 206.48L512.698 133.028L465.042 113.984L420.241 182.737C420.2 185.52 406.433 218.134 401.442 228.981C393.124 247.061 373.507 257.501 358.382 271.874C343.257 286.248 324.252 317.049 313.828 334.173C309.331 340.005 303.193 351.69 314.618 351.775C328.898 351.881 345.705 323.197 351.961 315.571C356.966 309.47 357.806 319.14 357.601 324.738L354.613 338.608C345.428 363.256 327.85 414.318 331.022 421.38C334.194 428.442 339.064 426.732 341.103 424.994C355.407 416.385 366.081 362.039 374.124 350.764C378.4 344.768 377.207 347.028 377.076 349.967C369.051 375.49 353.525 427.897 355.629 433.348C358.259 440.16 361.41 440.101 366.916 437.032C373.998 433.085 384.49 384.784 395.011 362.151C403.428 344.045 400.43 354.355 399.001 362.263C391.522 383.943 376.044 426.256 378.298 430.794C380.031 434.285 384.494 436.113 390.194 432.335C396.239 428.329 413.785 374.505 418.137 364.225C421.619 356.002 424.018 363.035 424.597 367.629L421.691 400.876L421.778 405.603C422.135 409.862 425.861 415.745 431.602 405.328C437.343 394.911 442.383 356.76 444.186 338.986C459.88 300.31 450.526 275.913 456.185 266.073C457.149 264.396 475.337 225.54 484.842 206.48Z" fill="#212043"/>
<path d="M430.904 402.745C431.733 403.471 430.996 406.019 430.523 407.203C428.175 412.587 424.378 410.84 422.774 409.293C422.824 407.036 423.497 402.289 425.779 401.357C428.631 400.191 429.867 401.837 430.904 402.745Z" fill="#ACB7FD"/>
<path d="M381.87 423.497C383.777 422.349 388.561 424.331 390.715 425.465C390.744 427.041 390.224 430.982 387.909 434.14C385.594 437.298 380.489 434.03 378.227 432.002C378.537 428.751 379.963 424.645 381.87 423.497Z" fill="#ACB7FD"/>
<path d="M360.467 429.271C362.238 428.793 365.672 429.978 367.168 430.631C367.964 433.583 366.447 436.763 365.469 439.007C364.49 441.25 354.24 438.473 354.919 435.123C355.599 431.772 358.253 429.869 360.467 429.271Z" fill="#ACB7FD"/>
<path d="M334.056 415.019C335.077 414.11 340.065 415.773 342.432 416.718C343.754 417.218 341.242 422.581 340.194 426.031C339.145 429.481 330.711 424.631 330.582 422.686C330.453 420.742 332.779 416.155 334.056 415.019Z" fill="#ACB7FD"/>
<path d="M313.827 334.173C315.224 333.48 317.221 335.501 318.045 336.598C318.284 337.484 313.653 344.777 311.308 348.313C309.775 348.991 306.758 349.937 306.95 348.301C307.19 346.257 312.082 335.04 313.827 334.173Z" fill="#ACB7FD"/>
<path d="M528.571 150.003C529.976 147.909 536.97 135.283 548.498 121.5L520.038 114.025C506.734 110.531 493.171 108.113 479.48 106.793L450.5 104L409.789 205.204C409.111 206.888 410.578 208.688 412.388 208.542C434.517 206.759 457.086 223.807 470.702 235.274C471.849 236.24 473.587 235.904 474.298 234.583C484.278 216.052 519.058 164.186 528.571 150.003Z" fill="#60343D"/>
<path d="M420.922 152.085C441.435 146.55 505.884 183.021 507.891 190.461C506.651 206.569 497.97 216.989 490.097 225.321C488.972 226.512 487.106 226.584 485.856 225.523C463.236 206.338 436.133 194.577 418.7 194.644C412.986 194.666 408.735 192.68 409.294 186.993C410.52 174.521 415.274 153.609 420.922 152.085Z" fill="#CA9B5A"/>
<path d="M273.127 244.834L173.8 158.91L131.944 207.362L225.315 290.478C229.949 296.144 242.331 303.781 241.975 308.514C241.618 313.248 260.452 349.914 269.913 367.655C272.045 370.828 281.557 399.247 284.367 414.397L291.744 414.138C308.708 402.651 295.348 369.245 293.322 362.061C291.295 354.876 294.699 355.794 296.655 357.151C298.098 357.655 313.817 365.975 321.378 369.829C325.079 373.144 328.533 376.779 330.802 378.785C334.485 383.31 383.132 422.554 383.636 421.111C384.358 421.363 386.067 420.178 392.903 415.439C401.448 409.515 351.408 366.141 347.054 357.739C343.57 351.017 348.378 352.398 351.217 353.929C368.253 363.114 415.943 401.62 421.299 399.035C422.676 398.371 426.381 398.623 429.391 390.929C433.152 381.312 367.401 337.717 361.317 331.95C356.45 327.336 359.491 327.129 361.62 327.602C366.312 329.24 424.041 358.7 429.74 357.45C431.687 356.511 434.237 355.7 434.332 348.932C434.451 340.472 382.731 313.514 369.63 308.132C359.15 303.827 357.599 301.234 358.133 300.476C356.039 298.126 362.839 298.205 366.501 298.539C382.179 301.177 416.101 313.016 420.138 309.567L424.244 301.284C430.12 296.048 365.228 275.721 335.21 262.923C298.561 247.297 301.65 270.982 273.127 244.834Z" fill="#A47A82"/>
<path d="M273.434 243.85C247.575 214.34 226.923 186.591 179.492 145.035L165.464 156.125C153.104 165.897 142.188 177.369 133.043 190.2L120.266 208.126C160.878 235.674 225.369 300.231 225.468 294.358C225.715 279.675 241.183 255.248 273.434 243.85Z" fill="#FEE2BB"/>
<path d="M197.097 269.778C197.317 276.564 206.226 284.3 210.652 287.32C212.362 290.99 217.942 297.627 226.586 294.811C233.033 270.025 250.656 251.575 274.742 246.487C275.974 245.373 277.177 241.513 272.129 234.98C272.692 226.333 254.93 213.975 252.552 213.398C250.174 212.82 236.934 220.87 236.028 223.269C233.966 228.727 224.054 235.903 218.679 239.574C213.304 243.245 196.821 261.296 197.097 269.778Z" fill="#DF8B77"/>
<path d="M234.638 299.443C234.49 299.838 234.691 300.279 235.086 300.427C235.482 300.574 235.922 300.373 236.07 299.978L234.638 299.443ZM246.27 278.814L246.8 279.365L246.27 278.814ZM279.337 250.562C279.686 250.323 279.775 249.848 279.536 249.499C279.298 249.151 278.822 249.062 278.474 249.3L279.337 250.562ZM236.07 299.978C237.103 297.211 238.874 292.922 240.856 288.875C242.857 284.792 245.014 281.081 246.8 279.365L245.741 278.262C243.733 280.191 241.472 284.142 239.483 288.203C237.476 292.301 235.686 296.637 234.638 299.443L236.07 299.978ZM246.8 279.365C249.134 277.123 252.818 274.359 256.316 271.635C258.053 270.283 259.739 268.944 261.159 267.703C262.568 266.471 263.762 265.296 264.482 264.271L263.23 263.393C262.623 264.258 261.549 265.331 260.153 266.551C258.768 267.762 257.112 269.078 255.377 270.429C251.931 273.112 248.149 275.949 245.741 278.262L246.8 279.365ZM264.482 264.271C265.746 262.469 269.099 259.284 272.38 256.38C275.649 253.487 278.713 250.989 279.337 250.562L278.474 249.3C277.759 249.789 274.625 252.351 271.367 255.235C268.121 258.107 264.618 261.415 263.23 263.393L264.482 264.271Z" fill="#2E5D72"/>
<path d="M412.556 306.922C410.058 305.726 412.473 301.36 413.992 299.326L424.475 301.77C427.321 305.678 424.451 309.184 422.66 310.448C420.333 309.771 415.053 308.117 412.556 306.922Z" fill="#30304C"/>
<path d="M436.711 351.382C436.248 349.925 429.24 346.885 425.793 345.548C422.151 346.705 421.361 351.288 421.831 352.261C422.3 353.235 430.693 358.188 432.858 358.944C435.023 359.7 437.29 353.204 436.711 351.382Z" fill="#30304C"/>
<path d="M431.174 392.767C430.711 391.31 422.835 386.888 418.955 384.859C416.412 385.185 414.666 389.029 414.145 391.681C413.624 394.333 422.394 398.204 424.416 400.529C426.438 402.854 431.752 394.588 431.174 392.767Z" fill="#30304C"/>
<path d="M394.434 417.998C394.173 415.964 388.127 410.939 385.136 408.681C383.693 408.177 379.638 412.834 379.261 413.917C378.883 414.999 386.032 422.353 387.459 424.065C388.885 425.777 394.761 420.541 394.434 417.998Z" fill="#30304C"/>
<path d="M291.362 415.22C293.437 412.058 290.354 403.803 288.553 400.07C286.458 397.72 282.678 399.504 281.049 400.69L284.488 414.035C285.915 415.748 289.287 418.382 291.362 415.22Z" fill="#30304C"/>
<path d="M247.204 273.156L247.775 277.563L252.142 278.381L248.128 280.286L248.699 284.692L245.647 281.463L241.633 283.368L243.761 279.468L240.709 276.238L245.076 277.057L247.204 273.156Z" fill="#FEE2BB"/>
<path d="M529.89 427.395L647.685 464.898L738.983 409.109L542.219 359.681C539.471 360.117 504.981 352.139 493.439 349.08C474.202 343.98 460.557 326.44 443.806 314.001C427.055 301.561 393.454 288.11 374.798 280.772C368.282 277.341 355.719 273.295 357.592 284.565C359.933 298.653 391.07 310.299 399.655 315.157C406.523 319.043 397.14 321.527 391.589 322.284L377.412 321.715C351.555 316.886 298.238 308.312 291.824 312.646C285.409 316.981 287.928 321.486 289.989 323.197C300.921 335.816 356.292 337.026 368.778 343.019C375.417 346.206 372.986 345.417 370.068 345.792C343.548 342.255 289.256 335.933 284.246 338.939C277.985 342.697 278.582 345.791 282.549 350.691C287.651 356.992 337.035 359.058 361.135 365.548C380.415 370.74 369.744 369.552 361.709 369.498C339.068 365.842 294.729 357.838 290.644 360.836C287.501 363.142 286.465 367.852 291.163 372.821C296.145 378.09 352.178 386.159 363.052 388.687C371.75 390.71 365.232 394.277 360.804 395.635L327.551 398.465L322.909 399.361C318.774 400.441 313.616 405.12 324.862 408.992C336.108 412.864 374.559 411.297 392.379 410.03C433.171 418.869 455.606 405.475 466.27 409.366C468.087 410.028 509.484 421.293 529.89 427.395Z" fill="#F2C98F"/>
<path d="M327.287 407.862C326.713 408.803 324.076 408.513 322.83 408.25C317.123 406.858 318.194 402.819 319.443 400.973C321.675 400.636 326.467 400.486 327.777 402.574C329.414 405.185 328.004 406.685 327.287 407.862Z" fill="#FFF0DB"/>
<path d="M298.445 363.106C299.902 364.788 298.769 369.841 298.02 372.157C296.473 372.455 292.501 372.618 288.993 370.878C285.485 369.138 287.83 363.549 289.442 360.972C292.698 360.721 296.987 361.423 298.445 363.106Z" fill="#FFF0DB"/>
<path d="M289.09 343.007C289.864 344.67 289.285 348.257 288.899 349.842C286.126 351.132 282.733 350.182 280.355 349.602C277.977 349.023 278.958 338.448 282.375 338.544C285.793 338.64 288.123 340.928 289.09 343.007Z" fill="#FFF0DB"/>
<path d="M298.609 314.546C299.68 315.396 298.896 320.596 298.37 323.089C298.104 324.477 292.389 322.921 288.811 322.479C285.232 322.037 288.566 312.896 290.46 312.436C292.354 311.976 297.271 313.482 298.609 314.546Z" fill="#FFF0DB"/>
<path d="M374.797 280.772C375.719 282.029 374.07 284.342 373.13 285.342C372.298 285.729 364.32 282.416 360.435 280.711C359.505 279.317 358.056 276.506 359.7 276.415C361.755 276.302 373.644 279.2 374.797 280.772Z" fill="#FFF0DB"/>
<path d="M597.288 461.451C598.874 463.411 725.106 505.486 741.127 509.412C748.239 471.468 744.722 397.732 745.919 391.345C746.716 387.095 671.032 372.999 618.433 367.632L550.186 351.352C541.83 349.359 533.608 357.932 533.633 366.523C533.686 384.873 528.083 406.244 522.169 420.213C520.219 424.816 522.443 430.489 527.145 432.185C550.477 440.602 595.923 459.766 597.288 461.451Z" fill="#DF8B77"/>
<path d="M571.957 353.861C580.377 371.951 556.843 437.516 550.259 440.581C535.198 442.036 524.178 435.772 515.213 429.866C513.841 428.962 513.451 427.131 514.284 425.715C528.241 401.988 534.795 375.425 532.199 359.275C531.291 353.622 532.531 349.114 538.243 348.72C550.081 347.903 569.675 348.957 571.957 353.861Z" fill="#FED7CE" stroke="#FFEEEA" stroke-width="0.764442"/>
<path d="M486.493 416.025C484.826 420.768 488.069 427.968 492.269 422.551C499.029 413.833 515.299 361.925 510.063 350.444C505.873 341.259 501.782 347.596 500.483 351.76" stroke="#60343D" stroke-width="2.29333"/>
<ellipse cx="508.3" cy="372.281" rx="4.96887" ry="5.35109" transform="rotate(10.6163 508.3 372.281)" fill="#FFF0DB"/>
<path d="M531.875 356.071C543.035 355.311 567.892 355.2 573.528 359.989M532.955 364.829C546.487 365.939 573.829 368.756 573.435 370.86M532.392 374.056C545.416 376.497 571.425 381.994 571.557 382.952M530.28 385.327C542.693 388.95 568.144 395.768 568.858 395.279M526.97 396.761C539.195 401.386 564.125 410.569 564.538 410.025M523.214 408.502C535.118 413.455 559.406 423.296 559.819 422.751M517.063 420.57C528.474 426.079 552.65 437.351 553.833 436.017" stroke="#FFEEEA" stroke-width="0.764442"/>
<path d="M249.08 363.315L96.5 346.405L116.999 411.062L243.73 429.199C250.96 430.348 265.286 427.816 268.167 431.589C271.049 435.361 309.499 450.217 328.364 457.173C332.066 458.125 358.071 473.022 370.244 482.467L375.581 477.368C380.61 457.507 348.416 441.445 342.125 437.427C335.833 433.41 338.986 431.832 341.349 431.545C342.762 430.961 360.033 426.72 368.243 424.569C373.212 424.584 378.209 425.001 381.237 424.991C386.997 425.92 449.426 422.874 448.842 421.461C449.549 421.169 450.037 419.147 451.99 411.062C454.432 400.955 388.216 401.843 379.377 398.465C372.305 395.762 376.814 393.596 379.952 392.851C398.783 388.38 460.006 385.418 462.287 379.927C462.873 378.515 465.808 376.239 462.939 368.492C459.351 358.808 381.256 369.98 372.877 369.72C366.174 369.511 368.308 367.334 370.212 366.272C374.805 364.374 437.509 347.981 440.934 343.258C441.763 341.261 443.128 338.96 438.698 333.842C433.161 327.445 376.607 341.711 363.245 346.404C352.555 350.159 349.672 349.255 349.567 348.333C346.44 347.971 351.571 343.507 354.528 341.321C367.99 332.865 401.197 319.146 401.918 313.885L399.475 304.969C400.381 297.151 338.402 325.128 307.473 335.534C269.712 348.239 287.771 363.873 249.08 363.315Z" fill="#FFF0DB"/>
<path d="M233.955 358.925C203.878 357.565 145.724 338.329 83.4081 330.537L76.5752 356.949C72.8965 371.169 72.1348 385.987 74.3361 400.509L78.7483 429.616C127.398 423.18 235.866 433.792 232.035 429.341C222.454 418.212 217.451 388.886 233.955 358.925Z" fill="#8292FB"/>
<path d="M214.029 434.132C208.715 434.821 196.917 434.968 192.24 430.048C186.393 423.897 186.697 399.454 188.27 393.138C189.842 386.822 192.472 374.87 190.381 369.423C189.463 367.029 193.996 352.212 196.156 351.062C198.316 349.911 219.8 347.327 225.13 354.159C233.245 355.68 234.914 359.363 234.734 361.015C220.131 380.833 219.24 406.332 230.911 429.13C226.328 436.981 217.747 435.736 214.029 434.132Z" fill="#8292FB"/>
<path d="M214.029 434.132C208.715 434.821 196.917 434.968 192.24 430.048C186.393 423.897 186.697 399.454 188.27 393.138C189.842 386.822 192.472 374.871 190.381 369.423C189.463 367.029 193.996 352.212 196.156 351.062C198.316 349.911 219.8 347.327 225.13 354.159M214.029 434.132C206.726 419.152 206.655 413.306 205.926 390.225C205.343 371.761 218.486 358.488 225.13 354.159M214.029 434.132C217.747 435.736 226.328 436.981 230.911 429.13C219.24 406.332 220.131 380.833 234.734 361.015C234.914 359.363 233.245 355.68 225.13 354.159" stroke="#DEE3FE" stroke-width="0.764442"/>
<path d="M394.498 316.949C391.838 317.718 390.738 312.851 390.52 310.322L399.973 305.176C404.698 306.202 404.886 310.728 404.39 312.863C402.201 313.905 397.159 316.181 394.498 316.949Z" fill="#30304C"/>
<path d="M442.107 334.087C440.792 333.307 433.536 335.698 430.073 336.991C428.122 340.278 430.58 344.226 431.578 344.64C432.577 345.055 442.138 343.173 444.258 342.297C446.377 341.421 443.75 335.063 442.107 334.087Z" fill="#30304C"/>
<path d="M465.494 368.676C464.18 367.895 455.357 369.831 451.11 370.896C449.428 372.832 450.681 376.863 452.056 379.19C453.431 381.517 462.554 378.575 465.61 378.966C468.667 379.358 467.138 369.651 465.494 368.676Z" fill="#30304C"/>
<path d="M454.838 411.952C453.29 410.607 445.433 410.875 441.698 411.177C440.285 411.761 440.355 417.936 440.792 418.996C441.23 420.055 451.46 420.792 453.664 421.122C455.868 421.452 456.774 413.634 454.838 411.952Z" fill="#30304C"/>
<path d="M376.018 478.427C375.464 474.685 367.672 470.571 363.844 468.982C360.717 468.619 359.081 472.466 358.653 474.435L370.097 482.114C372.301 482.444 376.571 482.168 376.018 478.427Z" fill="#30304C"/>
<path d="M458.792 548.555L532.782 647.588L638.361 646.312L508.214 500.654C505.725 499.409 482.314 472.855 474.706 463.652C462.026 448.312 461.133 426.108 454.745 406.245C448.357 386.382 428.853 355.893 417.948 339.072C414.645 332.49 406.781 321.89 401.747 332.147C395.455 344.967 414.006 372.554 418.162 381.5C421.487 388.656 412.41 385.218 407.456 382.604L396.255 373.894C378.034 354.923 339.657 316.931 331.918 316.725C324.179 316.518 323.606 321.648 324.287 324.239C325.838 340.862 370.169 374.059 376.838 386.198C380.384 392.652 378.866 390.597 376.275 389.204C356.762 370.899 316.282 334.171 310.458 333.702C303.179 333.115 301.865 335.98 302.241 342.272C302.724 350.366 341.689 380.776 357.515 400.076C370.177 415.515 362.188 408.341 355.684 403.622C339.396 387.476 307.989 355.172 302.923 355.233C299.025 355.28 295.442 358.508 296.372 365.283C297.359 372.467 338.239 411.629 345.613 420.011C351.511 426.717 344.134 425.826 339.743 424.355L311.05 407.31L306.753 405.338C302.761 403.812 295.844 404.616 302.739 414.308C309.633 424 341.818 445.095 357.049 454.432C385.086 485.353 411.125 487.511 417.535 496.879C418.628 498.475 445.744 531.721 458.792 548.555Z" fill="#A37434"/>
<path d="M305.37 414.801C304.356 415.233 302.38 413.463 301.519 412.524C297.687 408.072 300.908 405.41 302.998 404.635C305.009 405.66 308.995 408.325 308.845 410.786C308.657 413.862 306.638 414.261 305.37 414.801Z" fill="#DEE3FE"/>
<path d="M307.949 361.62C308.156 363.836 304.294 367.286 302.338 368.734C300.906 368.077 297.581 365.898 295.74 362.442C293.899 358.986 299.058 355.805 301.867 354.646C304.662 356.337 307.742 359.403 307.949 361.62Z" fill="#DEE3FE"/>
<path d="M312.033 339.83C311.695 341.633 309.138 344.213 307.901 345.278C304.896 344.714 302.688 341.967 301.092 340.113C299.495 338.258 306.445 330.227 309.168 332.293C311.892 334.359 312.456 337.576 312.033 339.83Z" fill="#DEE3FE"/>
<path d="M336.334 322.219C336.709 323.534 333.047 327.306 331.168 329.028C330.145 330.003 326.402 325.413 323.749 322.971C321.095 320.529 329.125 315.034 330.933 315.762C332.741 316.49 335.864 320.575 336.334 322.219Z" fill="#DEE3FE"/>
<path d="M417.95 339.073C417.969 340.632 415.281 341.554 413.935 341.82C413.033 341.651 408.472 334.315 406.303 330.668C406.358 328.993 406.815 325.864 408.205 326.746C409.943 327.85 417.926 337.124 417.95 339.073Z" fill="#DEE3FE"/>
<path d="M498.782 606.994C498.933 609.511 518.987 644.35 529.733 656.864C570.949 665.886 630.773 667.56 647.912 655.831C651.481 653.389 598.311 590.521 565.579 551.461L538.304 523.54C532.496 517.595 521.476 520.062 516.324 526.583C505.621 540.133 488.255 551.539 475.111 558.47C470.689 560.802 469.25 566.609 472.319 570.555C483.573 585.024 498.657 604.892 498.782 606.994Z" fill="#111131"/>
<path d="M434.267 495.007C434.789 494.649 434.923 493.936 434.565 493.413C434.208 492.89 433.494 492.757 432.972 493.114L434.267 495.007ZM442.586 521.276L441.829 520.415L442.586 521.276ZM488.375 485.222L489.065 486.138L488.375 485.222ZM488.685 481.841L489.531 481.066L488.685 481.841ZM470.815 464.091L470.142 463.163L470.815 464.091ZM426.715 498.785L426.067 497.839L426.715 498.785ZM427.362 499.732L434.267 495.007L432.972 493.114L426.067 497.839L427.362 499.732ZM465.096 469.653L471.488 465.02L470.142 463.163L463.75 467.796L465.096 469.653ZM473.03 465.2L474.848 467.312L476.586 465.815L474.768 463.704L473.03 465.2ZM481.573 491.78L489.065 486.138L487.685 484.306L480.194 489.949L481.573 491.78ZM489.531 481.066L488.655 480.11L486.964 481.66L487.84 482.616L489.531 481.066ZM448.266 514.753L441.829 520.415L443.343 522.137L449.78 516.475L448.266 514.753ZM440.125 520.202L439.756 519.663L437.863 520.958L438.232 521.497L440.125 520.202ZM441.829 520.415C441.312 520.87 440.514 520.77 440.125 520.202L438.232 521.497C439.399 523.201 441.793 523.501 443.343 522.137L441.829 520.415ZM489.065 486.138C490.687 484.917 490.903 482.563 489.531 481.066L487.84 482.616C488.298 483.115 488.226 483.899 487.685 484.306L489.065 486.138ZM471.488 465.02C471.971 464.67 472.641 464.749 473.03 465.2L474.768 463.704C473.601 462.349 471.591 462.114 470.142 463.163L471.488 465.02ZM427.037 502.041C426.445 501.326 426.596 500.256 427.362 499.732L426.067 497.839C424.188 499.125 423.818 501.747 425.269 503.503L427.037 502.041Z" fill="#FEE2BB"/>
<path d="M566.234 550.029C562.558 569.64 503.805 607.158 496.667 605.821C483.468 598.184 471.977 576.294 467.149 564.621C466.521 563.104 467.27 561.396 468.771 560.729C493.927 549.55 514.711 531.758 521.996 517.113C524.546 511.986 528.006 509.559 532.513 513.091C544.908 522.806 567.294 544.37 566.234 550.029Z" fill="#686889"/>
<path d="M481.942 497.674C479.647 509.915 466.921 521.302 451.983 518.502C434.138 512.046 430.691 497.239 432.986 484.998C435.28 472.756 446.832 463.483 461.771 466.283C476.709 469.083 484.236 485.432 481.942 497.674Z" fill="#212043"/>
<path d="M478.326 496.218C476.032 508.46 465.543 516.766 453.509 514.51C441.476 512.255 433.58 500.503 435.875 488.261C438.169 476.02 449.785 467.925 461.819 470.18C473.853 472.436 480.621 483.977 478.326 496.218Z" fill="#DEE3FE" fill-opacity="0.73"/>
<path d="M428.313 501.621C425.13 499.696 423.147 504.282 422.889 505.66C422.39 507.122 431.648 523.246 435.475 523.574C438.537 523.837 440.273 521.492 440.758 520.287C442.989 518.76 431.107 503.311 428.313 501.621Z" fill="#60343D"/>
<path d="M476.937 462.125C475.49 461.543 473.517 464.466 472.711 466C471.871 467.398 484.545 483.773 486.94 483.444C489.335 483.115 489.993 481.683 491.683 478.889C493.373 476.095 478.745 462.853 476.937 462.125Z" fill="#60343D"/>
<path d="M437.609 470.698L439.206 472.553C440.771 471.809 443.78 470.144 443.291 469.43C442.681 468.538 442.07 467.646 440.873 467.81C439.915 467.942 438.298 469.79 437.609 470.698Z" stroke="black" stroke-width="0.764442"/>
<circle cx="458.036" cy="492.416" r="1.9111" transform="rotate(10.6163 458.036 492.416)" fill="#4A4A6D"/>
<path d="M455.011 489.903C453.798 488.768 451.292 486.095 450.972 484.48C450.653 482.864 453.532 487.422 455.011 489.903Z" stroke="black" stroke-width="0.764442"/>
<path d="M462.687 492.508C465.324 491.577 470.812 490.531 472.712 490.887C474.591 491.24 463.954 491.968 462.687 492.508Z" stroke="black" stroke-width="0.764442"/>
<path d="M287.614 470.423L201.943 580.482L283.946 610.279L346.128 510.945C351.035 505.513 362.032 494.56 366.765 494.203C371.499 493.846 404.926 469.727 421.048 457.712C423.866 455.129 450.538 441.462 465.095 436.413L463.733 429.158C449.832 414.109 418.807 432.326 412.007 435.407C405.208 438.488 405.605 434.985 406.654 432.848C406.935 431.345 412.804 414.557 415.481 406.503C418.204 402.347 421.28 398.387 422.923 395.843C426.844 391.523 458.35 337.541 456.848 337.259C456.988 336.508 455.561 334.996 449.85 328.948C442.712 321.388 407.331 377.366 399.677 382.931C393.554 387.383 394.199 382.422 395.286 379.386C401.813 361.165 432.732 308.24 429.374 303.333C428.511 302.071 428.205 298.369 420.146 296.548C410.074 294.271 376.831 365.815 372.041 372.695C368.21 378.199 367.549 375.223 367.697 373.048C368.613 368.164 389.083 306.669 386.993 301.222C385.772 299.438 384.589 297.038 377.883 297.959C369.501 299.11 350.603 354.289 347.246 368.048C344.561 379.055 342.23 380.978 341.401 380.563C339.391 382.986 338.45 376.251 338.23 372.58C338.488 356.684 345.107 321.37 341.092 317.896L332.287 315.079C326.229 310.054 315.861 377.26 307.709 408.858C297.756 447.436 309.19 438.301 287.614 470.423Z" fill="#60343D"/>
<path d="M283.693 468.521C284.501 470.85 218.919 553.953 184.5 596.5L230 605L288 612.5C311.532 576.856 356.398 512.17 353.055 513.41C349.711 514.65 305.421 484.001 283.693 468.521Z" fill="#A9C2CF"/>
<path d="M339.615 325.785C338.808 328.434 334.129 326.701 331.891 325.504L332.735 314.774C336.172 311.374 340.069 313.685 341.587 315.266C341.266 317.669 340.423 323.137 339.615 325.785Z" fill="#C6A4AA"/>
<path d="M379.952 295.236C378.58 295.912 376.626 303.298 375.82 306.906C377.511 310.334 382.16 310.427 383.052 309.817C383.944 309.206 387.583 300.166 388.005 297.912C388.428 295.658 381.666 294.391 379.952 295.236Z" fill="#C6A4AA"/>
<path d="M421.698 294.506C420.327 295.182 417.136 303.632 415.712 307.772C416.416 310.238 420.478 311.387 423.179 311.505C425.879 311.622 428.39 302.371 430.386 300.023C432.382 297.675 423.412 293.66 421.698 294.506Z" fill="#C6A4AA"/>
<path d="M452.153 327.047C450.181 327.61 446.12 334.341 444.335 337.636C444.054 339.139 449.266 342.449 450.393 342.661C451.52 342.872 457.719 334.701 459.198 333.033C460.677 331.366 454.619 326.342 452.153 327.047Z" fill="#C6A4AA"/>
<path d="M464.862 429.37C461.424 427.792 453.725 432.079 450.305 434.419C448.295 436.842 450.626 440.312 452.043 441.745L464.721 436.344C466.201 434.676 468.299 430.948 464.862 429.37Z" fill="#C6A4AA"/>
<path d="M215.772 586.064C211.884 586.891 205.01 578.473 202.059 574.161L283.692 468.521L303.885 483.195C277.778 518.744 219.66 585.237 215.772 586.064Z" fill="#4F7A8E"/>
<path d="M286.652 496.297C285.874 500.447 283.01 502.226 279.068 501.487C275.126 500.748 271.974 497.841 272.752 493.692C273.53 489.542 277.732 486.848 281.674 487.587C285.616 488.325 287.43 492.148 286.652 496.297Z" fill="#DEE3FE"/>
<path d="M269.326 520.271C268.548 524.42 265.684 526.199 261.742 525.46C257.8 524.721 254.648 521.815 255.426 517.665C256.203 513.516 260.405 510.821 264.348 511.56C268.29 512.299 270.104 516.121 269.326 520.271Z" fill="#DEE3FE"/>
<path d="M252.048 541.92C251.271 546.07 248.407 547.849 244.465 547.11C240.523 546.371 237.371 543.464 238.148 539.315C238.926 535.165 243.128 532.471 247.07 533.21C251.012 533.949 252.826 537.771 252.048 541.92Z" fill="#DEE3FE"/>
<path d="M231.48 564.509C230.702 568.658 227.839 570.437 223.896 569.698C219.954 568.959 216.802 566.053 217.58 561.903C218.358 557.754 222.56 555.059 226.502 555.798C230.444 556.537 232.258 560.359 231.48 564.509Z" fill="#DEE3FE"/>
<path d="M421.607 396.223C421.981 396.98 422.898 397.291 423.655 396.917C424.412 396.544 424.723 395.627 424.35 394.87L421.607 396.223ZM404.526 377.745C403.759 377.393 402.851 377.73 402.499 378.497C402.147 379.264 402.484 380.172 403.251 380.524L404.526 377.745ZM417.07 391.248C417.914 391.716 418.861 392.556 419.723 393.536C420.581 394.511 421.259 395.515 421.607 396.223L424.35 394.87C423.853 393.863 423.005 392.637 422.019 391.516C421.038 390.401 419.825 389.28 418.555 388.575L417.07 391.248ZM412.628 383.466C411.864 382.543 410.559 381.452 409.15 380.457C407.718 379.445 406.063 378.45 404.526 377.745L403.251 380.524C404.579 381.134 406.07 382.025 407.386 382.954C408.724 383.9 409.767 384.805 410.271 385.415L412.628 383.466Z" fill="#F2C98F"/>
<ellipse cx="414.475" cy="386.953" rx="5.73331" ry="6.11554" transform="rotate(10.6163 414.475 386.953)" fill="#2E5D72"/>
<ellipse cx="416.522" cy="382.28" rx="3.05777" ry="2.67555" transform="rotate(10.6163 416.522 382.28)" fill="#8292FB"/>
</svg>
