<svg width="288" height="80" viewBox="0 0 288 80" fill="none" xmlns="http://www.w3.org/2000/svg">
<path d="M17.7167 21.0604H7.4082C8.1883 7.35289 21.4779 0.582721 28.7216 1.27926L17.7167 21.0604Z" fill="#30304C" stroke="#C6A4AA" stroke-width="0.278607"/>
<path d="M40.1447 21.1092H50.4531C49.673 7.40172 36.3835 0.631549 29.1397 1.32808L40.1447 21.1092Z" fill="#30304C" stroke="#C6A4AA" stroke-width="0.278607"/>
<path d="M28.8069 1.51788C25.3501 7.82426 18.2456 20.785 18.1348 21.3393H29.0004L28.8611 1.41895L28.8069 1.51788Z" fill="#A47A82" stroke="#C6A4AA" stroke-width="0.278607"/>
<path d="M29.0544 1.37823C32.5113 7.68461 39.6157 20.6454 39.7266 21.1997H28.8609L29.0002 1.2793L29.0544 1.37823Z" fill="#A47A82" stroke="#C6A4AA" stroke-width="0.278607"/>
<path d="M17.7161 21.4785H7.40767C6.85046 26.8278 9.59009 32.3442 11.0296 34.4337L17.7161 21.4785Z" fill="#30304C" stroke="#C6A4AA" stroke-width="0.278607"/>
<path d="M40.2839 21.6177H50.5923C51.1495 26.9669 48.4099 32.4833 46.9704 34.5729L40.2839 21.6177Z" fill="#30304C" stroke="#C6A4AA" stroke-width="0.278607"/>
<path d="M7.4082 40.5629V25.936C7.4082 28.3878 10.0085 32.7155 11.1694 34.4335L7.4082 40.5629Z" fill="#F2C98F" stroke="#C6A4AA" stroke-width="0.278607"/>
<path d="M50.4531 40.7025V26.0757C50.4531 28.5274 47.8528 32.8551 46.6919 34.5732L50.4531 40.7025Z" fill="#F2C98F" stroke="#C6A4AA" stroke-width="0.278607"/>
<path d="M28.8615 44.3244V21.3394H17.8565L11.1699 34.2946C12.4237 36.5234 12.145 37.22 18.4137 41.3991C21.3207 43.337 24.8681 44.3244 28.8615 44.3244Z" fill="#7699AA" stroke="#C6A4AA" stroke-width="0.278607"/>
<path d="M29.1405 44.3244V21.3394H40.1455L46.832 34.2946C45.5783 36.5234 45.8569 37.22 39.5882 41.3991C36.6813 43.337 33.1339 44.3244 29.1405 44.3244Z" fill="#7699AA" stroke="#C6A4AA" stroke-width="0.278607"/>
<path d="M10.8895 34.5728L7.26758 41.12V48.5031C7.26758 58.9787 18.6905 69.3986 28.9989 69.12V44.1847C19.8049 43.9061 13.9541 38.8912 10.8895 34.5728Z" fill="#DEE3FE" stroke="#C6A4AA" stroke-width="0.278607"/>
<path d="M46.9699 34.7119L50.5918 41.2592V48.6423C50.5918 59.1179 39.1689 69.5378 28.8605 69.2592V44.3239C38.0545 44.0452 43.9052 39.0303 46.9699 34.7119Z" fill="#DEE3FE" stroke="#C6A4AA" stroke-width="0.278607"/>
<path d="M7.40796 22.592C7.40796 22.1712 7.42 21.7532 7.44375 21.3383M7.40796 22.592C7.40796 26.9876 8.72142 31.0764 10.9773 34.4874M7.40796 22.592V41.1194L10.9773 34.4874M29 1C40.925 1 50.592 10.6671 50.592 22.592C50.592 22.9926 50.5811 23.3907 50.5596 23.7859M29 1L29 69.1194M29 1C40.5041 1 49.9069 9.99682 50.5562 21.3383M29 1L39.9415 21.3383M29 1C17.4959 1 8.09307 9.99682 7.44375 21.3383M29 1L18.054 21.3383M29 69.1194C34.7266 69.1194 40.2186 66.8445 44.2679 62.7952C48.3172 58.7459 50.592 53.2539 50.592 47.5274L50.5596 23.7859M29 69.1194C23.2734 69.1194 17.7814 66.8445 13.7321 62.7952C9.68283 58.746 7.40796 53.2539 7.40796 47.5274V21.3383M1 21.3383H7.44375M285.5 21.3383H39.9415M50.5562 21.3383H39.9415M50.5562 21.3383L50.5596 23.7859M39.9415 21.3383H18.054M39.9415 21.3383L47.0187 34.4935M7.44375 21.3383H18.054M18.054 21.3383L10.9773 34.4874M50.5596 23.7859C50.3447 27.7298 49.0713 31.3921 47.0187 34.4935M50.5596 23.7859L50.5833 41.1194L47.0187 34.4935M47.0187 34.4935C43.154 40.3329 36.5267 44.1841 29 44.1841C21.4706 44.1841 14.8414 40.3302 10.9773 34.4874" stroke="#F2C98F" stroke-width="1.7" stroke-linecap="round" stroke-linejoin="round"/>
<path d="M73.0995 67.5236C69.3037 67.5236 66.2714 66.4983 64.0026 64.4476C61.7339 62.3534 60.5995 59.5829 60.5995 56.1361V54.3691C60.5995 53.9328 60.8176 53.7146 61.2539 53.7146H61.8429C62.2792 53.7146 62.4974 53.9328 62.4974 54.3691V56.0707C62.4974 58.9939 63.4573 61.3499 65.377 63.1387C67.2967 64.8839 69.8927 65.7565 73.165 65.7565C76.3063 65.7565 78.7714 64.9276 80.5603 63.2696C82.3927 61.568 83.309 59.2775 83.309 56.3979C83.309 54.609 82.9163 53.0602 82.131 51.7513C81.3456 50.4424 80.1894 49.2425 78.6624 48.1518C77.1353 47.061 74.9974 45.7521 72.2487 44.2251C69.4564 42.698 67.3185 41.4109 65.8351 40.3638C64.3953 39.3167 63.2391 38.0732 62.3665 36.6334C61.5375 35.1936 61.123 33.4048 61.123 31.2669C61.123 27.8638 62.1484 25.246 64.199 23.4135C66.2496 21.581 69.0419 20.6648 72.576 20.6648C76.4154 20.6648 79.4259 21.7119 81.6074 23.8062C83.7889 25.8568 84.8797 28.6273 84.8797 32.1177V33.7538C84.8797 34.1901 84.6615 34.4083 84.2252 34.4083H83.5708C83.1345 34.4083 82.9163 34.1901 82.9163 33.7538V32.2486C82.9163 29.2817 81.9783 26.9039 80.1022 25.1151C78.2697 23.3262 75.7391 22.4318 72.5105 22.4318C69.5873 22.4318 67.2749 23.1953 65.5733 24.7224C63.8717 26.2495 63.021 28.431 63.021 31.2669C63.021 33.0121 63.37 34.4737 64.0681 35.6517C64.8098 36.8298 65.8569 37.8987 67.2095 38.8586C68.562 39.7748 70.6344 40.9964 73.4267 42.5235C76.35 44.1378 78.6187 45.5776 80.233 46.8429C81.891 48.0645 83.1345 49.4171 83.9634 50.9005C84.836 52.3403 85.2723 54.0855 85.2723 56.1361C85.2723 59.5829 84.1816 62.3534 82.0001 64.4476C79.8622 66.4983 76.8953 67.5236 73.0995 67.5236ZM104.268 67.5236C101.476 67.5236 99.1418 66.6946 97.2657 65.0366C95.3896 63.3787 94.277 61.1972 93.928 58.4921C93.6662 56.1361 93.5353 53.4965 93.5353 50.5733C93.5353 48.3917 93.6662 45.7739 93.928 42.7198C94.277 40.0148 95.3896 37.8333 97.2657 36.1753C99.1418 34.5174 101.476 33.6884 104.268 33.6884C107.017 33.6884 109.351 34.4737 111.271 36.0444C113.191 37.5715 114.325 39.4476 114.674 41.6727C114.674 41.8036 114.696 41.8909 114.74 41.9345C114.74 42.109 114.783 42.3708 114.87 42.7198C114.87 43.1561 114.652 43.3743 114.216 43.3743H113.627C113.147 43.3743 112.907 43.1998 112.907 42.8507C112.907 42.5453 112.885 42.349 112.842 42.2617C112.623 40.3856 111.707 38.7931 110.093 37.4842C108.522 36.1753 106.581 35.5209 104.268 35.5209C101.912 35.5209 99.9707 36.2408 98.4437 37.6806C96.9166 39.0767 96.044 40.931 95.8259 43.2434C95.6514 44.945 95.5641 47.3883 95.5641 50.5733C95.5641 53.8455 95.6514 56.3324 95.8259 58.034C96.044 60.3028 96.9166 62.1571 98.4437 63.5968C99.9707 64.993 101.912 65.6911 104.268 65.6911C106.624 65.6911 108.588 65.0366 110.158 63.7277C111.773 62.3752 112.667 60.7827 112.842 58.9502V58.6885C112.885 58.2958 113.125 58.0995 113.562 58.0995H114.216C114.434 58.0995 114.587 58.1649 114.674 58.2958C114.805 58.4267 114.849 58.6012 114.805 58.8194C114.761 58.9066 114.74 59.0593 114.74 59.2775C114.696 59.3211 114.674 59.4084 114.674 59.5392C114.412 61.7644 113.3 63.6623 111.336 65.233C109.417 66.76 107.061 67.5236 104.268 67.5236ZM133.016 33.6884C136.288 33.6884 138.753 34.6701 140.411 36.6334C142.069 38.5532 142.898 41.1928 142.898 44.5523V66.3455C142.898 66.7818 142.68 67 142.244 67H141.589C141.153 67 140.935 66.7818 140.935 66.3455V63.2042C140.935 63.0733 140.891 63.0078 140.804 63.0078C140.717 62.9642 140.651 63.0078 140.608 63.1387C139.648 64.5785 138.339 65.6693 136.681 66.411C135.023 67.1527 133.191 67.5236 131.184 67.5236C128.566 67.5236 126.341 66.8255 124.508 65.4293C122.719 64.0332 121.825 61.7426 121.825 58.5576C121.825 55.2417 122.872 52.7111 124.966 50.9659C127.104 49.2207 130.006 48.3481 133.671 48.3481H140.673C140.848 48.3481 140.935 48.2609 140.935 48.0863V44.4214C140.935 41.7163 140.259 39.5566 138.906 37.9423C137.597 36.328 135.59 35.5209 132.885 35.5209C130.791 35.5209 129.024 36.0444 127.584 37.0915C126.144 38.095 125.272 39.4694 124.966 41.2146C124.879 41.6945 124.639 41.8909 124.246 41.8036L123.527 41.6727C123.09 41.5854 122.894 41.3673 122.938 41.0183C123.287 38.7931 124.377 37.0261 126.21 35.7172C128.086 34.3647 130.355 33.6884 133.016 33.6884ZM131.38 65.6911C133.998 65.6911 136.245 64.993 138.121 63.5968C139.997 62.2007 140.935 60.1719 140.935 57.5104V50.3769C140.935 50.2024 140.848 50.1151 140.673 50.1151H133.736C130.726 50.1151 128.304 50.835 126.472 52.2748C124.683 53.7146 123.788 55.7871 123.788 58.4921C123.788 60.9354 124.486 62.7461 125.883 63.9241C127.279 65.1021 129.111 65.6911 131.38 65.6911ZM163.205 33.9502C164.514 33.9502 165.605 34.1901 166.478 34.6701C166.652 34.7137 166.761 34.8228 166.805 34.9973C166.892 35.1718 166.892 35.3463 166.805 35.5209L166.543 36.3062C166.412 36.7425 166.129 36.8516 165.692 36.6334C164.907 36.2844 163.969 36.1099 162.878 36.1099C160.609 36.1535 158.733 37.157 157.25 39.1203C155.766 41.0401 155.025 43.4179 155.025 46.2539V66.3455C155.025 66.7818 154.806 67 154.37 67H153.716C153.279 67 153.061 66.7818 153.061 66.3455V34.8664C153.061 34.4301 153.279 34.212 153.716 34.212H154.37C154.806 34.212 155.025 34.4301 155.025 34.8664V39.513C155.025 39.6439 155.046 39.7094 155.09 39.7094C155.177 39.7094 155.265 39.6657 155.352 39.5785C156.137 37.7896 157.184 36.4153 158.493 35.4554C159.846 34.4519 161.416 33.9502 163.205 33.9502ZM182.739 33.6884C186.011 33.6884 188.477 34.6701 190.134 36.6334C191.792 38.5532 192.621 41.1928 192.621 44.5523V66.3455C192.621 66.7818 192.403 67 191.967 67H191.312C190.876 67 190.658 66.7818 190.658 66.3455V63.2042C190.658 63.0733 190.614 63.0078 190.527 63.0078C190.44 62.9642 190.374 63.0078 190.331 63.1387C189.371 64.5785 188.062 65.6693 186.404 66.411C184.746 67.1527 182.914 67.5236 180.907 67.5236C178.289 67.5236 176.064 66.8255 174.231 65.4293C172.442 64.0332 171.548 61.7426 171.548 58.5576C171.548 55.2417 172.595 52.7111 174.689 50.9659C176.827 49.2207 179.729 48.3481 183.394 48.3481H190.396C190.571 48.3481 190.658 48.2609 190.658 48.0863V44.4214C190.658 41.7163 189.982 39.5566 188.629 37.9423C187.32 36.328 185.313 35.5209 182.608 35.5209C180.514 35.5209 178.747 36.0444 177.307 37.0915C175.867 38.095 174.995 39.4694 174.689 41.2146C174.602 41.6945 174.362 41.8909 173.969 41.8036L173.25 41.6727C172.813 41.5854 172.617 41.3673 172.661 41.0183C173.01 38.7931 174.1 37.0261 175.933 35.7172C177.809 34.3647 180.078 33.6884 182.739 33.6884ZM181.103 65.6911C183.721 65.6911 185.968 64.993 187.844 63.5968C189.72 62.2007 190.658 60.1719 190.658 57.5104V50.3769C190.658 50.2024 190.571 50.1151 190.396 50.1151H183.459C180.449 50.1151 178.027 50.835 176.195 52.2748C174.406 53.7146 173.511 55.7871 173.511 58.4921C173.511 60.9354 174.209 62.7461 175.606 63.9241C177.002 65.1021 178.834 65.6911 181.103 65.6911ZM223.4 42.9162C223.661 44.0942 223.858 45.4903 223.989 47.1047C224.119 48.719 224.185 50.1151 224.185 51.2932C224.185 53.8237 223.836 56.3979 223.138 59.0157C222.352 62.1571 221.153 64.3604 219.538 65.6257C217.924 66.8909 215.742 67.5236 212.994 67.5236C209.242 67.5236 206.58 66.0401 205.009 63.0733C204.966 62.986 204.9 62.9424 204.813 62.9424C204.769 62.9424 204.748 63.0078 204.748 63.1387V66.3455C204.748 66.7818 204.529 67 204.093 67H203.439C203.002 67 202.784 66.7818 202.784 66.3455V21.8428C202.784 21.4065 203.002 21.1884 203.439 21.1884H204.093C204.529 21.1884 204.748 21.4065 204.748 21.8428V38.1387C204.748 38.2696 204.769 38.3568 204.813 38.4004C204.9 38.4004 204.966 38.335 205.009 38.2041C205.62 36.7643 206.515 35.6736 207.693 34.9319C208.871 34.1465 210.485 33.7538 212.536 33.7538C215.546 33.7538 217.946 34.4737 219.735 35.9135C221.523 37.3533 222.745 39.6875 223.4 42.9162ZM220.782 60.3246C221.654 57.9686 222.091 54.7399 222.091 50.6387C222.091 46.4502 221.523 43.0471 220.389 40.4292C218.906 37.1134 216.462 35.4554 213.059 35.4554C211.314 35.4554 209.918 35.8917 208.871 36.7643C207.824 37.6369 206.973 38.924 206.318 40.6256C205.358 43.0252 204.879 46.3629 204.879 50.6387C204.879 54.8272 205.315 58.0995 206.187 60.4555C206.842 62.2443 207.714 63.5968 208.805 64.5131C209.896 65.3857 211.358 65.822 213.19 65.822C215.197 65.822 216.768 65.3639 217.902 64.4476C219.08 63.5314 220.04 62.1571 220.782 60.3246ZM242.954 65.6911C244.961 65.6911 246.685 65.1675 248.125 64.1204C249.608 63.0733 250.633 61.6771 251.2 59.9319C251.331 59.5392 251.593 59.3865 251.986 59.4738L252.575 59.5392C252.749 59.5829 252.88 59.6701 252.967 59.801C253.098 59.9319 253.142 60.1064 253.098 60.3246C252.488 62.5061 251.266 64.2513 249.433 65.5602C247.601 66.8691 245.419 67.5236 242.889 67.5236C240.14 67.5236 237.828 66.7164 235.952 65.1021C234.119 63.4441 233.028 61.3063 232.679 58.6885C232.461 57.1614 232.352 55.198 232.352 52.7984V50.5733C232.352 46.8647 232.439 44.2687 232.614 42.7853C232.876 40.1238 233.945 37.9423 235.821 36.2408C237.697 34.5392 240.053 33.6884 242.889 33.6884C245.856 33.6884 248.277 34.561 250.153 36.3062C252.029 38.0078 253.098 40.2547 253.36 43.0471C253.491 44.3996 253.556 47.0174 253.556 50.9005C253.556 51.3368 253.338 51.5549 252.902 51.5549H234.577C234.403 51.5549 234.316 51.6422 234.316 51.8167C234.316 54.8708 234.337 56.9214 234.381 57.9686C234.599 60.281 235.472 62.1571 236.999 63.5968C238.57 64.993 240.555 65.6911 242.954 65.6911ZM242.954 35.4554C240.555 35.4554 238.591 36.1753 237.064 37.6151C235.537 39.0113 234.643 40.8655 234.381 43.1779C234.337 44.2687 234.316 46.1884 234.316 48.9371C234.316 49.1116 234.403 49.1989 234.577 49.1989H251.331C251.506 49.1989 251.593 49.1116 251.593 48.9371C251.593 46.1884 251.549 44.2687 251.462 43.1779C251.2 40.9092 250.284 39.0549 248.714 37.6151C247.186 36.1753 245.267 35.4554 242.954 35.4554ZM241.515 29.7617C241.253 29.7617 241.078 29.6962 240.991 29.5653C240.904 29.3908 240.926 29.1945 241.056 28.9763L245.114 21.6465C245.245 21.3411 245.507 21.1884 245.899 21.1884H246.488C246.75 21.1884 246.925 21.2756 247.012 21.4501C247.099 21.581 247.077 21.7556 246.947 21.9737L242.693 29.3036C242.474 29.609 242.213 29.7617 241.907 29.7617H241.515ZM272.993 65.6911C275 65.6911 276.723 65.1675 278.163 64.1204C279.646 63.0733 280.672 61.6771 281.239 59.9319C281.37 59.5392 281.631 59.3865 282.024 59.4738L282.613 59.5392C282.788 59.5829 282.919 59.6701 283.006 59.801C283.137 59.9319 283.18 60.1064 283.137 60.3246C282.526 62.5061 281.304 64.2513 279.472 65.5602C277.639 66.8691 275.458 67.5236 272.927 67.5236C270.179 67.5236 267.866 66.7164 265.99 65.1021C264.158 63.4441 263.067 61.3063 262.718 58.6885C262.5 57.1614 262.391 55.198 262.391 52.7984V50.5733C262.391 46.8647 262.478 44.2687 262.652 42.7853C262.914 40.1238 263.983 37.9423 265.859 36.2408C267.735 34.5392 270.091 33.6884 272.927 33.6884C275.894 33.6884 278.316 34.561 280.192 36.3062C282.068 38.0078 283.137 40.2547 283.398 43.0471C283.529 44.3996 283.595 47.0174 283.595 50.9005C283.595 51.3368 283.377 51.5549 282.94 51.5549H264.616C264.441 51.5549 264.354 51.6422 264.354 51.8167C264.354 54.8708 264.376 56.9214 264.419 57.9686C264.638 60.281 265.51 62.1571 267.037 63.5968C268.608 64.993 270.593 65.6911 272.993 65.6911ZM272.993 35.4554C270.593 35.4554 268.63 36.1753 267.103 37.6151C265.576 39.0113 264.681 40.8655 264.419 43.1779C264.376 44.2687 264.354 46.1884 264.354 48.9371C264.354 49.1116 264.441 49.1989 264.616 49.1989H281.37C281.544 49.1989 281.631 49.1116 281.631 48.9371C281.631 46.1884 281.588 44.2687 281.501 43.1779C281.239 40.9092 280.323 39.0549 278.752 37.6151C277.225 36.1753 275.305 35.4554 272.993 35.4554Z" fill="#F2C98F"/>
</svg>
