<svg width="288" height="507" viewBox="0 0 288 507" fill="none" xmlns="http://www.w3.org/2000/svg">
<path d="M205.894 371.457L206.351 371.759L205.894 371.457ZM122.878 228.551L122.524 228.969L122.878 228.551ZM57.0906 136.503L56.7703 136.948L56.8047 136.972L56.8425 136.992L57.0906 136.503ZM59.4402 137.736L59.1786 138.218L59.4402 137.736ZM209.094 360.492L208.547 360.467L209.094 360.492ZM217.643 264.161L217.109 264.036L217.096 264.092L217.095 264.15L217.643 264.161ZM227.824 248.498L227.651 247.977L227.824 248.498ZM238.789 345.612L239.271 345.872L239.279 345.857L239.286 345.842L238.789 345.612ZM195.738 443.51L195.19 443.539L195.738 443.51ZM226.258 419.231L225.991 418.752L226.258 419.231ZM208.646 364.408L209.184 364.511L208.646 364.408ZM182.4 331.515L181.879 331.341L182.4 331.515ZM165.701 273.926C165.97 274.065 166.301 273.959 166.44 273.69C166.579 273.421 166.473 273.091 166.204 272.952L165.701 273.926ZM151.072 255.98L150.667 256.349L151.072 255.98ZM103.334 181.144L103.8 180.856L103.334 181.144ZM71.9711 134.936L72.4172 135.255L71.9711 134.936ZM35.9447 99.6932L36.0522 99.1556L35.9447 99.6932ZM63.9345 59.751L64.4676 59.8788L63.9345 59.751ZM123.232 228.132C109.959 216.91 96.8409 208.295 85.313 204.084C73.7963 199.877 63.7128 200.02 56.7154 206.589L57.4658 207.389C64.0131 201.242 73.5717 200.963 84.9368 205.114C96.2907 209.261 109.294 217.784 122.524 228.969L123.232 228.132ZM59.7017 137.254C58.9221 136.831 58.1344 136.418 57.3387 136.014L56.8425 136.992C57.6292 137.391 58.4079 137.8 59.1786 138.218L59.7017 137.254ZM218.176 264.287C218.689 262.106 219.809 258.708 221.491 255.633C223.187 252.533 225.385 249.888 227.997 249.018L227.651 247.977C224.624 248.986 222.254 251.955 220.529 255.107C218.791 258.284 217.64 261.779 217.109 264.036L218.176 264.287ZM227.997 249.018C231.541 247.837 236.861 245.762 241.404 243.241C243.674 241.981 245.771 240.598 247.358 239.145C248.931 237.704 250.075 236.128 250.296 234.473L249.21 234.328C249.04 235.598 248.128 236.953 246.617 238.336C245.12 239.708 243.105 241.043 240.872 242.282C236.408 244.76 231.156 246.809 227.651 247.977L227.997 249.018ZM202.085 380.268C203.303 377.084 204.72 374.23 206.351 371.759L205.436 371.155C203.753 373.706 202.302 376.633 201.061 379.876L202.085 380.268ZM202.008 380.405C203.889 377.944 207.223 374.009 211.099 370.224C214.983 366.43 219.37 362.829 223.355 360.99L222.895 359.995C218.735 361.915 214.241 365.623 210.333 369.44C206.416 373.265 203.047 377.24 201.137 379.739L202.008 380.405ZM223.355 360.99C231.645 357.164 237.411 349.326 239.271 345.872L238.306 345.352C236.511 348.685 230.895 356.303 222.895 359.995L223.355 360.99ZM239.286 345.842C240.061 344.164 241.418 341.566 242.965 339.239C243.739 338.075 244.553 336.99 245.358 336.125C246.171 335.25 246.937 334.641 247.607 334.373L247.2 333.355C246.304 333.714 245.405 334.463 244.555 335.378C243.695 336.302 242.845 337.44 242.052 338.632C240.467 341.016 239.083 343.666 238.291 345.382L239.286 345.842ZM209.56 534.233C204.446 512.395 198.072 476.782 196.285 443.48L195.19 443.539C196.982 476.922 203.368 512.601 208.493 534.483L209.56 534.233ZM196.133 443.889C199.234 440.655 205.327 435.445 211.416 430.613C217.511 425.776 223.544 421.366 226.524 419.71L225.991 418.752C222.922 420.457 216.823 424.923 210.735 429.754C204.641 434.589 198.498 439.838 195.342 443.13L196.133 443.889ZM226.524 419.71C230.165 417.688 233.422 413.944 236.214 409.642C239.012 405.329 241.376 400.401 243.211 395.944L242.198 395.527C240.378 399.946 238.043 404.808 235.294 409.045C232.538 413.292 229.399 416.858 225.991 418.752L226.524 419.71ZM196.285 443.48C196.087 439.795 195.946 436.139 195.868 432.533L194.772 432.557C194.85 436.175 194.992 439.843 195.19 443.539L196.285 443.48ZM195.868 432.533C195.431 412.156 197.042 393.444 202.085 380.268L201.061 379.876C195.939 393.257 194.334 412.145 194.772 432.557L195.868 432.533ZM195.787 432.258C192.995 427.711 189.187 420.56 186.078 413.825C184.524 410.458 183.149 407.204 182.163 404.437C181.169 401.647 180.598 399.424 180.598 398.085H179.502C179.502 399.634 180.138 402.02 181.13 404.805C182.131 407.614 183.521 410.901 185.083 414.285C188.206 421.051 192.034 428.242 194.853 432.832L195.787 432.258ZM180.598 398.085C180.598 387.707 174.74 379.733 171.108 374.286L170.196 374.894C173.873 380.41 179.502 388.1 179.502 398.085H180.598ZM206.351 371.759C207.74 369.655 208.669 367.22 209.184 364.511L208.107 364.306C207.615 366.896 206.733 369.19 205.436 371.155L206.351 371.759ZM209.184 364.511C209.426 363.239 209.577 361.906 209.642 360.518L208.547 360.467C208.484 361.809 208.339 363.09 208.107 364.306L209.184 364.511ZM208.98 363.974C203.563 359.798 196.25 353.948 190.685 347.979C187.901 344.994 185.577 342.002 184.143 339.195C182.705 336.38 182.204 333.835 182.92 331.688L181.879 331.341C181.029 333.893 181.671 336.766 183.167 339.694C184.667 342.63 187.068 345.708 189.883 348.727C195.515 354.767 202.891 360.665 208.311 364.842L208.98 363.974ZM182.92 331.688C184.161 327.963 183.878 322.496 183.155 317.292C182.428 312.061 181.236 306.978 180.586 303.987L179.514 304.22C180.169 307.233 181.349 312.264 182.069 317.443C182.793 322.648 183.032 327.884 181.879 331.341L182.92 331.688ZM209.642 360.518C210.123 350.181 205.824 336.641 198.419 321.871L197.439 322.362C204.822 337.089 209.014 350.42 208.547 360.467L209.642 360.518ZM198.199 321.639C194.036 319.285 187.517 315.793 181.485 312.966C178.47 311.553 175.567 310.301 173.135 309.441C171.92 309.011 170.812 308.675 169.862 308.466C168.923 308.261 168.089 308.167 167.442 308.26L167.597 309.345C168.046 309.281 168.724 309.339 169.627 309.537C170.517 309.733 171.578 310.053 172.77 310.474C175.153 311.318 178.019 312.552 181.02 313.959C187.019 316.771 193.513 320.249 197.659 322.594L198.199 321.639ZM167.442 308.26C166.426 308.405 164.818 308.314 162.83 308.046C160.857 307.78 158.562 307.348 156.201 306.837C151.478 305.816 146.518 304.488 143.394 303.577L143.087 304.63C146.229 305.546 151.215 306.881 155.969 307.909C158.345 308.423 160.671 308.862 162.683 309.133C164.68 309.402 166.419 309.513 167.597 309.345L167.442 308.26ZM198.419 321.871C193.622 312.302 187.506 302.189 180.501 292.054L179.599 292.678C186.581 302.779 192.669 312.848 197.439 322.362L198.419 321.871ZM180.597 292.336C180.337 287.647 180.181 280.619 180.558 274.773C180.747 271.845 181.067 269.244 181.563 267.388C181.813 266.456 182.096 265.751 182.403 265.292C182.711 264.831 182.976 264.709 183.183 264.709V263.613C182.45 263.613 181.895 264.079 181.492 264.683C181.087 265.289 180.766 266.127 180.504 267.104C179.979 269.067 179.654 271.755 179.464 274.703C179.083 280.609 179.241 287.684 179.503 292.396L180.597 292.336ZM183.183 264.709C184.378 264.709 185.445 263.89 186.353 262.798C187.278 261.686 188.139 260.169 188.907 258.519C190.448 255.214 191.672 251.262 192.33 248.631L191.266 248.365C190.618 250.954 189.415 254.834 187.914 258.056C187.162 259.669 186.348 261.089 185.51 262.097C184.654 263.127 183.868 263.613 183.183 263.613V264.709ZM166.204 272.952C162.13 270.849 154.934 267.734 147.728 265.535C144.124 264.435 140.503 263.56 137.26 263.158C134.033 262.758 131.111 262.817 128.946 263.649L129.34 264.673C131.248 263.939 133.952 263.853 137.125 264.246C140.283 264.637 143.838 265.494 147.408 266.583C154.547 268.762 161.682 271.852 165.701 273.926L166.204 272.952ZM128.946 263.649C120.97 266.717 112.294 264.925 108.977 263.649L108.584 264.673C112.055 266.008 121.026 267.87 129.34 264.673L128.946 263.649ZM180.501 292.054C171.908 279.623 161.972 267.154 151.478 255.611L150.667 256.349C161.129 267.857 171.035 280.288 179.599 292.678L180.501 292.054ZM151.478 255.611C142.317 245.534 132.727 236.16 123.232 228.132L122.524 228.969C131.978 236.962 141.533 246.302 150.667 256.349L151.478 255.611ZM151.621 255.98C151.621 253.371 151.738 249.162 152.088 245.025C152.441 240.865 153.025 236.859 153.931 234.605L152.913 234.196C151.939 236.622 151.348 240.784 150.996 244.932C150.642 249.105 150.524 253.346 150.524 255.98H151.621ZM153.931 234.605C154.439 233.338 154.626 231.7 154.616 229.922C154.606 228.134 154.397 226.158 154.081 224.191C153.449 220.257 152.384 216.309 151.594 213.869L150.551 214.206C151.327 216.604 152.377 220.497 152.998 224.365C153.309 226.299 153.51 228.215 153.52 229.928C153.529 231.65 153.344 233.123 152.913 234.196L153.931 234.605ZM123.42 228.47C123.161 226.717 122.81 223.808 122.602 220.793C122.394 217.768 122.333 214.68 122.637 212.549L121.552 212.394C121.23 214.648 121.299 217.834 121.509 220.869C121.718 223.914 122.073 226.852 122.335 228.631L123.42 228.47ZM122.637 212.549C122.978 210.163 122.05 207.998 120.815 206.295C119.58 204.592 117.998 203.292 116.903 202.608L116.322 203.538C117.315 204.159 118.787 205.366 119.928 206.939C121.069 208.512 121.838 210.393 121.552 212.394L122.637 212.549ZM123.415 228.441C121.134 217.231 114.938 198.928 103.8 180.856L102.867 181.432C113.934 199.39 120.084 217.571 122.341 228.66L123.415 228.441ZM103.246 180.603C97.6615 181.511 88.9744 182.171 81.0769 181.207C77.1281 180.725 73.4048 179.839 70.3727 178.395C67.3423 176.951 65.0403 174.969 63.857 172.306L62.8551 172.752C64.178 175.728 66.7216 177.87 69.9011 179.385C73.0789 180.899 76.9297 181.805 80.944 182.295C88.9729 183.276 97.7684 182.604 103.422 181.685L103.246 180.603ZM103.8 180.856C102.83 179.281 101.821 177.708 100.774 176.14L99.8626 176.749C100.902 178.305 101.903 179.867 102.867 181.432L103.8 180.856ZM100.863 176.382C100.575 173.888 99.986 169.877 99.1538 165.935C98.3264 162.016 97.2432 158.086 95.9425 155.81L94.9905 156.354C96.196 158.464 97.2522 162.236 98.081 166.161C98.905 170.065 99.489 174.042 99.7739 176.508L100.863 176.382ZM95.9425 155.81C94.7675 153.754 94.5024 151.075 94.682 148.504C94.8608 145.943 95.4752 143.565 95.9817 142.172L94.9513 141.798C94.4135 143.276 93.7748 145.754 93.5882 148.428C93.4022 151.09 93.6593 154.025 94.9905 156.354L95.9425 155.81ZM100.774 176.14C94.5333 166.797 86.9279 157.68 77.8112 149.826L77.0955 150.656C86.1239 158.435 93.666 167.472 99.8626 176.749L100.774 176.14ZM77.417 149.694C72.5982 150.014 65.2155 150.299 58.7314 150.113C55.4873 150.02 52.485 149.81 50.1466 149.432C48.9765 149.243 47.9898 149.014 47.2291 148.745C46.4499 148.469 45.9856 148.176 45.771 147.908L44.9148 148.593C45.3268 149.108 46.034 149.485 46.8629 149.778C47.7104 150.079 48.7686 150.32 49.9716 150.514C52.3797 150.904 55.4372 151.116 58.7 151.209C65.2297 151.396 72.6492 151.109 77.4897 150.788L77.417 149.694ZM77.8112 149.826C75.5439 147.872 73.1831 145.997 70.7265 144.215L70.0828 145.103C72.5137 146.866 74.8505 148.722 77.0955 150.656L77.8112 149.826ZM70.7265 144.215C67.246 141.691 63.5732 139.356 59.7017 137.254L59.1786 138.218C63.0062 140.296 66.6389 142.605 70.0828 145.103L70.7265 144.215ZM70.8989 144.422C70.316 143.208 70.2386 141.546 70.5547 139.834C70.8692 138.13 71.5592 136.456 72.4172 135.255L71.5249 134.618C70.562 135.966 69.8162 137.794 69.4764 139.635C69.1382 141.467 69.188 143.392 69.9105 144.896L70.8989 144.422ZM72.4172 135.255C74.4402 132.423 75.6655 128.767 75.2572 124.99C74.8473 121.198 72.7966 117.344 68.3776 114.13L67.7327 115.017C71.9287 118.069 73.7939 121.655 74.1671 125.108C74.542 128.575 73.4178 131.968 71.5249 134.618L72.4172 135.255ZM57.4109 136.058C54.1105 133.681 48.5373 130.479 42.5122 128.579C36.506 126.684 29.9241 126.044 24.7114 128.976L25.249 129.932C30.061 127.225 36.271 127.76 42.1823 129.624C48.0746 131.483 53.5442 134.625 56.7703 136.948L57.4109 136.058ZM59.9859 137.684C59.8283 136.045 59.6834 134.33 59.5539 132.547L58.4603 132.627C58.5905 134.418 58.736 136.142 58.8944 137.789L59.9859 137.684ZM59.5002 132.347C56.9554 127.113 52.7457 119.183 48.3828 112.397C46.2022 109.006 43.9738 105.886 41.8881 103.53C40.8453 102.351 39.8285 101.353 38.8619 100.605C37.902 99.8614 36.9547 99.3361 36.0522 99.1556L35.8372 100.231C36.5012 100.364 37.2907 100.775 38.1907 101.472C39.0842 102.163 40.0506 103.108 41.067 104.256C43.0996 106.553 45.2933 109.62 47.4605 112.991C51.7932 119.728 55.9819 127.618 58.5141 132.826L59.5002 132.347ZM36.0522 99.1556C34.0881 98.7628 32.1739 98.4192 30.3265 98.0889C28.4771 97.7582 26.6964 97.4411 24.9898 97.0998C21.5738 96.4166 18.4858 95.6422 15.798 94.4902L15.3661 95.498C18.1605 96.6956 21.338 97.4876 24.7748 98.1749C26.4946 98.5189 28.2872 98.8381 30.1335 99.1682C31.9817 99.4987 33.8855 99.8404 35.8372 100.231L36.0522 99.1556ZM59.533 93.042C58.4142 89.24 55.9079 83.5498 52.0067 78.7981C48.1059 74.0469 42.7513 70.1673 35.9447 70.1673V71.2637C42.2956 71.2637 47.3696 74.8779 51.1593 79.4939C54.9487 84.1094 57.3948 89.6598 58.4812 93.3515L59.533 93.042ZM59.5539 132.547C58.987 124.744 58.7134 115.642 58.9493 105.972L57.8532 105.945C57.6164 115.651 57.8909 124.789 58.4603 132.627L59.5539 132.547ZM58.9493 105.972C59.0508 101.812 59.2467 97.5469 59.5539 93.2357L58.4603 93.1578C58.1517 97.4871 57.9551 101.769 57.8532 105.945L58.9493 105.972ZM58.8633 106.254C60.846 103.149 64.3693 98.4455 68.4786 94.4472C70.5328 92.4486 72.7222 90.6371 74.9284 89.2895C77.1382 87.9398 79.3343 87.0741 81.4083 86.926L81.3302 85.8323C79.0183 85.9974 76.6507 86.9527 74.3568 88.3538C72.0593 89.7572 69.8053 91.6266 67.714 93.6614C63.5326 97.7298 59.9577 102.503 57.9392 105.664L58.8633 106.254ZM59.5539 93.2357C60.0099 86.8392 60.7111 80.3417 61.7134 73.9329L60.6301 73.7635C59.6224 80.2064 58.9181 86.7347 58.4603 93.1578L59.5539 93.2357ZM61.62 74.1639C63.5239 71.4604 67.0903 67.3086 71.575 63.682C76.0667 60.0496 81.4232 56.9898 86.912 56.38L86.7909 55.2902C81.002 55.9334 75.449 59.139 70.8855 62.8294C66.3149 66.5256 62.6804 70.7538 60.7235 73.5326L61.62 74.1639ZM61.7134 73.9329C62.4579 69.1725 63.3684 64.462 64.4676 59.8788L63.4014 59.6231C62.2945 64.2381 61.3786 68.9777 60.6301 73.7635L61.7134 73.9329ZM64.4779 59.6783C64.011 56.1869 61.3325 47.8464 54.305 42.0967L53.6107 42.9453C60.3673 48.4734 62.9503 56.5275 63.3911 59.8237L64.4779 59.6783ZM64.4676 59.8788C66.405 51.8013 68.9271 44.1255 72.1561 37.2724L71.1643 36.8051C67.8958 43.7417 65.3516 51.4919 63.4014 59.6231L64.4676 59.8788ZM72.1561 37.2724C78.6494 23.4915 87.9715 13.0942 101.098 9.37167L100.799 8.31681C87.2516 12.1587 77.7312 22.868 71.1643 36.8051L72.1561 37.2724ZM72.0706 36.6753C70.4828 34.8822 68.6113 32.0324 68.0717 29.2967C67.804 27.939 67.8717 26.6499 68.4204 25.5327C68.9654 24.4228 70.02 23.411 71.8652 22.6667L71.4551 21.6499C69.4167 22.472 68.125 23.6466 67.4362 25.0494C66.7509 26.4448 66.6974 27.9948 66.996 29.5088C67.5892 32.5164 69.6012 35.5405 71.2497 37.4022L72.0706 36.6753ZM209.602 360.698C210.454 358.596 211.618 353.791 212.824 345.693L211.74 345.531C210.534 353.629 209.384 358.317 208.586 360.286L209.602 360.698ZM212.824 345.693C215.024 330.916 217.382 305.033 218.191 264.172L217.095 264.15C216.286 304.984 213.93 330.817 211.74 345.531L212.824 345.693ZM212.799 345.795C215.375 338.527 220.572 327.141 227.773 316.642C234.985 306.128 244.15 296.588 254.635 292.883L254.27 291.849C243.452 295.671 234.122 305.448 226.869 316.022C219.606 326.611 214.369 338.084 211.765 345.429L212.799 345.795Z" fill="#A47A82"/>
<path d="M118.941 8.06006C118.941 12.3854 114.091 21.3741 103.277 21.3741C94.6625 21.3741 89.9824 18.6507 89.9824 14.3254C89.9824 9.99996 89.9648 2.68971 101.711 1.01143C112.676 -0.555023 118.941 3.73467 118.941 8.06006Z" fill="#7699AA"/>
<path d="M78.2418 19.8083C78.2418 24.0647 73.5228 33.9055 68.8436 33.9055C65.1158 33.9055 64.1445 32.7933 64.1445 28.5369C64.1445 24.2804 64.8147 17.5441 69.8975 15.8926C74.6421 14.3511 78.2418 15.5518 78.2418 19.8083Z" fill="#7699AA"/>
<path d="M92.2922 81.5485C93.7953 85.6043 92.3711 95.7183 82.2315 99.4761C74.1534 102.47 68.8186 101.543 67.3155 97.4868C65.8124 93.4309 63.2555 86.5824 73.6866 80.9268C83.4234 75.6477 90.7891 77.4927 92.2922 81.5485Z" fill="#7699AA"/>
<path d="M3.06249 94.9926C4.50558 90.915 16.1037 85.6462 26.2976 89.2539C34.419 92.1281 37.9223 96.2569 36.4792 100.334C35.0362 104.412 28.7893 109.077 17.1561 106.74C6.29713 104.559 1.61941 99.0701 3.06249 94.9926Z" fill="#7699AA"/>
<path d="M10.1122 130.236C11.5553 126.159 21.8408 119.579 32.0347 123.187C36.4655 124.755 41.4275 125.538 41.4275 131.02C41.4283 135.72 35.7377 139.51 24.0989 139.51C12.46 139.51 8.66916 134.314 10.1122 130.236Z" fill="#7699AA"/>
<path d="M35.9374 148.25C37.044 145.123 49.5543 140.609 57.8664 143.551C61.4793 144.83 63.2695 145.583 63.3532 149.817C63.4257 153.446 58.2975 156.542 48.8702 156.364C39.4428 156.186 34.8308 151.377 35.9374 148.25Z" fill="#7699AA"/>
<path d="M51.6053 31.5513C55.7351 30.2654 61.1256 29.9349 64.3405 40.2594C66.9018 48.4849 65.1159 53.4835 61.0059 55.8331C55.5261 58.9657 48.0866 60.2809 42.992 49.5646C38.2366 39.5616 47.4755 32.8373 51.6053 31.5513Z" fill="#7699AA"/>
<path d="M35.1654 64.8476C39.2953 63.5617 50.7493 61.5709 53.9642 71.8954C56.5255 80.1209 54.9415 82.8599 50.8315 85.2095C45.3517 88.3422 34.2408 87.5602 31.2625 81.2948C26.5071 71.2917 31.0356 66.1336 35.1654 64.8476Z" fill="#7699AA"/>
<path d="M57.468 102.856C62.2555 101.366 77.5241 100.826 80.5853 110.657C83.6464 120.488 81.4231 125.911 76.6694 128.67C70.3314 132.348 56.6246 129.92 53.0986 122.421C47.4688 110.449 52.6804 104.347 57.468 102.856Z" fill="#7699AA"/>
<path d="M58.6528 164.694C63.4403 163.203 75.8822 162.342 87.6305 171.742C99.3788 181.142 90.0351 185.432 85.2815 188.191C78.9435 191.869 59.0492 190.99 55.5232 183.491C49.8934 171.519 51.6098 166.887 58.6528 164.694Z" fill="#7699AA"/>
<path d="M102.517 251.629C107.304 250.138 119.741 246.145 131.49 255.545C143.238 264.945 132.397 271.527 127.643 274.285C121.305 277.964 101.338 280.274 97.8125 272.775C92.1827 260.803 95.4736 253.823 102.517 251.629Z" fill="#7699AA"/>
<path d="M99.3863 194.457C102.521 190.073 116.623 190.541 119.756 196.023C122.889 201.505 129.41 210.65 124.455 215.602C120.538 219.517 108.782 214.011 103.31 208.553C100.17 205.422 95.4661 199.94 99.3863 194.457Z" fill="#7699AA"/>
<path d="M144.025 200.723C148.812 199.232 155.664 199.157 164.388 206.989C173.112 214.82 166.806 236.338 162.053 239.097C155.715 242.775 141.623 243.015 134.626 228.134C128.996 216.162 133.042 204.143 144.025 200.723Z" fill="#7699AA"/>
<path d="M208.246 256.329C201.1 275.125 188.665 275.125 178.484 275.125C168.303 275.125 169.887 260.988 170.65 255.545C171.668 248.289 183.722 234.895 191.799 236.749C206.678 240.166 210.867 249.433 208.246 256.329Z" fill="#7699AA"/>
<path d="M225.168 230.597C230.183 227.351 247.664 214.706 257.594 222.652C267.525 230.597 250.041 249.935 247.411 254.762C242.718 263.377 217.249 270.091 213.724 262.593C208.094 250.621 218.435 234.956 225.168 230.597Z" fill="#7699AA"/>
<path d="M240.381 293.918C245.139 289.564 255.268 279.821 268.575 279.039C281.882 278.256 283.726 286.751 281.085 291.571C276.363 300.187 260.776 319.326 236.442 314.282C229.441 312.833 233.393 300.315 240.381 293.918Z" fill="#7699AA"/>
<path d="M167.519 297.055C171.435 292.356 187.893 281.389 199.642 290.789C211.39 300.189 201.418 332.595 197.281 336.214C191.016 341.696 169.812 342.146 166.286 334.647C160.656 322.675 161.252 304.575 167.519 297.055Z" fill="#7699AA"/>
<path d="M133.064 290.789C137.852 289.298 151.076 286.873 167.523 298.621C183.969 310.368 168.304 319.196 163.272 322.116C156.934 325.795 133.123 323.464 129.597 315.966C123.967 303.994 126.021 292.983 133.064 290.789Z" fill="#7699AA"/>
<path d="M219.976 348.909C222.764 344.741 235.474 330.016 250.52 329.948C265.566 329.88 258.758 341.263 256.793 346.395C254.174 353.239 232.142 367.243 224.688 363.625C217.639 360.204 216.861 353.573 219.976 348.909Z" fill="#7699AA"/>
<path d="M261.492 402.78C256.026 441.159 227.773 435.482 212.943 438.027C198.114 440.571 204.81 414.436 205.903 409.049C208.245 397.502 232.524 379.284 241.91 379.284C255.237 379.284 264.384 382.421 261.492 402.78Z" fill="#7699AA"/>
<path d="M162.032 362.845C166.82 361.355 182.395 362.062 192.576 376.159C202.757 390.257 189.502 404.728 184.748 407.486C178.41 411.165 159.697 422.187 148.733 398.868C143.103 386.896 150.304 365.974 162.032 362.845Z" fill="#7699AA"/>
<path d="M43.0483 195.965C47.8358 194.474 63.3457 188.972 75.094 198.372C86.8423 207.772 74.3666 219.11 69.613 221.869C63.275 225.547 40.7935 229.925 35.1644 217.953C29.5346 205.981 36.0053 198.159 43.0483 195.965Z" fill="#7699AA"/>
<path d="M97.0398 131.802C101.759 133.497 112.269 141.692 108.787 151.382C105.306 161.072 100.928 162.226 95.4723 161.563C88.1977 160.679 78.1083 158.43 80.9785 144.783C83.7 131.836 92.3208 130.107 97.0398 131.802Z" fill="#7699AA"/>
<path d="M98.6048 51.9188C97.8216 55.8347 94.6889 63.2796 89.9898 65.2329C82.0347 68.5397 74.3262 67.9919 74.3262 63.6665C74.3262 59.3411 74.3247 53.8149 85.2922 48.7859C95.4721 44.118 98.6048 47.5934 98.6048 51.9188Z" fill="#7699AA"/>
</svg>
