<svg width="341" height="78" viewBox="0 0 341 78" fill="none" xmlns="http://www.w3.org/2000/svg">
<path d="M17.7167 21.0599H7.4082C8.1883 7.3524 21.4779 0.582233 28.7216 1.27877L17.7167 21.0599Z" fill="#30304C" stroke="#C6A4AA" stroke-width="0.278607"/>
<path d="M40.1447 21.1087H50.4531C49.673 7.40123 36.3835 0.631061 29.1397 1.3276L40.1447 21.1087Z" fill="#30304C" stroke="#C6A4AA" stroke-width="0.278607"/>
<path d="M28.8069 1.51739C25.3501 7.82377 18.2456 20.7846 18.1348 21.3389H29.0004L28.8611 1.41846L28.8069 1.51739Z" fill="#A47A82" stroke="#C6A4AA" stroke-width="0.278607"/>
<path d="M29.0544 1.37774C32.5113 7.68412 39.6157 20.6449 39.7266 21.1992H28.8609L29.0002 1.27881L29.0544 1.37774Z" fill="#A47A82" stroke="#C6A4AA" stroke-width="0.278607"/>
<path d="M17.7161 21.478H7.40767C6.85046 26.8273 9.59009 32.3437 11.0296 34.4333L17.7161 21.478Z" fill="#30304C" stroke="#C6A4AA" stroke-width="0.278607"/>
<path d="M40.2839 21.6172H50.5923C51.1495 26.9664 48.4099 32.4829 46.9704 34.5724L40.2839 21.6172Z" fill="#30304C" stroke="#C6A4AA" stroke-width="0.278607"/>
<path d="M7.4082 40.5624V25.9355C7.4082 28.3873 10.0085 32.715 11.1694 34.4331L7.4082 40.5624Z" fill="#F2C98F" stroke="#C6A4AA" stroke-width="0.278607"/>
<path d="M50.4531 40.7021V26.0752C50.4531 28.5269 47.8528 32.8546 46.6919 34.5727L50.4531 40.7021Z" fill="#F2C98F" stroke="#C6A4AA" stroke-width="0.278607"/>
<path d="M28.8615 44.3239V21.3389H17.8565L11.1699 34.2941C12.4237 36.5229 12.145 37.2195 18.4137 41.3986C21.3207 43.3365 24.8681 44.3239 28.8615 44.3239Z" fill="#7699AA" stroke="#C6A4AA" stroke-width="0.278607"/>
<path d="M29.1405 44.3239V21.3389H40.1455L46.832 34.2941C45.5783 36.5229 45.8569 37.2195 39.5882 41.3986C36.6813 43.3365 33.1339 44.3239 29.1405 44.3239Z" fill="#7699AA" stroke="#C6A4AA" stroke-width="0.278607"/>
<path d="M10.8895 34.5723L7.26758 41.1195V48.5026C7.26758 58.9782 18.6905 69.3981 28.9989 69.1195V44.1842C19.8049 43.9056 13.9541 38.8907 10.8895 34.5723Z" fill="#DEE3FE" stroke="#C6A4AA" stroke-width="0.278607"/>
<path d="M46.9699 34.7114L50.5918 41.2587V48.6418C50.5918 59.1174 39.1689 69.5373 28.8605 69.2587V44.3234C38.0545 44.0448 43.9052 39.0298 46.9699 34.7114Z" fill="#DEE3FE" stroke="#C6A4AA" stroke-width="0.278607"/>
<path d="M7.40796 22.592C7.40796 22.1712 7.42 21.7532 7.44375 21.3383M7.40796 22.592C7.40796 26.9876 8.72142 31.0764 10.9773 34.4874M7.40796 22.592V41.1194L10.9773 34.4874M29 1C40.925 1 50.592 10.6671 50.592 22.592C50.592 22.9926 50.5811 23.3907 50.5596 23.7859M29 1L29 69.1194M29 1C40.5041 1 49.9069 9.99682 50.5562 21.3383M29 1L39.9415 21.3383M29 1C17.4959 1 8.09307 9.99682 7.44375 21.3383M29 1L18.054 21.3383M29 69.1194C34.7266 69.1194 40.2186 66.8445 44.2679 62.7952C48.3172 58.7459 50.592 53.2539 50.592 47.5274L50.5596 23.7859M29 69.1194C23.2734 69.1194 17.7814 66.8445 13.7321 62.7952C9.68283 58.746 7.40796 53.2539 7.40796 47.5274V21.3383M1 21.3383H7.44375M285.5 21.3383H39.9415M50.5562 21.3383H39.9415M50.5562 21.3383L50.5596 23.7859M39.9415 21.3383H18.054M39.9415 21.3383L47.0187 34.4935M7.44375 21.3383H18.054M18.054 21.3383L10.9773 34.4874M50.5596 23.7859C50.3447 27.7298 49.0713 31.3921 47.0187 34.4935M50.5596 23.7859L50.5833 41.1194L47.0187 34.4935M47.0187 34.4935C43.154 40.3329 36.5267 44.1841 29 44.1841C21.4706 44.1841 14.8414 40.3302 10.9773 34.4874" stroke="#F2C98F" stroke-width="1.39303" stroke-linecap="round" stroke-linejoin="round"/>
<path d="M73.2304 67.5236C69.3473 67.5236 66.2496 66.4764 63.9372 64.3822C61.6684 62.2879 60.534 59.5174 60.534 56.0707V54.2382C60.534 53.8019 60.7522 53.5837 61.1885 53.5837H62.3011C62.7374 53.5837 62.9555 53.8019 62.9555 54.2382V55.8743C62.9555 58.7103 63.8936 60.979 65.7697 62.6806C67.6458 64.3822 70.1545 65.233 73.2959 65.233C76.3063 65.233 78.6842 64.4258 80.4294 62.8115C82.1746 61.1972 83.0472 59.0375 83.0472 56.3324C83.0472 54.5872 82.6545 53.082 81.8692 51.8167C81.1275 50.5514 79.9931 49.3952 78.466 48.3481C76.9826 47.301 74.8884 46.0357 72.1833 44.5523C69.391 42.9816 67.2531 41.6727 65.7697 40.6256C64.3299 39.5785 63.1737 38.335 62.3011 36.8952C61.4285 35.4118 60.9922 33.5793 60.9922 31.3978C60.9922 27.9947 62.0393 25.355 64.1335 23.4789C66.2278 21.6028 69.0637 20.6648 72.6414 20.6648C76.5245 20.6648 79.5786 21.7337 81.8037 23.8716C84.0289 25.9659 85.1414 28.7582 85.1414 32.2486V33.8847C85.1414 34.321 84.9233 34.5392 84.487 34.5392H83.309C82.8727 34.5392 82.6545 34.321 82.6545 33.8847V32.3795C82.6545 29.5435 81.7601 27.2748 79.9713 25.5732C78.1824 23.828 75.7173 22.9554 72.576 22.9554C69.74 22.9554 67.5149 23.6971 65.9005 25.1805C64.2862 26.6203 63.4791 28.6927 63.4791 31.3978C63.4791 33.0994 63.8281 34.5174 64.5262 35.6517C65.2243 36.7861 66.2496 37.8333 67.6021 38.7931C68.9547 39.7094 70.9835 40.8874 73.6885 42.3272C76.6554 44.0287 78.946 45.4903 80.5603 46.712C82.1746 47.89 83.418 49.2207 84.2906 50.7041C85.1633 52.1876 85.5996 53.9546 85.5996 56.0052C85.5996 59.4956 84.487 62.2879 82.2618 64.3822C80.0367 66.4764 77.0262 67.5236 73.2304 67.5236ZM104.525 67.5236C101.646 67.5236 99.2462 66.6728 97.3265 64.9712C95.4504 63.2696 94.3378 61.0663 93.9888 58.3612C93.727 56.5288 93.5961 53.911 93.5961 50.5078C93.5961 47.5846 93.727 45.0104 93.9888 42.7853C94.3378 40.0802 95.4504 37.8769 97.3265 36.1753C99.2462 34.4737 101.646 33.6229 104.525 33.6229C107.405 33.6229 109.827 34.4301 111.79 36.0444C113.753 37.6151 114.888 39.5566 115.193 41.869L115.389 42.8507C115.389 43.3307 115.193 43.5706 114.8 43.5706L113.557 43.6361C113.121 43.6361 112.881 43.4397 112.837 43.0471C112.837 42.7416 112.815 42.5453 112.772 42.458C112.553 40.6692 111.681 39.1422 110.154 37.8769C108.67 36.568 106.794 35.9135 104.525 35.9135C102.257 35.9135 100.381 36.6116 98.8972 38.0078C97.4574 39.3603 96.6284 41.1273 96.4103 43.3088C96.2358 45.8394 96.1485 48.2609 96.1485 50.5733C96.1485 52.8857 96.2358 55.3071 96.4103 57.8377C96.6284 60.0628 97.4574 61.8516 98.8972 63.2042C100.381 64.5567 102.257 65.233 104.525 65.233C106.663 65.233 108.496 64.644 110.023 63.466C111.55 62.2443 112.444 60.7827 112.706 59.0811C112.75 58.9066 112.772 58.6448 112.772 58.2958C112.946 57.9031 113.186 57.7286 113.491 57.7722L114.735 57.8377C115.128 57.8377 115.324 58.0776 115.324 58.5576L115.258 59.212C114.997 61.568 113.862 63.5532 111.855 65.1675C109.892 66.7382 107.449 67.5236 104.525 67.5236ZM133.465 33.6229C136.781 33.6229 139.311 34.6046 141.057 36.568C142.802 38.5313 143.674 41.171 143.674 44.4869V66.3455C143.674 66.7818 143.456 67 143.02 67H141.777C141.34 67 141.122 66.7818 141.122 66.3455V63.3351C141.122 63.2042 141.079 63.1387 140.991 63.1387C140.904 63.0951 140.839 63.1387 140.795 63.2696C139.835 64.6658 138.548 65.7347 136.934 66.4764C135.319 67.1745 133.53 67.5236 131.567 67.5236C128.906 67.5236 126.637 66.8255 124.761 65.4293C122.928 63.9895 122.012 61.6771 122.012 58.4921C122.012 55.1326 123.081 52.5802 125.219 50.835C127.4 49.0462 130.345 48.1518 134.054 48.1518H140.86C141.035 48.1518 141.122 48.0645 141.122 47.89V44.4869C141.122 41.869 140.468 39.7966 139.159 38.2696C137.894 36.6989 135.974 35.9135 133.4 35.9135C131.393 35.9135 129.691 36.4153 128.295 37.4188C126.942 38.4223 126.135 39.753 125.873 41.4109C125.786 41.8909 125.546 42.0872 125.154 41.9999L123.779 41.869C123.343 41.7818 123.147 41.5636 123.19 41.2146C123.496 38.9458 124.586 37.1134 126.462 35.7172C128.382 34.321 130.716 33.6229 133.465 33.6229ZM131.894 65.233C134.425 65.233 136.585 64.5567 138.373 63.2042C140.206 61.808 141.122 59.8447 141.122 57.3141V50.5733C141.122 50.3987 141.035 50.3115 140.86 50.3115H134.185C131.305 50.3115 128.993 51.0096 127.248 52.4057C125.503 53.7583 124.63 55.7216 124.63 58.2958C124.63 60.6082 125.306 62.3534 126.659 63.5314C128.011 64.6658 129.756 65.233 131.894 65.233ZM164.042 33.8847C165.264 33.8847 166.311 34.1029 167.184 34.5392L167.445 34.6701C167.707 34.8446 167.794 35.0627 167.707 35.3245L167.576 35.5863L167.249 36.6989C167.118 37.1352 166.835 37.2661 166.398 37.0915C165.613 36.7425 164.675 36.5898 163.584 36.6334C161.403 36.6771 159.592 37.6369 158.152 39.513C156.712 41.3891 155.993 43.6797 155.993 46.3848V66.3455C155.993 66.7818 155.774 67 155.338 67H154.095C153.658 67 153.44 66.7818 153.44 66.3455V34.801C153.44 34.3647 153.658 34.1465 154.095 34.1465H155.338C155.774 34.1465 155.993 34.3647 155.993 34.801V39.3167C155.993 39.4476 156.014 39.5348 156.058 39.5785C156.145 39.5785 156.211 39.513 156.254 39.3821C157.04 37.6369 158.087 36.2844 159.396 35.3245C160.705 34.3647 162.253 33.8847 164.042 33.8847ZM183.572 33.6229C186.887 33.6229 189.418 34.6046 191.163 36.568C192.908 38.5313 193.781 41.171 193.781 44.4869V66.3455C193.781 66.7818 193.563 67 193.127 67H191.883C191.447 67 191.229 66.7818 191.229 66.3455V63.3351C191.229 63.2042 191.185 63.1387 191.098 63.1387C191.01 63.0951 190.945 63.1387 190.901 63.2696C189.942 64.6658 188.654 65.7347 187.04 66.4764C185.426 67.1745 183.637 67.5236 181.674 67.5236C179.012 67.5236 176.743 66.8255 174.867 65.4293C173.035 63.9895 172.119 61.6771 172.119 58.4921C172.119 55.1326 173.188 52.5802 175.325 50.835C177.507 49.0462 180.452 48.1518 184.161 48.1518H190.967C191.141 48.1518 191.229 48.0645 191.229 47.89V44.4869C191.229 41.869 190.574 39.7966 189.265 38.2696C188 36.6989 186.08 35.9135 183.506 35.9135C181.499 35.9135 179.798 36.4153 178.401 37.4188C177.049 38.4223 176.242 39.753 175.98 41.4109C175.893 41.8909 175.653 42.0872 175.26 41.9999L173.886 41.869C173.449 41.7818 173.253 41.5636 173.297 41.2146C173.602 38.9458 174.693 37.1134 176.569 35.7172C178.489 34.321 180.823 33.6229 183.572 33.6229ZM182.001 65.233C184.531 65.233 186.691 64.5567 188.48 63.2042C190.312 61.808 191.229 59.8447 191.229 57.3141V50.5733C191.229 50.3987 191.141 50.3115 190.967 50.3115H184.291C181.412 50.3115 179.099 51.0096 177.354 52.4057C175.609 53.7583 174.736 55.7216 174.736 58.2958C174.736 60.6082 175.413 62.3534 176.765 63.5314C178.118 64.6658 179.863 65.233 182.001 65.233ZM224.685 42.9162C224.904 44.0942 225.078 45.4903 225.209 47.1047C225.34 48.6753 225.405 50.0279 225.405 51.1623C225.405 53.6492 225.078 56.2234 224.424 58.8848C223.638 62.0262 222.438 64.2513 220.824 65.5602C219.21 66.8691 217.028 67.5236 214.28 67.5236C210.527 67.5236 207.888 66.0838 206.361 63.2042C206.317 63.1169 206.252 63.0733 206.164 63.0733C206.121 63.0733 206.099 63.1387 206.099 63.2696V66.3455C206.099 66.7818 205.881 67 205.445 67H204.201C203.765 67 203.547 66.7818 203.547 66.3455V21.8428C203.547 21.4065 203.765 21.1884 204.201 21.1884H205.445C205.881 21.1884 206.099 21.4065 206.099 21.8428V37.8114C206.099 37.9423 206.121 38.0078 206.164 38.0078C206.252 38.0078 206.317 37.9641 206.361 37.8769C206.972 36.5244 207.866 35.499 209.044 34.801C210.222 34.0592 211.815 33.6884 213.822 33.6884C216.832 33.6884 219.232 34.4301 221.02 35.9135C222.809 37.3533 224.031 39.6875 224.685 42.9162ZM221.479 59.9319C222.308 57.7504 222.722 54.6309 222.722 50.5733C222.722 46.5157 222.199 43.2216 221.151 40.691C219.755 37.506 217.399 35.9135 214.083 35.9135C212.382 35.9135 211.029 36.3498 210.026 37.2224C209.022 38.0514 208.215 39.2949 207.604 40.9528C206.688 43.1343 206.23 46.3411 206.23 50.5733C206.23 54.5436 206.644 57.7068 207.473 60.0628C208.041 61.7644 208.848 63.0733 209.895 63.9895C210.986 64.8621 212.404 65.2984 214.149 65.2984C216.068 65.2984 217.596 64.8621 218.73 63.9895C219.864 63.0733 220.781 61.7208 221.479 59.9319ZM244.3 65.233C246.219 65.233 247.877 64.7312 249.273 63.7277C250.713 62.6806 251.695 61.3281 252.218 59.6701C252.349 59.2775 252.611 59.1248 253.004 59.212L254.182 59.4084C254.4 59.452 254.531 59.5611 254.574 59.7356C254.662 59.8665 254.684 60.0192 254.64 60.1937C253.985 62.4188 252.72 64.2077 250.844 65.5602C249.012 66.8691 246.808 67.5236 244.234 67.5236C241.355 67.5236 238.977 66.6946 237.101 65.0366C235.224 63.3787 234.112 61.219 233.763 58.5576C233.588 57.4668 233.479 56.2234 233.436 54.8272C233.392 53.431 233.37 52.013 233.37 50.5733C233.37 46.9083 233.457 44.3341 233.632 42.8507C233.937 40.1457 235.05 37.9423 236.97 36.2408C238.889 34.4955 241.289 33.6229 244.169 33.6229C247.223 33.6229 249.71 34.4955 251.629 36.2408C253.593 37.986 254.705 40.2984 254.967 43.1779C255.098 44.5741 255.163 47.1701 255.163 50.9659C255.163 51.4022 254.945 51.6204 254.509 51.6204H236.184C236.01 51.6204 235.923 51.7076 235.923 51.8822C235.923 54.7617 235.966 56.7251 236.053 57.7722C236.272 60.041 237.122 61.8516 238.606 63.2042C240.089 64.5567 241.987 65.233 244.3 65.233ZM244.234 35.9135C241.965 35.9135 240.089 36.6116 238.606 38.0078C237.122 39.3603 236.272 41.1273 236.053 43.3088C235.966 44.356 235.923 46.1884 235.923 48.8062C235.923 48.9808 236.01 49.068 236.184 49.068H252.349C252.524 49.068 252.611 48.9808 252.611 48.8062C252.611 46.6247 252.546 44.7923 252.415 43.3088C252.197 41.1273 251.324 39.3603 249.797 38.0078C248.314 36.6116 246.459 35.9135 244.234 35.9135ZM242.533 29.6962C242.271 29.6962 242.096 29.6308 242.009 29.4999C241.922 29.3254 241.944 29.129 242.074 28.9109L246.132 21.6465C246.35 21.3411 246.612 21.1884 246.917 21.1884H247.964C248.226 21.1884 248.401 21.2756 248.488 21.4501C248.575 21.581 248.553 21.7556 248.423 21.9737L244.103 29.2381C243.885 29.5435 243.623 29.6962 243.318 29.6962H242.533ZM274.466 65.233C276.385 65.233 278.043 64.7312 279.44 63.7277C280.879 62.6806 281.861 61.3281 282.385 59.6701C282.515 59.2775 282.777 59.1248 283.17 59.212L284.348 59.4084C284.566 59.452 284.697 59.5611 284.741 59.7356C284.828 59.8665 284.85 60.0192 284.806 60.1937C284.152 62.4188 282.886 64.2077 281.01 65.5602C279.178 66.8691 276.974 67.5236 274.4 67.5236C271.521 67.5236 269.143 66.6946 267.267 65.0366C265.391 63.3787 264.278 61.219 263.929 58.5576C263.754 57.4668 263.645 56.2234 263.602 54.8272C263.558 53.431 263.536 52.013 263.536 50.5733C263.536 46.9083 263.624 44.3341 263.798 42.8507C264.104 40.1457 265.216 37.9423 267.136 36.2408C269.056 34.4955 271.455 33.6229 274.335 33.6229C277.389 33.6229 279.876 34.4955 281.796 36.2408C283.759 37.986 284.871 40.2984 285.133 43.1779C285.264 44.5741 285.33 47.1701 285.33 50.9659C285.33 51.4022 285.111 51.6204 284.675 51.6204H266.35C266.176 51.6204 266.089 51.7076 266.089 51.8822C266.089 54.7617 266.132 56.7251 266.22 57.7722C266.438 60.041 267.289 61.8516 268.772 63.2042C270.255 64.5567 272.153 65.233 274.466 65.233ZM274.4 35.9135C272.131 35.9135 270.255 36.6116 268.772 38.0078C267.289 39.3603 266.438 41.1273 266.22 43.3088C266.132 44.356 266.089 46.1884 266.089 48.8062C266.089 48.9808 266.176 49.068 266.35 49.068H282.515C282.69 49.068 282.777 48.9808 282.777 48.8062C282.777 46.6247 282.712 44.7923 282.581 43.3088C282.363 41.1273 281.49 39.3603 279.963 38.0078C278.48 36.6116 276.625 35.9135 274.4 35.9135Z" fill="#F2C98F"/>
</svg>
