<svg width="554" height="230" viewBox="0 0 554 230" fill="none" xmlns="http://www.w3.org/2000/svg">
<g filter="url(#filter0_i)">
<path d="M494.552 62.5503C485.336 65.6221 482.52 85.3329 482.264 94.8043H272.613V192.334H506.071C543.7 183.119 546.772 94.8043 546.772 81.7491C546.772 71.3049 535.509 64.5982 529.877 62.5503H494.552Z" fill="#CA9B5A"/>
</g>
<g filter="url(#filter1_i)">
<path d="M66.8047 61.813C76.0201 64.8848 78.8359 84.5956 79.0919 94.067L273 92.147V192.365H55.2854C17.6557 183.149 14.5839 94.067 14.5839 81.0118C14.5839 70.5676 25.8472 63.8609 31.4789 61.813H66.8047Z" fill="#CA9B5A"/>
</g>
<g filter="url(#filter2_i)">
<rect x="63.7266" y="0.34668" width="431.589" height="115.193" rx="46.0771" fill="#F2C98F"/>
</g>
<g filter="url(#filter3_dd)">
<path d="M70.4495 100.702C77.4116 95.3836 85.9296 92.5024 94.6907 92.5024H470.061C478.604 92.5024 486.857 95.5983 493.293 101.217L504.329 110.852C521.433 125.784 510.873 153.939 488.168 153.939H68.8697C46.8322 153.939 37.3718 125.97 54.8843 112.592L70.4495 100.702Z" fill="#F2C98F"/>
</g>
<g filter="url(#filter4_d)">
<rect x="48.3691" y="115.537" width="462.307" height="38.3976" rx="19.1988" fill="#F2C98F"/>
<rect x="48.3691" y="115.537" width="462.307" height="38.3976" rx="19.1988" fill="black" fill-opacity="0.14"/>
</g>
<path d="M506.778 114.191C505.725 108.561 490.171 99.0092 482.26 94.8061C484.103 69.6175 491.731 62.8081 495.315 62.5521H526.212C526.898 62.511 527.606 62.5103 528.337 62.5521H526.212C506.933 63.7058 505.141 96.7184 506.778 114.191C506.815 114.39 506.834 114.584 506.834 114.773C506.815 114.581 506.796 114.387 506.778 114.191Z" fill="#A37434"/>
<path d="M54.5776 113.452C55.6308 107.823 71.184 98.2709 79.0957 94.0678C77.2526 68.8792 69.6243 62.0699 66.0405 61.8138H35.1439C34.4578 61.7727 33.7496 61.772 33.0186 61.8138H35.1439C54.4227 62.9676 56.2142 95.9802 54.5776 113.452C54.5403 113.652 54.5212 113.846 54.5212 114.035C54.5404 113.843 54.5592 113.648 54.5776 113.452Z" fill="#A37434"/>
<g filter="url(#filter5_d)">
<path d="M49.4362 28.7606C43.9069 28.1463 45.0844 33.1124 46.3643 35.6722C64.4876 55.9722 73.9437 84.941 74.7289 102.549C74.7848 103.803 76.2259 104.574 77.317 103.954C95.1952 93.7974 132.878 92.915 153.108 90.9651C154.309 65.7587 139.973 30.6833 129.286 18.0973C128.845 17.5773 128.106 17.4524 127.49 17.7469C90.2672 35.559 56.2838 29.5215 49.4362 28.7606Z" fill="#60343D"/>
</g>
<g filter="url(#filter6_d)">
<path d="M179.107 23.4175C163.395 31.196 120.25 27.2882 99.5095 24.153C94.9905 30.1792 125.94 65.7613 119.149 101.183C119.082 101.531 119.88 101.953 120.17 101.749C129.812 94.987 175.039 96.14 199.251 97.7643C200.14 97.8239 200.967 97.1269 201.072 96.2423C201.334 94.061 201.109 90.0558 193.968 76.3737C181.759 52.9818 181.838 37.2233 181.721 24.8706C181.709 23.6138 180.234 22.8599 179.107 23.4175Z" fill="#7699AA"/>
</g>
<path d="M79.8628 191.444H68.1151L63.416 229.82H71.2478L79.8628 191.444Z" fill="#60343D"/>
<path d="M80.6484 207.89V191.443H90.8298L87.6971 207.89H80.6484Z" fill="#60343D"/>
<path d="M470.67 207.89L467.537 191.443H478.502V207.89H470.67Z" fill="#60343D"/>
<path d="M491.816 191.443H479.285L487.117 229.036H494.949L491.816 191.443Z" fill="#60343D"/>
<defs>
<filter id="filter0_i" x="272.613" y="62.5503" width="274.159" height="129.784" filterUnits="userSpaceOnUse" color-interpolation-filters="sRGB">
<feFlood flood-opacity="0" result="BackgroundImageFix"/>
<feBlend mode="normal" in="SourceGraphic" in2="BackgroundImageFix" result="shape"/>
<feColorMatrix in="SourceAlpha" type="matrix" values="0 0 0 0 0 0 0 0 0 0 0 0 0 0 0 0 0 0 127 0" result="hardAlpha"/>
<feOffset dy="-3.07181"/>
<feComposite in2="hardAlpha" operator="arithmetic" k2="-1" k3="1"/>
<feColorMatrix type="matrix" values="0 0 0 0 0 0 0 0 0 0 0 0 0 0 0 0 0 0 0.25 0"/>
<feBlend mode="normal" in2="shape" result="effect1_innerShadow"/>
</filter>
<filter id="filter1_i" x="14.584" y="61.813" width="258.416" height="130.552" filterUnits="userSpaceOnUse" color-interpolation-filters="sRGB">
<feFlood flood-opacity="0" result="BackgroundImageFix"/>
<feBlend mode="normal" in="SourceGraphic" in2="BackgroundImageFix" result="shape"/>
<feColorMatrix in="SourceAlpha" type="matrix" values="0 0 0 0 0 0 0 0 0 0 0 0 0 0 0 0 0 0 127 0" result="hardAlpha"/>
<feOffset dy="-3.07181"/>
<feComposite in2="hardAlpha" operator="arithmetic" k2="-1" k3="1"/>
<feColorMatrix type="matrix" values="0 0 0 0 0 0 0 0 0 0 0 0 0 0 0 0 0 0 0.25 0"/>
<feBlend mode="normal" in2="shape" result="effect1_innerShadow"/>
</filter>
<filter id="filter2_i" x="63.7266" y="0.34668" width="431.589" height="115.193" filterUnits="userSpaceOnUse" color-interpolation-filters="sRGB">
<feFlood flood-opacity="0" result="BackgroundImageFix"/>
<feBlend mode="normal" in="SourceGraphic" in2="BackgroundImageFix" result="shape"/>
<feColorMatrix in="SourceAlpha" type="matrix" values="0 0 0 0 0 0 0 0 0 0 0 0 0 0 0 0 0 0 127 0" result="hardAlpha"/>
<feOffset dy="3.07181"/>
<feComposite in2="hardAlpha" operator="arithmetic" k2="-1" k3="1"/>
<feColorMatrix type="matrix" values="0 0 0 0 1 0 0 0 0 0.941176 0 0 0 0 0.858824 0 0 0 1 0"/>
<feBlend mode="normal" in2="shape" result="effect1_innerShadow"/>
</filter>
<filter id="filter3_dd" x="45.7871" y="89.4306" width="467.005" height="67.5798" filterUnits="userSpaceOnUse" color-interpolation-filters="sRGB">
<feFlood flood-opacity="0" result="BackgroundImageFix"/>
<feColorMatrix in="SourceAlpha" type="matrix" values="0 0 0 0 0 0 0 0 0 0 0 0 0 0 0 0 0 0 127 0"/>
<feOffset dy="3.07181"/>
<feColorMatrix type="matrix" values="0 0 0 0 0 0 0 0 0 0 0 0 0 0 0 0 0 0 0.25 0"/>
<feBlend mode="normal" in2="BackgroundImageFix" result="effect1_dropShadow"/>
<feColorMatrix in="SourceAlpha" type="matrix" values="0 0 0 0 0 0 0 0 0 0 0 0 0 0 0 0 0 0 127 0"/>
<feOffset dy="-3.07181"/>
<feColorMatrix type="matrix" values="0 0 0 0 0 0 0 0 0 0 0 0 0 0 0 0 0 0 0.25 0"/>
<feBlend mode="normal" in2="effect1_dropShadow" result="effect2_dropShadow"/>
<feBlend mode="normal" in="SourceGraphic" in2="effect2_dropShadow" result="shape"/>
</filter>
<filter id="filter4_d" x="46.8332" y="112.465" width="465.379" height="41.4694" filterUnits="userSpaceOnUse" color-interpolation-filters="sRGB">
<feFlood flood-opacity="0" result="BackgroundImageFix"/>
<feColorMatrix in="SourceAlpha" type="matrix" values="0 0 0 0 0 0 0 0 0 0 0 0 0 0 0 0 0 0 127 0"/>
<feMorphology radius="1.5359" operator="dilate" in="SourceAlpha" result="effect1_dropShadow"/>
<feOffset dy="-1.5359"/>
<feColorMatrix type="matrix" values="0 0 0 0 1 0 0 0 0 0.941176 0 0 0 0 0.858824 0 0 0 1 0"/>
<feBlend mode="normal" in2="BackgroundImageFix" result="effect1_dropShadow"/>
<feBlend mode="normal" in="SourceGraphic" in2="effect1_dropShadow" result="shape"/>
</filter>
<filter id="filter5_d" x="45.2949" y="17.5908" width="107.884" height="89.6536" filterUnits="userSpaceOnUse" color-interpolation-filters="sRGB">
<feFlood flood-opacity="0" result="BackgroundImageFix"/>
<feColorMatrix in="SourceAlpha" type="matrix" values="0 0 0 0 0 0 0 0 0 0 0 0 0 0 0 0 0 0 127 0"/>
<feOffset dy="3.07181"/>
<feColorMatrix type="matrix" values="0 0 0 0 0 0 0 0 0 0 0 0 0 0 0 0 0 0 0.25 0"/>
<feBlend mode="normal" in2="BackgroundImageFix" result="effect1_dropShadow"/>
<feBlend mode="normal" in="SourceGraphic" in2="effect1_dropShadow" result="shape"/>
</filter>
<filter id="filter6_d" x="99.0566" y="23.231" width="102.079" height="81.6432" filterUnits="userSpaceOnUse" color-interpolation-filters="sRGB">
<feFlood flood-opacity="0" result="BackgroundImageFix"/>
<feColorMatrix in="SourceAlpha" type="matrix" values="0 0 0 0 0 0 0 0 0 0 0 0 0 0 0 0 0 0 127 0"/>
<feOffset dy="3.07181"/>
<feColorMatrix type="matrix" values="0 0 0 0 0 0 0 0 0 0 0 0 0 0 0 0 0 0 0.25 0"/>
<feBlend mode="normal" in2="BackgroundImageFix" result="effect1_dropShadow"/>
<feBlend mode="normal" in="SourceGraphic" in2="effect1_dropShadow" result="shape"/>
</filter>
</defs>
</svg>
