<svg width="1311" height="700" viewBox="0 0 1311 700" fill="none" xmlns="http://www.w3.org/2000/svg">
<path d="M1279.18 452.294C1279.18 656.615 927.829 699.21 629.669 699.21C331.51 699.21 0.244141 578.773 0.244141 374.452C0.244141 170.132 372.523 45.8687 670.683 45.8687C968.842 45.8687 1279.18 247.974 1279.18 452.294Z" fill="#FFF0DB"/>
<path d="M1308.48 406.617C1308.48 456.864 1286.92 497.178 1249.78 529.501C1212.57 561.889 1159.73 586.238 1097.35 604.282C972.587 640.37 810.497 651.021 661.476 651.021C512.685 651.021 355.702 620.962 236.009 565.495C116.163 509.957 34.5618 429.403 34.5618 328.775C34.5618 278.524 57.4349 233.045 96.6718 192.993C135.929 152.92 191.469 118.391 256.46 90.1658C386.442 33.7155 553.704 2.70192 702.489 2.70192C851.043 2.70192 1002.69 53.064 1117.16 128.877C1231.75 204.766 1308.48 305.712 1308.48 406.617Z" stroke="#F2C98F" stroke-width="5.02201"/>
</svg>
