<svg width="700" height="549" viewBox="0 0 700 549" fill="none" xmlns="http://www.w3.org/2000/svg">
<path d="M670.514 504.039H496.826C490.16 507.117 472.685 488.229 464.78 478.4L442.989 439.304L416.07 427.768H278.273C250.714 427.768 248.791 411.745 248.791 397.004V291.893C249.304 260.104 262.25 259.207 273.787 259.207L482.726 256.004C549.381 255.491 696.792 253.438 699.997 354.705V473.916C699.997 501.475 682.692 504.039 670.514 504.039Z" fill="#7699AA"/>
<path d="M497.469 434.818V503.396H667.953C697.691 503.396 699.999 489.296 699.999 471.35V391.236C699.999 348.294 697.435 325.221 689.744 315.608C652.827 314.07 649.366 325.221 649.366 338.04V416.232H520.542C497.469 416.232 497.469 427.768 497.469 434.818V434.818Z" fill="#4F7A8E"/>
<path d="M23.8284 502.114C2.80636 503.652 -0.740045 486.091 0.114511 477.118V327.144C-2.446 279.716 117.405 241.261 201.362 253.438C226.999 258.053 226.999 276.511 226.999 286.125V483.527L201.362 497.627C150.944 498.482 44.8505 500.576 23.8284 502.114Z" fill="#C6A4AA"/>
<path d="M0.118758 327.784C17.5517 300.609 46.9058 311.762 50.1103 324.579V411.104L160.313 409.228C182.52 408.85 200.726 426.748 200.726 448.959V497.627C149.452 497.841 42.1629 499.037 23.1918 502.114C4.22063 505.19 -0.0948808 487.159 0.118758 477.759V327.784Z" fill="#A47A82"/>
<path d="M334.676 259.207H328.267L320.576 273.306L313.525 292.534L292.375 289.329C289.171 289.329 282.121 289.073 279.557 288.048C276.352 286.766 270.851 284.273 269.826 285.042C267.262 286.965 270.611 288.481 273.03 289.329C276.117 290.412 276.993 294.015 279.557 296.578C281.608 298.629 285.111 299.584 287.248 299.584L305.194 308.557L330.189 333.553L320.576 356.626L271.866 384.185V397.003L333.394 480.964L339.803 476.477L281.48 384.185L316.73 366.88L323.78 370.726L300.707 391.876L305.194 402.131L372.49 454.686L376.976 448.918L313.525 391.876L355.185 375.212L369.926 348.935V292.534L350.058 255.361L353.262 241.261C354.758 232.715 357.236 214.086 355.185 207.933C353.134 201.78 347.494 197.251 344.93 195.756C339.29 189.603 329.335 195.756 325.062 199.601C313.269 226.263 326.985 241.047 335.317 245.106L334.676 259.207Z" fill="#C6A4AA"/>
<path d="M328.149 503.835L349.94 487.812C351.478 486.681 350.581 484.35 349.94 483.326C348.444 481.403 344.94 477.044 342.89 474.994C340.839 472.943 334.771 477.557 331.994 480.121V487.812C330.712 488.666 327.251 492.042 323.662 498.707C320.073 505.373 325.158 504.903 328.149 503.835Z" fill="#A37434"/>
<path d="M377.167 479.541L390.744 456.148C391.702 454.496 389.948 452.718 388.952 452.035C386.812 450.87 381.859 448.274 379.16 447.213C376.46 446.152 372.741 452.806 371.219 456.265L374.292 463.316C373.458 464.612 371.633 469.088 371.006 476.633C370.378 484.177 374.851 481.715 377.167 479.541Z" fill="#A37434"/>
<path d="M317.254 357.065C322.381 356.04 325.372 349.374 326.226 346.17C340.54 338.051 370.962 328.865 378.141 357.065C384.685 382.777 368.639 400.852 357.498 408.376C356.036 409.364 355.797 411.495 357.105 412.68C366.172 420.897 380.595 434.221 381.986 436.539C383.524 439.103 366.818 451.707 358.272 457.689L324.304 428.848C330.926 438.034 344.172 457.817 344.172 463.457C344.172 469.097 326.226 475.207 317.254 477.558C309.563 468.371 289.31 442.051 269.826 410.261C245.471 370.524 310.844 358.347 317.254 357.065Z" fill="#111131"/>
<path d="M314.688 284.642C317.764 256.954 329.643 250.459 335.197 250.673C337.761 261.569 349.938 254.518 353.784 254.518C357.629 254.518 353.784 247.468 368.525 254.518C383.266 261.569 376.216 279.514 385.83 306.433C395.444 333.351 387.112 362.833 372.371 362.833C357.629 362.833 370.448 356.424 343.529 358.988C321.994 361.039 319.602 355.142 321.097 351.938C304.69 352.963 304.861 327.156 306.997 314.124C303.152 314.124 294.179 305.151 291.615 301.305C289.051 297.46 290.333 288.487 291.615 286.564C292.64 285.026 307.424 284.642 314.688 284.642Z" fill="#2E5D72"/>
<path d="M339.047 229.522C341.098 206.962 330.074 200.467 324.306 200.04L336.483 244.905L334.56 251.314L315.974 281.437C314.265 281.01 310.462 278.745 308.924 273.105C307.001 266.055 324.306 256.441 317.896 251.314C311.487 246.186 314.692 229.522 317.896 225.677C321.101 221.832 317.896 205.809 317.896 200.04C317.896 194.272 329.433 188.504 339.047 184.658C348.66 180.813 358.915 184.017 369.17 193.631C379.424 203.245 358.915 212.218 373.656 229.522C388.397 246.827 374.297 250.673 387.115 267.336C399.934 284 376.22 285.923 369.17 292.973C362.12 300.023 355.711 291.05 346.738 285.923C339.559 281.821 343.747 267.123 346.738 260.286C343.319 259.432 336.996 252.083 339.047 229.522Z" fill="#FEBCAC"/>
<path d="M325.063 199.601C313.27 226.263 326.986 241.047 335.318 245.106H337.764L325.063 199.601Z" fill="#C6A4AA"/>
<path d="M314.689 315.806C331.567 319.225 365.194 320.293 364.681 297.22" stroke="#4F7A8E" stroke-width="1.28183"/>
<path d="M591.376 304.915C590.35 267.998 560.612 259.196 545.871 259.41C531.557 286.328 506.518 347.215 520.875 375.415C535.231 403.616 567.021 405.539 581.121 402.975C627.908 408.743 615.09 390.157 615.09 375.415C615.09 341.477 592.658 351.061 591.376 304.915Z" fill="black" fill-opacity="0.11"/>
<path d="M505.797 235.492V247.028L482.724 256.001L469.264 289.97L459.651 329.066L448.114 355.984L442.987 373.93L452.863 375.782L453.241 375.573V363.675L470.546 336.116L488.492 286.124V336.116L487.455 343.166H500.669L526.306 318.17V332.309L542.97 318.17V263.051L526.306 247.028V225.237L531.433 203.446L526.306 189.987H500.669C482.211 214.598 496.396 230.578 505.797 235.492Z" fill="#FFEEEA"/>
<path fill-rule="evenodd" clip-rule="evenodd" d="M526.306 332.309V357.907L479.519 404.053L470.546 504.036H462.855V492.5V404.053L500.669 363.675H494.901L448.114 397.644L421.196 495.704L407.736 492.5L435.296 385.467L452.863 375.782L453.241 375.573L485.287 357.907L485.853 354.062H482.724V343.166H487.455H500.669L526.306 318.17V332.309Z" fill="#FFEEEA"/>
<path d="M516.576 207.731C508.885 211.32 503.544 200.254 501.835 194.272C500.126 194.272 496.323 193.246 494.785 189.145C492.862 184.017 497.99 180.172 524.267 181.454C550.545 182.735 536.445 213.499 531.317 221.831C526.19 230.163 522.986 224.395 521.704 221.831C520.422 219.268 526.19 203.245 516.576 207.731Z" fill="#8292FB"/>
<path d="M477.481 351.297C482.608 349.246 485.172 340.188 485.813 335.915C500.34 320.105 531.574 297.972 540.291 335.915C551.186 383.343 519.781 395.52 506.963 401.929C496.708 407.057 494.572 416.029 494.785 419.875C495.64 442.521 496.836 488.453 494.785 491.017C492.222 494.221 474.276 488.453 464.021 487.812C453.767 487.171 436.462 480.762 433.898 484.607C431.335 488.453 396.084 487.171 393.521 480.762C390.957 474.353 421.721 387.829 426.848 380.138C431.976 372.447 471.072 353.86 477.481 351.297Z" fill="#FEE2BB"/>
<path d="M427.881 486.432C423.819 486.873 418.258 486.884 412.786 486.464L419.172 477.229L399.918 453.426C401.945 446.908 404.298 439.745 406.757 432.525V453.426L427.881 486.432Z" fill="#DF8B77"/>
<path d="M439.882 483.51L439.798 483.502L439.882 469.681L412.136 417.115C414.684 409.988 416.954 403.452 419.172 397.691L431.364 442.975L456.329 486.696C450.583 485.568 444.364 483.964 439.882 483.51Z" fill="#DF8B77"/>
<path d="M424.81 384.092C425.686 382.196 426.388 380.832 426.85 380.138C428.048 378.342 431.1 375.95 435.156 373.307L439.882 397.691L485.938 491.479C481.011 490.73 474.86 489.317 469.488 488.464L456.329 438.331L424.81 384.092Z" fill="#DF8B77"/>
<path d="M495.432 442.975C495.784 456.827 496.063 471.137 495.809 480.762L474.907 422.655L447.62 365.978L459.812 359.614L471.423 407.56L495.432 442.975Z" fill="#DF8B77"/>
<path d="M471.423 353.993C474.213 352.696 476.354 351.748 477.482 351.297C479.763 350.385 481.536 348.087 482.859 345.44L489.547 384.092L505.448 402.749C499.411 406.267 496.576 411.169 495.432 415.108L482.859 380.138L471.423 353.993Z" fill="#DF8B77"/>
<path d="M527.86 389.149C524.014 392.613 519.874 395.247 516.05 397.349L512.063 373.307L489.547 332.086C492.777 328.957 496.503 325.788 500.452 323.041L508.58 353.993L527.86 389.149Z" fill="#DF8B77"/>
<path d="M541.629 364.598C540.267 371.843 537.501 377.654 534.031 382.371V362.276L506.965 319.054C511.398 316.724 515.922 315.174 520.191 314.985L527.86 340.795L541.629 364.598Z" fill="#DF8B77"/>
<path d="M464.662 286.324C473.891 251.971 495.64 240.846 504.399 241.06C510.595 242.341 519.653 244.921 526.831 243.382C534.009 241.844 547.768 253.878 551.186 260.287L551.227 260.568C552.508 269.293 554.37 281.974 552.468 294.656C547.981 306.833 551.186 338.949 551.186 342.965C551.186 350.656 531.318 348.092 530.036 348.092C528.754 348.092 511.449 345.529 504.399 348.092C497.349 350.656 485.172 352.579 478.122 342.965C472.481 335.274 477.908 308.997 481.326 296.819C472.353 299.783 461.458 292.733 464.662 286.324Z" fill="#B45943"/>
<path d="M493.505 267.096C489.66 273.933 481.969 289.144 481.969 295.297M527.474 272.864C525.978 279.915 524.397 294.271 530.038 295.297" stroke="#DF8B77" stroke-width="1.28183"/>
<path d="M480.046 360.671C480.804 358.549 478.004 357.665 480.685 353.62C483.367 349.576 492.223 345.289 492.223 345.289C492.223 345.289 498.514 344.847 503.759 342.725C509.004 340.603 528.114 318.812 530.154 318.812C532.195 318.812 530.154 297.22 530.154 297.22C535.709 299.356 546.818 302.732 546.818 299.142C546.818 299.142 548.623 326.061 544.778 327.984C540.932 329.906 528.114 338.879 523.627 340.802C519.141 342.725 503.759 354.902 501.195 358.107C498.632 361.311 493.042 362.531 490.3 361.311C487.557 360.092 479.287 362.792 480.046 360.671Z" fill="#FFEEEA"/>
<path d="M424.926 491.016C424.926 488.965 412.535 489.307 406.34 489.734C404.417 489.852 403.135 494.862 402.494 496.144C401.853 497.425 392.88 498.066 388.394 499.989C384.805 501.527 386.898 504.048 388.394 505.116C398.435 505.971 418.902 507.808 420.44 508.321C421.978 508.834 424.072 506.398 424.926 505.116V491.016Z" fill="#865861"/>
<path d="M474.277 493.58C473.251 491.529 464.022 492.725 459.535 493.58C459.535 495.716 459.023 499.989 456.972 499.989C454.408 499.989 445.435 502.553 440.949 505.116C437.36 507.167 440.308 509.389 442.231 510.244C450.135 510.03 466.457 509.731 468.508 510.244C470.559 510.756 473.208 508.321 474.277 507.039C474.704 503.407 475.302 495.631 474.277 493.58Z" fill="#865861"/>
<path d="M94.3297 297.861C93.817 284.53 103.516 275.215 108.43 272.224L162.267 403.612C147.098 404.467 109.968 405.663 82.7931 403.612C48.8245 401.048 71.8975 380.539 69.9747 372.848C68.052 365.157 67.4109 351.057 77.0248 349.134C82.0526 348.129 94.9706 314.525 94.3297 297.861Z" fill="black" fill-opacity="0.13"/>
<path d="M135.992 197.037C127.276 201.139 132.36 227.801 135.992 240.62L119.969 294.456L138.555 380.98L169.96 395.721L210.338 454.686L245.588 532.878L253.92 528.391L218.67 452.763L175.729 368.162L183.42 358.548L235.334 404.694L226.361 464.299L235.334 468.145L249.434 389.953C228.497 376.921 187.521 350.729 191.111 350.216C195.597 349.575 199.442 348.293 199.442 347.653C199.442 347.012 202.006 340.602 203.288 341.243C204.57 341.884 214.184 340.602 215.465 339.962C216.747 339.321 215.465 336.116 216.106 336.116C216.619 336.116 218.029 332.271 218.67 330.348C218.884 329.066 218.798 326.118 216.747 324.58C214.696 323.041 211.62 322.657 210.338 322.657C208.415 322.657 204.057 323.041 202.006 324.58C199.442 326.502 200.083 326.502 200.083 331.63C200.083 335.731 194.529 337.184 191.751 337.398L175.729 338.039L194.315 326.502L196.879 304.711L189.188 278.433L161.628 256.642C157.569 250.233 150.861 236.774 156.501 234.21C163.551 231.006 170.484 228.241 171.765 215.423C173.047 202.604 176.134 199.198 167.279 191.708C162.077 187.309 146.888 191.91 135.992 197.037Z" fill="#60343D"/>
<path d="M139.717 237.214C146.896 242.342 151.681 235.078 153.177 230.805C152.75 228.241 151.895 222.473 151.895 219.91C151.895 216.705 148.691 216.705 148.05 214.141C147.409 211.578 150.613 210.937 153.177 210.937C157.023 210.937 156.595 202.391 157.023 198.118C158.048 190.428 162.577 191.496 164.714 192.991C168.766 188.939 171.483 197.872 172.99 202.826L173.045 203.005C180.736 194.801 174.967 178.65 164.714 180.173C164.714 169.677 148.05 169.677 144.845 175.686C140.231 172.098 128.822 171.6 128.822 180.173C122.157 178.634 112.158 180.173 114.081 189.145C107.928 189.658 105.108 203.005 110.235 207.732C107.159 210.808 106.389 219.91 114.081 221.832C111.004 227.472 114.081 239.537 121.772 237.214C124.976 244.023 135.872 241.46 139.717 237.214Z" fill="#30304C"/>
<path d="M253.161 520.499C247.008 517.936 242.052 523.277 240.343 526.268C239.317 532.421 242.479 536.95 244.188 538.445L272.389 548.059C273.457 545.709 274.055 540.496 267.902 538.445C261.749 536.394 255.511 525.627 253.161 520.499Z" fill="#DF8B77"/>
<path d="M142.282 398.725C128.951 395.136 126.045 372.875 126.259 362.193L199.323 339.12L207.014 348.733L242.265 369.884C275.592 374.37 247.392 455.126 244.187 458.971C241.624 462.048 232.01 452.135 227.524 446.794C229.446 455.767 254.442 486.531 257.647 502.553C260.21 515.372 236.496 516.013 224.319 514.731L208.937 484.608C200.391 472.644 183.044 445.512 182.018 432.694C180.737 416.671 158.946 403.211 142.282 398.725Z" fill="#ACB7FD"/>
<path d="M226.885 445.272C222.957 435.779 224.489 424.098 218.553 411.303C205.734 390.794 192.858 371.79 188.43 370.525" stroke="#686889" stroke-width="1.28183"/>
<path d="M133.951 239.778V244.264C111.904 251.443 104.683 268.619 103.828 276.31C93.5736 309.125 107.033 347.452 123.056 362.193C151.256 397.443 171.125 365.398 180.738 364.116C195.05 362.207 201.675 357.066 203.17 352.579C220.091 356.168 225.175 345.956 225.603 340.402C231.371 307.715 195.479 285.283 195.479 274.387C195.479 265.671 177.961 257.083 169.202 253.878C165.143 251.742 156.896 246.828 156.383 244.264C155.743 241.06 155.743 239.137 155.743 238.496C155.743 237.855 153.179 237.855 151.256 241.06C149.718 243.623 142.924 241.273 139.72 239.778C137.797 238.923 133.951 237.727 133.951 239.778Z" fill="#F2C98F"/>
<path d="M200.083 331.63C200.083 335.732 198.256 337.384 195.479 337.597L196.76 342.084L196.119 347.211C195.479 348.493 198.51 347.15 199.324 345.929C200.606 344.007 202.005 340.603 203.287 341.244C204.569 341.885 214.183 340.603 215.465 339.962C216.746 339.321 215.465 336.116 216.106 336.116C216.618 336.116 218.028 332.271 218.669 330.348C218.883 329.066 218.797 326.118 216.746 324.58C214.696 323.042 211.619 322.657 210.337 322.657C208.415 322.657 204.056 323.042 202.005 324.58C199.442 326.503 200.083 326.503 200.083 331.63Z" fill="#60343D"/>
<path d="M133.314 325.019C133.1 324.165 133.314 322.584 135.877 323.096C138.441 323.609 139.082 320.746 139.082 319.251M135.877 335.915C135.45 334.419 134.98 331.172 136.518 330.146C138.441 328.865 140.364 325.66 139.723 325.019M114.727 264.773C124.554 266.562 143.696 275.861 141.645 298.742C139.082 327.342 149.336 317.328 153.823 319.251C158.309 321.174 154.464 332.71 161.514 331.428C168.564 330.146 178.178 328.865 179.46 331.428C180.485 333.479 190.142 335.274 194.842 335.915C196.123 339.333 197.918 346.81 194.842 349.374C190.996 352.579 187.792 351.297 185.869 355.783C183.946 360.27 169.205 353.86 164.718 355.783C160.232 357.706 134.595 362.192 128.827 355.783C123.059 349.374 123.059 329.506 113.445 324.378C105.754 320.276 105.54 303.014 106.395 294.896M179.46 272.464C180.955 274.387 183.946 279.386 183.946 284C183.946 289.769 187.151 305.151 190.996 308.996C194.842 312.842 198.687 330.146 197.405 330.146" stroke="#A37434" stroke-width="1.28183"/>
<path d="M65.9816 108.246C134.184 100.85 135.123 139.939 149.977 154.319C164.077 -16.1653 73.6564 -15.3902 32.6906 28.0583C-8.27515 71.5068 -19.2716 117.49 65.9816 108.246Z" fill="#8292FB"/>
<path d="M398.13 120.285C329.528 120.285 330.602 141.893 330.602 172.016C309.561 -1.42336 431.573 -33.4691 452.376 30.3734C470.964 87.4146 433.149 120.285 398.13 120.285Z" fill="#F2C98F"/>
<path d="M619.053 165.13C597.597 154.494 556.173 145.905 540.44 166.13C559.801 4.33974 667.056 51.2595 674.544 110.504C682.067 170.024 650.428 180.684 619.053 165.13Z" fill="#4A4A6D"/>
</svg>
